<svg width="452" height="500" viewBox="0 0 452 500" fill="none" xmlns="http://www.w3.org/2000/svg">
<path fill-rule="evenodd" clip-rule="evenodd" d="M43.9868 33.3333H414.579V431.66C414.579 442.664 405.658 451.584 394.654 451.584H63.931C52.9271 451.584 44.0067 442.664 44.0067 431.66V33.3333H43.9868Z" fill="#E9F2FF"/>
<path fill-rule="evenodd" clip-rule="evenodd" d="M59.8266 3.80026e-06H398.659C407.462 3.80026e-06 414.599 7.13633 414.599 15.9394V33.433H44.0067V15.9394C44.0067 7.18235 51.0707 0.0654252 59.8271 0L59.8266 3.80026e-06Z" fill="#668EFF"/>
<path fill-rule="evenodd" clip-rule="evenodd" d="M345.382 16.6567C345.382 18.0911 344.518 19.3843 343.193 19.9332C341.867 20.4822 340.342 20.1788 339.328 19.1645C338.313 18.1502 338.01 16.6247 338.559 15.2995C339.108 13.9742 340.401 13.1102 341.835 13.1102C343.794 13.1102 345.382 14.698 345.382 16.6567Z" fill="white"/>
<path fill-rule="evenodd" clip-rule="evenodd" d="M366.163 16.6567C366.171 18.101 365.307 19.4076 363.975 19.9658C362.643 20.5241 361.106 20.2239 360.081 19.2055C359.057 18.1871 358.749 16.6515 359.299 15.3164C359.85 13.9813 361.152 13.1102 362.596 13.1102C364.558 13.1102 366.152 14.6948 366.163 16.6567Z" fill="white"/>
<path fill-rule="evenodd" clip-rule="evenodd" d="M386.924 16.6567C386.932 18.101 386.068 19.4076 384.736 19.9658C383.404 20.5241 381.867 20.2239 380.843 19.2055C379.819 18.1871 379.51 16.6515 380.061 15.3164C380.611 13.9813 381.913 13.1102 383.358 13.1102C385.319 13.1102 386.913 14.6948 386.924 16.6567Z" fill="white"/>
<path fill-rule="evenodd" clip-rule="evenodd" d="M249.506 226.738V217.533C249.506 214.991 250.405 212.822 252.202 211.024C254 209.227 256.169 208.328 258.711 208.328H417.846C420.388 208.328 422.558 209.227 424.355 211.024C426.153 212.822 427.051 214.991 427.051 217.533V310.819C427.051 313.361 426.153 315.53 424.355 317.328C422.558 319.125 420.388 320.024 417.846 320.024H267.916H258.711C256.169 320.024 254 319.125 252.202 317.328C250.405 315.53 249.506 313.361 249.506 310.819V226.738Z" fill="#B3CBFF"/>
<rect x="266.661" y="224.846" width="9.64338" height="78.6611" fill="#668EFF"/>
<rect x="287.601" y="259.494" width="9.64338" height="44.0327" fill="#668EFF"/>
<rect x="308.541" y="247.539" width="9.64338" height="55.9673" fill="#668EFF"/>
<rect x="329.482" y="231.959" width="9.64338" height="71.5481" fill="#668EFF"/>
<path fill-rule="evenodd" clip-rule="evenodd" d="M394.455 239.59H370.088C369.428 239.59 368.892 239.054 368.892 238.394V238.394C368.887 238.074 369.011 237.764 369.235 237.536C369.46 237.307 369.767 237.179 370.088 237.179H394.455C394.776 237.179 395.083 237.307 395.308 237.536C395.532 237.764 395.656 238.074 395.651 238.394C395.651 239.054 395.115 239.59 394.455 239.59V239.59Z" fill="#00145E"/>
<path fill-rule="evenodd" clip-rule="evenodd" d="M394.455 249.293H370.088C369.767 249.293 369.46 249.164 369.235 248.936C369.011 248.707 368.887 248.398 368.892 248.077C368.892 247.417 369.428 246.882 370.088 246.882L394.455 246.882C395.115 246.882 395.651 247.417 395.651 248.077V248.077C395.656 248.398 395.532 248.707 395.308 248.936C395.083 249.164 394.776 249.293 394.455 249.293Z" fill="#00145E"/>
<path fill-rule="evenodd" clip-rule="evenodd" d="M394.455 259.016H370.088C369.771 259.016 369.467 258.89 369.243 258.666C369.018 258.441 368.892 258.137 368.892 257.82C368.887 257.5 369.011 257.191 369.235 256.962C369.46 256.734 369.767 256.605 370.088 256.605H394.455C394.776 256.605 395.083 256.734 395.308 256.962C395.532 257.191 395.656 257.5 395.651 257.82C395.651 258.137 395.525 258.441 395.3 258.666C395.076 258.89 394.772 259.016 394.455 259.016H394.455Z" fill="#00145E"/>
<path fill-rule="evenodd" clip-rule="evenodd" d="M394.455 268.679H370.088C369.767 268.679 369.46 268.55 369.235 268.322C369.011 268.093 368.887 267.784 368.892 267.464V267.464C368.892 267.147 369.018 266.842 369.243 266.618C369.467 266.394 369.771 266.268 370.088 266.268H394.455C394.772 266.268 395.076 266.394 395.301 266.618C395.525 266.843 395.651 267.147 395.651 267.464C395.656 267.784 395.532 268.093 395.308 268.322C395.083 268.55 394.776 268.679 394.455 268.679V268.679Z" fill="#00145E"/>
<path fill-rule="evenodd" clip-rule="evenodd" d="M394.455 278.382H370.088C369.424 278.371 368.892 277.83 368.892 277.167V277.167C368.892 276.503 369.424 275.962 370.088 275.951L394.455 275.951C395.119 275.962 395.651 276.503 395.651 277.167V277.167C395.651 277.83 395.118 278.371 394.455 278.382L394.455 278.382Z" fill="#00145E"/>
<path fill-rule="evenodd" clip-rule="evenodd" d="M394.455 288.065H370.088C369.771 288.065 369.467 287.939 369.243 287.715C369.018 287.491 368.892 287.187 368.892 286.87C368.887 286.549 369.011 286.24 369.235 286.012C369.46 285.783 369.767 285.654 370.088 285.654L394.455 285.654C394.776 285.654 395.083 285.783 395.308 286.012C395.532 286.24 395.656 286.549 395.651 286.87V286.87C395.651 287.187 395.525 287.491 395.3 287.715C395.076 287.939 394.772 288.065 394.455 288.065H394.455Z" fill="#00145E"/>
<path fill-rule="evenodd" clip-rule="evenodd" d="M394.455 297.768H370.088C369.767 297.768 369.46 297.64 369.235 297.411C369.011 297.183 368.887 296.874 368.892 296.553C368.892 296.236 369.018 295.932 369.243 295.708C369.467 295.484 369.771 295.358 370.088 295.358H394.455C394.772 295.358 395.076 295.484 395.301 295.708C395.525 295.932 395.651 296.236 395.651 296.553C395.656 296.874 395.532 297.183 395.308 297.411C395.083 297.64 394.776 297.768 394.455 297.768Z" fill="#00145E"/>
<path fill-rule="evenodd" clip-rule="evenodd" d="M360.505 238.334C360.2 238.334 359.908 238.212 359.694 237.995C359.481 237.777 359.364 237.483 359.369 237.179V228.85C359.364 228.546 359.481 228.252 359.694 228.034C359.908 227.817 360.2 227.695 360.505 227.695H371.702C372.34 227.695 372.858 228.212 372.858 228.85C372.858 229.155 372.735 229.447 372.518 229.661C372.301 229.874 372.007 229.991 371.702 229.986H361.74V237.099C361.764 237.433 361.641 237.762 361.404 237.999C361.167 238.236 360.839 238.358 360.505 238.334V238.334Z" fill="white"/>
<path fill-rule="evenodd" clip-rule="evenodd" d="M404.038 307.252H392.841C392.203 307.252 391.685 306.735 391.685 306.097C391.685 305.792 391.807 305.5 392.025 305.287C392.242 305.073 392.536 304.956 392.841 304.961L402.803 304.961V297.768C402.803 297.13 403.32 296.613 403.959 296.613C404.597 296.613 405.114 297.13 405.114 297.768V306.097C405.116 306.705 404.645 307.21 404.038 307.252H404.038Z" fill="white"/>
<path fill-rule="evenodd" clip-rule="evenodd" d="M128.785 73.5605V64.3156C128.785 61.7627 129.687 59.5837 131.492 57.7785C133.298 55.9733 135.477 55.0707 138.03 55.0707H231.375C233.928 55.0707 236.107 55.9733 237.912 57.7785C239.717 59.5837 240.62 61.7627 240.62 64.3156V218.789C240.62 221.342 239.717 223.521 237.912 225.326C236.107 227.131 233.928 228.033 231.375 228.033H138.03C135.477 228.033 133.298 227.131 131.492 225.326C129.687 223.521 128.785 221.342 128.785 218.789V73.5605Z" fill="#668EFF"/>
<path d="M145.9 101.993L159.827 115.92L182.879 92.8871L193.519 103.547L207.187 89.8785L223.485 106.177" stroke="white" stroke-width="1.15" stroke-linecap="round" stroke-linejoin="round"/>
<path fill-rule="evenodd" clip-rule="evenodd" d="M150.044 101.992C150.044 104.281 148.188 106.137 145.9 106.137C143.611 106.137 141.755 104.281 141.755 101.992C141.755 99.7037 143.611 97.8482 145.9 97.8482C148.188 97.8482 150.044 99.7037 150.044 101.992V101.992Z" fill="#00145E"/>
<path fill-rule="evenodd" clip-rule="evenodd" d="M163.991 115.959C163.991 118.248 162.135 120.104 159.847 120.104C157.558 120.104 155.702 118.248 155.702 115.959C155.702 113.671 157.558 111.815 159.847 111.815C162.135 111.815 163.991 113.671 163.991 115.959V115.959Z" fill="#00145E"/>
<ellipse cx="182.54" cy="93.2656" rx="4.14425" ry="4.14425" fill="#00145E"/>
<ellipse cx="193.28" cy="102.909" rx="4.14425" ry="4.14425" fill="#00145E"/>
<ellipse cx="207.027" cy="90.6156" rx="4.14425" ry="4.14425" fill="#00145E"/>
<path fill-rule="evenodd" clip-rule="evenodd" d="M227.629 105.818C227.596 108.099 225.726 109.924 223.445 109.902C221.165 109.88 219.33 108.019 219.341 105.739C219.352 103.458 221.204 101.614 223.485 101.614C224.594 101.614 225.657 102.059 226.436 102.849C227.215 103.639 227.645 104.708 227.629 105.818H227.629Z" fill="#00145E"/>
<path fill-rule="evenodd" clip-rule="evenodd" d="M218.006 142.877H151.379C150.641 142.877 150.044 142.279 150.044 141.542C150.044 140.804 150.642 140.207 151.379 140.207H218.006C218.743 140.207 219.34 140.805 219.34 141.542H219.34C219.34 142.28 218.742 142.877 218.005 142.877H218.006Z" fill="white"/>
<path fill-rule="evenodd" clip-rule="evenodd" d="M218.006 153.258H151.379C150.641 153.258 150.044 152.66 150.044 151.923C150.054 151.19 150.646 150.598 151.379 150.588H218.006C218.738 150.598 219.33 151.19 219.34 151.923C219.34 152.66 218.742 153.258 218.005 153.258H218.006Z" fill="white"/>
<path fill-rule="evenodd" clip-rule="evenodd" d="M218.006 163.638H151.379C150.641 163.638 150.044 163.041 150.044 162.303C150.054 161.57 150.646 160.979 151.379 160.968H218.006C218.738 160.979 219.33 161.57 219.34 162.303C219.34 163.041 218.742 163.638 218.005 163.638H218.006Z" fill="white"/>
<path fill-rule="evenodd" clip-rule="evenodd" d="M218.006 174.019H151.379C150.641 174.019 150.044 173.421 150.044 172.684C150.055 171.954 150.649 171.369 151.379 171.369H218.006C218.735 171.369 219.33 171.954 219.34 172.684H219.34C219.34 173.422 218.742 174.019 218.005 174.019H218.006Z" fill="white"/>
<path fill-rule="evenodd" clip-rule="evenodd" d="M191.167 202.431C189.206 205.538 185.313 206.811 181.894 205.465C178.476 204.119 176.497 200.532 177.181 196.922C177.865 193.312 181.018 190.698 184.692 190.695V183.164C177.485 183.131 171.247 188.169 169.764 195.223C168.281 202.276 171.962 209.4 178.573 212.271C185.184 215.143 192.902 212.971 197.045 207.073L191.167 202.431Z" fill="white"/>
<path fill-rule="evenodd" clip-rule="evenodd" d="M199.874 198.346H192.343C192.342 194.118 188.915 190.694 184.69 190.695L184.692 183.164C193.077 183.164 199.874 189.961 199.874 198.346Z" fill="#00145E"/>
<path fill-rule="evenodd" clip-rule="evenodd" d="M199.875 198.346C199.887 201.529 198.889 204.633 197.025 207.213L191.148 202.471C191.897 201.275 192.303 199.897 192.323 198.486L199.875 198.346Z" fill="#FFB199"/>
<path fill-rule="evenodd" clip-rule="evenodd" d="M441.277 499.96H298.639C298.639 499.96 263.991 436.581 322.03 407.611C349.825 393.664 374.312 388.982 394.236 391.413C415.914 394.063 432.092 405.36 441.257 422.554C458.771 455.688 448.928 491.213 441.277 499.96Z" fill="#B3CBFF"/>
<path opacity="0.25" fill-rule="evenodd" clip-rule="evenodd" d="M364.25 493.584C368.549 496.065 373.039 498.197 377.679 499.96L298.639 499.96C298.639 499.96 263.991 436.581 322.03 407.611C349.825 393.664 374.312 388.982 394.236 391.413C393.12 395.597 389.095 402.51 375.667 410.52C353.67 423.65 338.747 478.283 364.25 493.584Z" fill="black"/>
<path fill-rule="evenodd" clip-rule="evenodd" d="M132.431 218.689C131.933 220.283 129.422 221.219 128.446 223.81C128.047 224.925 125.656 231.281 122.708 238.394C118.723 247.739 113.961 258.318 111.43 260.092C108.9 261.865 103.58 261.267 98.639 260.53C99.6074 257.697 100.145 254.736 100.233 251.743C100.085 251.576 99.9099 251.434 99.7149 251.325H99.7149C98.6789 250.628 96.2282 249.333 93.1798 247.798C93.1945 246.016 92.8559 244.249 92.1835 242.598L99.0375 243.176C102.883 243.515 107.007 243.853 107.366 243.853C108.043 243.853 125.656 216.398 126.075 214.206C126.493 212.014 128.386 201.096 129.203 200.817C130.02 200.538 130.119 215.9 130.219 216.398C130.319 216.896 131.076 213.011 132.032 212.791C132.989 212.572 132.929 217.175 132.431 218.689Z" fill="#FFB199"/>
<path fill-rule="evenodd" clip-rule="evenodd" d="M93.1006 254.075C92.8217 255.35 91.6063 255.927 90.2515 256.067C88.8374 256.27 87.4017 256.27 85.9877 256.067L75.368 249.372L73.6944 238.713L75.2485 238.972C79.6119 239.729 91.6063 241.841 92.2638 242.518C92.9362 244.169 93.2748 245.936 93.26 247.719C93.4632 249.836 93.4096 251.97 93.1006 254.075V254.075Z" fill="#2450CE"/>
<path fill-rule="evenodd" clip-rule="evenodd" d="M100.293 253.517C100.024 255.302 99.6582 257.071 99.1972 258.817C99.0776 259.335 98.9182 259.892 98.7788 260.45C98.3006 262.204 97.7228 263.997 97.0852 265.651C96.866 266.228 96.6469 266.766 96.4078 267.284C95.8119 268.736 94.9842 270.082 93.9571 271.269C88.3584 270.432 85.4893 268.261 84.3934 268.261C84.1543 270.253 84.1742 271.429 83.9551 272.505C83.8485 273.059 83.6815 273.6 83.457 274.118C82.6515 275.908 81.7331 277.645 80.7074 279.319C80.7074 279.319 80.7074 279.319 80.7074 279.319C80.3929 279.844 80.1133 280.39 79.8706 280.952C79.0756 282.66 78.4096 284.425 77.8782 286.232L77.4398 287.866C77.0015 289.62 76.6229 291.413 76.3042 293.146C76.3042 293.704 76.1248 294.262 76.0252 294.8C75.7263 296.693 75.5072 298.506 75.3677 300.08C75.3677 300.658 75.3677 301.215 75.3677 301.714C75.2652 302.727 75.2652 303.748 75.3677 304.762C75.567 305.698 75.7463 306.416 75.9057 306.993C76.065 307.571 76.2444 308.189 76.3041 308.627C76.4099 309.117 76.354 309.627 76.1447 310.082C76.1447 310.241 75.6666 310.46 74.9294 310.719C69.1712 312.712 45.0429 317.175 37.0732 315.84C28.187 314.326 28.187 312.014 28.7249 309.544C28.7249 309.365 28.8644 309.046 28.9839 308.627L29.482 306.993C29.7411 306.177 30.0599 305.2 30.3986 304.085L31.1158 301.714L31.594 300.08C32.0921 298.426 32.5902 296.653 33.0883 294.8C33.2278 294.262 33.3872 293.704 33.5068 293.146C33.965 291.413 34.4033 289.639 34.8018 287.866C34.9214 287.328 35.0409 286.77 35.1405 286.232C35.5191 284.439 35.8379 282.666 36.0969 280.952C36.0969 280.395 36.2563 279.837 36.3161 279.319C36.546 277.561 36.6658 275.791 36.6747 274.019C36.6747 273.76 36.6747 273.481 36.6747 273.202C36.6747 272.923 36.6747 272.664 36.6747 272.405C36.6821 270.622 36.8758 268.846 37.2527 267.104C37.3721 266.547 37.5115 266.009 37.651 265.471C38.1543 263.655 38.8212 261.887 39.6434 260.191C39.9224 259.613 40.2013 259.076 40.5002 258.557C41.5126 256.692 42.6859 254.919 44.0068 253.258C44.505 252.64 44.9832 252.082 45.4016 251.624C45.8853 251.091 46.4045 250.592 46.9557 250.129C49.1409 248.753 51.3953 247.49 53.7099 246.344L56.858 244.71C63.8116 241.124 71.8013 237.139 71.8013 237.139L75.2681 238.773C78.3763 240.247 83.0983 242.498 87.6211 244.75H87.7407L90.9286 246.324L91.6458 246.683L93.2796 247.499C96.328 249.034 98.7787 250.329 99.8148 251.026C100.01 251.136 100.185 251.277 100.333 251.444C100.341 251.491 100.341 251.538 100.333 251.584C100.405 252.227 100.392 252.877 100.293 253.517V253.517Z" fill="#668EFF"/>
<g opacity="0.45">
<path fill-rule="evenodd" clip-rule="evenodd" d="M90.9085 246.962H53.6899L56.838 244.969H87.601L90.9085 246.962Z" fill="white"/>
<path fill-rule="evenodd" clip-rule="evenodd" d="M100.293 253.875H43.9868C44.4849 253.122 44.9631 252.442 45.3815 251.883H100.373C100.407 252.549 100.38 253.217 100.293 253.875H100.293Z" fill="white"/>
<path fill-rule="evenodd" clip-rule="evenodd" d="M99.1973 258.816C99.0778 259.448 98.9184 260.129 98.7789 260.809H39.6237C39.9026 260.104 40.1816 259.448 40.4804 258.816H99.1973Z" fill="white"/>
<path fill-rule="evenodd" clip-rule="evenodd" d="M97.0451 265.73C96.8259 266.435 96.6068 267.091 96.3677 267.723H37.2324C37.3519 267.042 37.4914 266.386 37.6309 265.73H97.0451Z" fill="white"/>
<path fill-rule="evenodd" clip-rule="evenodd" d="M83.9155 272.664C83.8089 273.349 83.6418 274.017 83.4174 274.656H36.6949C36.6949 274.337 36.6949 273.992 36.6949 273.648C36.6949 273.303 36.6949 272.984 36.6949 272.664H83.9155Z" fill="white"/>
<path fill-rule="evenodd" clip-rule="evenodd" d="M80.6278 279.578C80.3132 280.219 80.0337 280.884 79.7909 281.57H36.1169C36.1169 280.89 36.2763 280.209 36.3361 279.578H80.6278Z" fill="white"/>
<path fill-rule="evenodd" clip-rule="evenodd" d="M77.8978 286.491L77.4594 288.484H34.8215C34.941 287.828 35.0605 287.147 35.1602 286.491H77.8978Z" fill="white"/>
<path fill-rule="evenodd" clip-rule="evenodd" d="M76.3241 293.405C76.3241 294.077 76.1447 294.749 76.0451 295.397H33.1083C33.2478 294.749 33.4072 294.077 33.5267 293.405H76.3241Z" fill="white"/>
<path fill-rule="evenodd" clip-rule="evenodd" d="M75.4874 300.339C75.4874 301.043 75.4874 301.724 75.4874 302.331H31.1359L31.6141 300.339H75.4874Z" fill="white"/>
<path fill-rule="evenodd" clip-rule="evenodd" d="M76.3041 309.185H29.0038L29.5019 307.193H75.9056C76.0849 308.116 76.2443 308.723 76.3041 309.185Z" fill="white"/>
</g>
<path fill-rule="evenodd" clip-rule="evenodd" d="M86.1269 210.361C85.4911 210.604 84.8152 210.726 84.1344 210.719C80.568 210.719 79.1932 206.734 77.3602 207.95C75.1685 209.603 74.6305 223.252 76.4436 228.173C76.8169 229.175 77.0645 230.219 77.1809 231.281C77.5133 234.095 77.3651 236.945 76.7425 239.709C76.1797 242.458 75.1414 245.088 73.6742 247.48C69.9882 253.317 70.4464 264.236 72.6381 276.071C74.8298 287.906 63.453 297.808 34.782 288.603L34.3038 288.464C27.3303 286.192 24.0627 282.387 23.2458 277.764C20.6158 263.06 42.6521 240.127 48.3305 232.357C55.7822 222.156 52.1958 218.051 51.9965 208.886C51.7973 199.721 53.989 193.784 63.3932 192.947C72.7975 192.11 73.7738 196.234 73.7738 196.234C88.7768 187.149 91.2275 208.547 86.1269 210.361Z" fill="#02113A"/>
<path fill-rule="evenodd" clip-rule="evenodd" d="M84.2535 217.474C83.8949 223.232 82.2611 229.886 77.2003 231.321C77.084 230.258 76.8364 229.214 76.4631 228.213C75.2921 223.45 75.0218 218.51 75.6661 213.648C75.6745 211.635 76.27 209.669 77.3797 207.99C79.3721 206.575 80.6074 210.739 84.2336 210.719C84.393 212.968 84.3997 215.224 84.2535 217.474Z" fill="#FFB199"/>
<path fill-rule="evenodd" clip-rule="evenodd" d="M128.745 482.865V483.005C127.709 484.997 122.29 485.933 120.656 483.005C119.022 479.856 80.8071 391.632 71.7416 376.33C66.421 367.264 60.5869 358.51 54.268 350.109H54.268C54.268 350.109 49.3467 386.431 48.2907 394.899C47.2347 403.008 20.855 475.672 17.2287 482.267C17.0494 482.566 16.9498 482.726 16.8701 482.745C15.7689 482.914 14.6567 483 13.5427 483.004C11.5503 483.004 9.21918 482.686 8.82069 481.371C8.76997 481.101 8.76997 480.824 8.82069 480.554C9.61767 472.106 23.7241 405.957 24.2222 402.969C24.7203 399.98 24.78 345.726 24.6406 334.808C24.6793 330.119 25.1934 325.446 26.1748 320.86C27.3702 314.724 28.8645 309.942 28.8645 309.942C28.3266 312.413 28.3266 314.724 37.2128 316.238C45.1825 317.573 69.2909 313.09 75.069 311.118C75.7663 312.114 76.4637 313.11 77.0614 314.206C115.954 372.983 129.542 480.873 128.745 482.865Z" fill="#00145E"/>
<path fill-rule="evenodd" clip-rule="evenodd" d="M25.6764 499.96H3.08227C2.88303 497.031 8.70092 480.415 8.70092 480.415C8.65019 480.684 8.65019 480.961 8.70092 481.231C9.37835 483.423 15.256 482.865 16.6706 482.606C16.6706 482.606 16.85 482.427 17.0293 482.128C19.9183 487.946 25.6764 499.96 25.6764 499.96Z" fill="#668EFF"/>
<path fill-rule="evenodd" clip-rule="evenodd" d="M139.803 499.96H119.998L120.596 482.945C122.23 485.933 127.649 484.937 128.685 482.945C132.773 488.358 136.488 494.043 139.803 499.96L139.803 499.96Z" fill="#668EFF"/>
<path fill-rule="evenodd" clip-rule="evenodd" d="M148.829 234.668C147.892 235.824 133.029 258.936 124.78 270.532C123.314 272.863 121.575 275.01 119.6 276.928C116.85 278.163 93.9173 271.488 93.9173 271.488C95.7703 269.616 97.5236 264.933 98.739 260.59C98.9382 259.912 99.1175 259.215 99.2769 258.597C99.4363 257.98 99.5957 257.342 99.7153 256.764L99.8348 256.167L99.9543 255.609C100.094 254.872 100.213 254.214 100.273 253.616C100.281 253.49 100.281 253.364 100.273 253.238C100.36 252.763 100.36 252.277 100.273 251.803C100.135 251.633 99.9663 251.491 99.775 251.385L101.23 252.082L113.443 257.84L115.714 258.916C116.531 259.315 138.807 238.016 140.022 236.382C141.237 234.748 142.015 224.905 143.31 224.905C144.605 224.905 145.302 228.312 145.302 228.312C145.302 228.312 160.604 228.053 161.7 228.452C162.796 228.85 150.064 233.114 148.829 234.668Z" fill="#FFB199"/>
<path opacity="0.25" fill-rule="evenodd" clip-rule="evenodd" d="M54.1678 349.97C54.1678 349.97 49.2465 386.292 48.1905 394.76C47.1345 402.869 20.7548 475.533 17.1286 482.128C16.9492 482.427 16.8496 482.586 16.7699 482.606C15.6687 482.774 14.5566 482.861 13.4426 482.865C17.9056 466.766 40.4001 396.692 41.6354 391.492C43.0102 385.754 42.4523 346.145 44.0264 344.511C45.6004 342.877 54.1678 349.97 54.1678 349.97Z" fill="black"/>
<path opacity="0.25" fill-rule="evenodd" clip-rule="evenodd" d="M77.0214 314.067C69.6096 318.051 57.9339 324.467 45.7004 324.288C35.3398 324.128 29.2828 322.295 26.0551 320.721C27.2505 314.585 28.7449 309.803 28.7449 309.803C28.2069 312.273 28.2069 314.585 37.0931 316.099C45.0629 317.434 69.1712 312.951 74.9493 310.978C75.6267 311.974 76.3241 313.011 77.0214 314.067Z" fill="black"/>
<path opacity="0.25" d="M71.6418 322.375C71.6418 322.375 118.085 417.414 126.015 480.414" stroke="white" stroke-width="0.77"/>
<path opacity="0.25" fill-rule="evenodd" clip-rule="evenodd" d="M84.254 217.474C81.8432 215.481 79.5917 212.214 78.2767 212.333C77.2958 212.555 76.3811 213.006 75.6069 213.648C75.6153 211.635 76.2108 209.669 77.3206 207.989C79.3128 206.575 80.5481 210.739 84.1743 210.719C84.3537 212.966 84.3803 215.223 84.254 217.474V217.474Z" fill="black"/>
<path opacity="0.25" fill-rule="evenodd" clip-rule="evenodd" d="M122.807 238.394C120.204 245.083 117.093 251.564 113.503 257.78L99.8348 251.325C98.7987 250.628 96.348 249.333 93.2996 247.798C93.3143 246.016 92.9757 244.249 92.3033 242.598L99.1573 243.176C101.907 246.822 105.812 251.584 108.203 252.72C110.594 253.855 117.866 245.069 122.807 238.394Z" fill="black"/>
<path opacity="0.25" fill-rule="evenodd" clip-rule="evenodd" d="M124.78 270.472C123.314 272.803 121.575 274.95 119.6 276.868C116.85 278.103 93.9173 271.429 93.9173 271.429C95.7703 269.556 97.5236 264.873 98.739 260.53C98.9382 259.853 99.1175 259.155 99.2769 258.538C99.4363 257.92 99.5957 257.282 99.7153 256.705L99.8348 256.107L99.9543 255.549C100.094 254.812 100.213 254.154 100.273 253.556C100.281 253.43 100.281 253.304 100.273 253.178C100.36 252.704 100.36 252.218 100.273 251.743C100.135 251.573 99.9663 251.431 99.775 251.325L101.23 252.022C101.23 256.505 101.389 268.838 103.222 270.731C105.055 272.624 116.013 275.951 124.78 270.472Z" fill="black"/>
<path opacity="0.25" fill-rule="evenodd" clip-rule="evenodd" d="M87.7205 245.069C83.6979 245.545 80.0718 247.721 77.7584 251.046C72.8371 257.721 79.97 276.948 72.2991 290.895C65.2858 303.566 38.8462 309.364 30.4581 304.363L31.1754 301.992L31.6536 300.359C32.1517 298.705 32.6498 296.932 33.1479 295.079C33.2874 294.541 33.4468 293.983 33.5663 293.425C33.9847 291.871 34.3633 290.277 34.7418 288.663C63.5125 297.868 74.8494 287.906 72.598 276.131C70.3465 264.355 69.948 253.377 73.634 247.539C75.1012 245.147 76.1396 242.518 76.7024 239.769C79.711 241.203 83.6958 243.116 87.5412 244.989L87.7205 245.069Z" fill="black"/>
<path opacity="0.25" fill-rule="evenodd" clip-rule="evenodd" d="M76.4636 228.213C76.8368 229.214 77.0845 230.258 77.2008 231.321C77.5332 234.135 77.385 236.985 76.7624 239.749C76.1997 242.498 75.1613 245.128 73.6941 247.519C70.0081 253.357 70.4664 264.276 72.658 276.111C74.8497 287.946 63.473 297.848 34.8019 288.643L34.3237 288.504C27.3502 286.232 24.0826 282.427 23.2657 277.804C25.6193 280.883 29.3616 282.575 33.2279 282.307C46.5373 282.487 43.5287 261.725 52.7736 249.89C62.0185 238.055 66.2823 207.412 76.4437 207.711C76.8348 207.709 77.2219 207.791 77.5793 207.95L77.5793 207.95C75.1884 209.643 74.6505 223.291 76.4636 228.213Z" fill="black"/>
<path d="M297.224 378.84C297.224 378.84 267.617 387.388 264.887 387.209C262.158 387.029 236.117 352.421 236.117 352.421" stroke="#00145E" stroke-width="2.31" stroke-linecap="round" stroke-linejoin="round"/>
<path fill-rule="evenodd" clip-rule="evenodd" d="M229.004 480.415C225.985 480.641 222.949 480.412 219.998 479.737C216.312 478.641 201.967 472.624 200.592 473.76C199.217 474.896 217.269 496.992 222.509 500C226.613 500 231.873 487.408 235.22 484.878C238.568 482.347 233.567 479.777 233.567 479.777L229.004 480.415Z" fill="#00145E"/>
<path fill-rule="evenodd" clip-rule="evenodd" d="M295.133 474.915C294.386 477.854 293.211 480.667 291.646 483.264C289.454 486.412 279.233 498.127 279.831 499.781C280.428 501.434 307.127 491.273 311.71 487.169C313.005 483.284 302.724 474.318 301.369 470.353C300.014 466.388 296.009 470.353 296.009 470.353L295.133 474.915Z" fill="#00145E"/>
<path fill-rule="evenodd" clip-rule="evenodd" d="M340.958 407.053C304.298 416.896 236.934 485.734 235.36 484.758C234.543 484.3 233.108 484.12 231.813 483.602C230.341 483.137 229.27 481.864 229.063 480.335C228.665 477.605 249.605 444.969 260.763 427.794L267.597 417.374L279.332 406.973C279.332 406.973 335.34 395.238 335.22 394.68C335.101 394.122 377.619 397.23 340.958 407.053Z" fill="#668EFF"/>
<path opacity="0.25" fill-rule="evenodd" clip-rule="evenodd" d="M340.958 407.053C304.298 416.896 236.934 485.734 235.36 484.758C234.543 484.3 233.108 484.12 231.813 483.602C238.926 475.354 257.495 453.417 259.827 446.603C261.421 441.881 261.241 433.911 260.763 427.794L267.597 417.374L279.332 406.973C279.332 406.973 335.34 395.238 335.22 394.68C335.101 394.122 377.619 397.23 340.958 407.053Z" fill="black"/>
<path fill-rule="evenodd" clip-rule="evenodd" d="M367.776 397.709C366.821 398.432 365.823 399.097 364.788 399.701C346.856 410.62 294.495 414.824 293.578 415.92C292.662 417.015 304.815 470.632 303.74 472.823C302.664 475.015 295.889 475.274 294.435 475.274C292.98 475.274 256.061 419.008 260.066 407.352C264.07 395.696 343.847 369.655 343.847 369.655L347.274 369.994L373.176 372.564C373.176 372.564 381.504 386.91 367.776 397.709Z" fill="#668EFF"/>
<path opacity="0.25" fill-rule="evenodd" clip-rule="evenodd" d="M367.776 397.709C360.934 395.329 355.08 390.737 351.14 384.658C348.289 379.874 344.145 375.993 339.185 373.461L342.692 372.006C344.76 374.949 347.691 377.176 351.08 378.382C361.281 382.048 371.383 380.375 374.65 375.931C377.539 383.91 374.722 392.835 367.776 397.709H367.776Z" fill="black"/>
<path fill-rule="evenodd" clip-rule="evenodd" d="M337.253 350.667L334.105 375.712L334.005 376.529L327.271 379.617L290.849 375.075C294.272 374.962 297.682 374.596 301.05 373.979C305.035 373.062 320.536 368.141 322.23 366.687C323.923 365.232 324.9 340.466 324.9 340.466H329.283L336.137 342.1L337.253 350.667Z" fill="#F99D85"/>
<path fill-rule="evenodd" clip-rule="evenodd" d="M336.137 342.06L335.977 343.475C333.554 343.466 331.149 343.048 328.864 342.24C327.476 341.768 326.141 341.154 324.879 340.407C325.442 332.335 326.742 324.332 328.765 316.497L332.929 313.549C332.929 313.549 334.583 318.609 335.838 322.714C336.495 324.846 337.033 326.699 337.173 327.496C337.129 332.367 336.783 337.231 336.137 342.06L336.137 342.06Z" fill="#668EFF"/>
<path fill-rule="evenodd" clip-rule="evenodd" d="M375.587 373.74C375.411 374.535 375.064 375.283 374.571 375.931C372.277 378.45 369.086 379.967 365.685 380.155C360.718 380.738 355.685 380.13 351 378.382C349.15 377.722 347.425 376.752 345.9 375.513L345.501 375.174C344.411 374.242 343.441 373.177 342.612 372.006C338.926 366.866 337.671 360.052 336.794 354.334C336.635 353.397 336.515 352.481 336.376 351.604C335.977 349.034 335.32 346.085 334.543 342.937C333.766 339.789 332.809 336.202 331.953 332.815C331.096 329.428 330.199 325.603 329.721 322.475C329.602 321.678 329.482 320.921 329.402 320.183C328.446 311.317 333.208 307.87 333.208 307.87C366.541 308.966 376.802 367.723 375.587 373.74Z" fill="#00145E"/>
<path fill-rule="evenodd" clip-rule="evenodd" d="M332.272 305.22H332.132C331.833 305.25 331.531 305.202 331.255 305.081C328.167 303.925 322.748 296.274 321.532 296.115C320.317 295.955 314.698 301.395 309.299 302.49C308.171 302.75 307 302.75 305.872 302.49C302.266 301.442 299.503 298.534 298.639 294.879C298.639 294.64 298.639 294.521 298.639 294.521C300.003 294.684 301.381 294.684 302.744 294.521C293.738 288.544 294.993 279.398 301.827 275.294C303.66 283.582 309.658 284.22 312.128 283.582C314.599 282.945 318.325 278.024 324.242 278.761C330.16 279.498 329.422 286.232 329.422 286.232C329.422 286.232 331.933 284.359 334.663 288.225C337.392 292.09 328.904 299.482 332.272 305.22Z" fill="#02113A"/>
<path fill-rule="evenodd" clip-rule="evenodd" d="M335.161 310.978C334.882 312.971 330.638 318.071 329.681 317.733C329.203 317.553 329.004 317.035 328.805 316.497C328.684 315.961 328.422 315.466 328.048 315.063C327.231 314.385 325.238 312.194 325.238 312.194C325.238 312.194 323.246 315.202 322.309 315.481C321.373 315.76 319.5 315.82 314.658 311.178C313.18 309.76 311.924 308.128 310.933 306.336C310.263 305.125 309.715 303.85 309.299 302.53C314.698 301.435 320.417 295.995 321.532 296.155C321.729 296.195 321.909 296.292 322.05 296.434C323.505 297.589 326.812 301.873 329.482 304.025C330.016 304.475 330.614 304.844 331.255 305.121C332.701 306.974 334.006 308.932 335.161 310.978Z" fill="#FFB199"/>
<path fill-rule="evenodd" clip-rule="evenodd" d="M349.765 342.04C347.872 343.794 340.799 343.654 336.276 343.156C335.638 343.156 335.061 343.016 334.543 342.937C333.78 342.913 333.032 342.723 332.351 342.379C331.958 339.207 331.825 336.009 331.953 332.815C331.913 329.374 332.079 325.934 332.451 322.513C332.451 322.235 332.55 321.957 332.59 321.697C334.343 313.489 340.201 313.489 340.201 313.489C348.669 314.306 350.721 332.955 349.765 342.04Z" fill="#668EFF"/>
<path fill-rule="evenodd" clip-rule="evenodd" d="M349.765 342.04C348.966 353.157 347.542 364.219 345.501 375.175C344.007 382.168 342.114 387.567 339.803 387.946C332.949 389.042 289.514 379.199 287.88 378.92C286.246 378.641 273.814 382.746 273.933 381.65C274.053 380.554 281.026 372.365 285.669 371.13C290.311 369.894 299.476 373.122 304.397 373.122C307.745 373.023 315.316 371.727 322.23 370.99C325.159 370.644 328.107 370.484 331.056 370.512C330.678 364.654 332.331 342.439 332.331 342.439C333.012 342.783 333.76 342.973 334.523 342.997C335.041 342.997 335.619 343.156 336.256 343.216C340.799 343.654 347.872 343.794 349.765 342.04Z" fill="#FFB199"/>
<path opacity="0.25" fill-rule="evenodd" clip-rule="evenodd" d="M331.076 370.452C328.126 370.424 325.178 370.584 322.249 370.93C325.748 363.316 327.937 355.165 328.725 346.822C328.725 345.248 328.844 343.734 328.864 342.239C328.864 341.622 328.864 341.004 328.864 340.406C328.792 334.418 329.085 328.429 329.741 322.475L329.741 322.475C330.219 325.603 331.056 329.149 331.972 332.815C331.845 336.009 331.978 339.207 332.371 342.379C332.371 342.379 330.697 364.614 331.076 370.452Z" fill="black"/>
<path opacity="0.25" fill-rule="evenodd" clip-rule="evenodd" d="M365.684 380.155C360.718 380.738 355.685 380.13 351 378.382C349.15 377.722 347.425 376.752 345.9 375.513C345.759 375.137 345.684 374.739 345.68 374.337V374.337C345.68 374.337 345.9 358.737 345.182 343.375C345.182 342.02 345.063 340.685 344.983 339.39C344.027 322.853 337.89 314.146 337.89 314.146C338.83 313.84 339.811 313.679 340.799 313.668C354.248 313.529 356.24 344.83 359.568 356.465C362.397 366.089 369.47 376.39 365.684 380.155Z" fill="black"/>
<path opacity="0.25" d="M347.494 389.4C347.494 389.4 287.203 404.881 284.473 410.341C281.743 415.8 299.775 471.349 299.775 471.349" stroke="white" stroke-width="0.77"/>
<path opacity="0.25" fill-rule="evenodd" clip-rule="evenodd" d="M322.05 296.434C318.584 298.944 316.83 305.18 313.144 306.057C312.417 306.217 311.677 306.311 310.933 306.336C310.263 305.125 309.715 303.85 309.299 302.53C314.698 301.435 320.417 295.995 321.532 296.155C321.729 296.195 321.909 296.292 322.05 296.434V296.434Z" fill="black"/>
<path opacity="0.25" fill-rule="evenodd" clip-rule="evenodd" d="M335.16 310.978C334.881 312.971 330.638 318.071 329.681 317.733C329.203 317.553 329.004 317.035 328.805 316.497C330.1 315.162 332.311 312.034 332.132 309.623C331.728 307.566 330.817 305.642 329.482 304.025C330.016 304.475 330.614 304.844 331.255 305.121C332.7 306.974 334.006 308.932 335.16 310.978Z" fill="black"/>
<path opacity="0.25" fill-rule="evenodd" clip-rule="evenodd" d="M332.132 305.26C331.832 305.289 331.53 305.241 331.255 305.12C328.167 303.965 322.747 296.314 321.532 296.155C320.317 295.995 314.698 301.434 309.298 302.53C308.171 302.789 306.999 302.789 305.871 302.53C302.255 301.475 299.489 298.55 298.639 294.879C299.296 295.497 300.89 296.314 304.736 296.334C311.012 296.334 315.654 288.623 320.914 288.484C326.174 288.344 326.653 292.469 326.653 292.469C326.653 292.469 327.031 289.799 330.139 290.596C333.925 291.572 328.784 302.172 332.132 305.26Z" fill="black"/>
<path fill-rule="evenodd" clip-rule="evenodd" d="M130.558 303.805V295.497C130.558 293.203 131.369 291.244 132.991 289.622C134.614 288 136.572 287.189 138.866 287.189H215.176C217.471 287.189 219.429 288 221.051 289.622C222.674 291.244 223.485 293.203 223.485 295.497V397.908C223.485 400.202 222.674 402.161 221.051 403.783C219.429 405.405 217.471 406.216 215.176 406.216L147.175 406.216L138.866 406.216C136.572 406.216 134.614 405.405 132.991 403.783C131.369 402.161 130.558 400.202 130.558 397.908V303.805Z" fill="#00145E"/>
<circle cx="177.021" cy="287.308" r="13.0305" fill="#668EFF"/>
<path d="M170.626 286.332L175.547 291.253L183.417 283.363" stroke="#E6EEFF" stroke-width="1.54" stroke-linecap="round" stroke-linejoin="round"/>
<path fill-rule="evenodd" clip-rule="evenodd" d="M201.15 324.288H152.913C152.253 324.288 151.718 323.752 151.718 323.092C151.728 322.44 152.261 321.917 152.913 321.917H201.15C201.795 321.927 202.315 322.447 202.325 323.092C202.325 323.745 201.802 324.277 201.15 324.288H201.15Z" fill="white"/>
<path fill-rule="evenodd" clip-rule="evenodd" d="M201.15 336.481H152.913C152.598 336.487 152.294 336.365 152.069 336.144C151.844 335.923 151.718 335.621 151.718 335.306C151.718 334.646 152.253 334.11 152.913 334.11H201.15C201.802 334.121 202.325 334.653 202.325 335.306C202.325 335.955 201.799 336.481 201.15 336.481Z" fill="white"/>
<path fill-rule="evenodd" clip-rule="evenodd" d="M175.109 348.675H152.913C152.253 348.675 151.718 348.14 151.718 347.48C151.728 346.827 152.261 346.304 152.913 346.304H175.109C175.758 346.304 176.284 346.83 176.284 347.48C176.29 347.795 176.168 348.099 175.947 348.324C175.726 348.548 175.424 348.675 175.109 348.675Z" fill="white"/>
<path fill-rule="evenodd" clip-rule="evenodd" d="M201.15 360.889H152.913C152.598 360.894 152.294 360.773 152.069 360.551C151.844 360.33 151.718 360.028 151.718 359.713C151.718 359.053 152.253 358.518 152.913 358.518H201.15C201.802 358.529 202.325 359.061 202.325 359.713C202.325 360.362 201.799 360.889 201.15 360.889Z" fill="white"/>
<path fill-rule="evenodd" clip-rule="evenodd" d="M187.382 373.102H152.913C152.253 373.102 151.718 372.567 151.718 371.907C151.728 371.254 152.261 370.731 152.913 370.731H187.382C188.035 370.731 188.567 371.254 188.578 371.907C188.578 372.224 188.452 372.528 188.227 372.752C188.003 372.976 187.699 373.102 187.382 373.102H187.382Z" fill="white"/>
<ellipse cx="284.194" cy="94.0227" rx="13.0305" ry="13.0305" fill="#668EFF"/>
<path d="M277.779 93.0464L282.7 97.9677L290.59 90.0777" stroke="#E6EEFF" stroke-width="1.54" stroke-linecap="round" stroke-linejoin="round"/>
<ellipse cx="284.194" cy="131.879" rx="13.0305" ry="13.0305" fill="#668EFF"/>
<path d="M277.779 130.903L282.7 135.824L290.59 127.934" stroke="#E6EEFF" stroke-width="1.54" stroke-linecap="round" stroke-linejoin="round"/>
<ellipse cx="284.194" cy="169.735" rx="13.0305" ry="13.0305" fill="#668EFF"/>
<path d="M277.779 168.759L282.7 173.68L290.59 165.79" stroke="#E6EEFF" stroke-width="1.54" stroke-linecap="round" stroke-linejoin="round"/>
<path fill-rule="evenodd" clip-rule="evenodd" d="M356.041 87.6669H307.804C307.152 87.667 306.62 87.1438 306.609 86.4914C306.609 85.8311 307.144 85.2959 307.804 85.2959H356.041C356.694 85.3068 357.217 85.8388 357.217 86.4914C357.206 87.1361 356.686 87.6562 356.041 87.6669V87.6669Z" fill="#02113A"/>
<path fill-rule="evenodd" clip-rule="evenodd" d="M330.08 100.12H307.804C307.144 100.12 306.609 99.5843 306.609 98.9241C306.62 98.2716 307.152 97.7484 307.804 97.7485L330.08 97.7485C330.732 97.7484 331.264 98.2716 331.275 98.9241V98.9241C331.275 99.5843 330.74 100.12 330.08 100.12Z" fill="#02113A"/>
<path fill-rule="evenodd" clip-rule="evenodd" d="M342.273 140.466H307.804C307.144 140.466 306.609 139.931 306.609 139.271V139.271C306.62 138.618 307.152 138.095 307.804 138.095H342.273C342.926 138.095 343.458 138.618 343.469 139.271C343.469 139.588 343.343 139.892 343.119 140.116C342.895 140.34 342.591 140.466 342.273 140.466L342.273 140.466Z" fill="#02113A"/>
<path fill-rule="evenodd" clip-rule="evenodd" d="M330.08 128.014H307.804C307.144 128.014 306.609 127.478 306.609 126.818C306.62 126.166 307.152 125.642 307.804 125.643L330.08 125.643C330.732 125.642 331.264 126.166 331.275 126.818V126.818C331.275 127.478 330.74 128.014 330.08 128.014Z" fill="#02113A"/>
<path fill-rule="evenodd" clip-rule="evenodd" d="M356.041 164.136H307.804C307.144 164.136 306.609 163.601 306.609 162.941C306.609 162.281 307.144 161.745 307.804 161.745H356.041C356.694 161.756 357.217 162.288 357.217 162.941C357.217 163.593 356.693 164.125 356.041 164.136H356.041Z" fill="#02113A"/>
<path fill-rule="evenodd" clip-rule="evenodd" d="M342.273 176.33H307.804C307.144 176.33 306.609 175.795 306.609 175.134V175.134C306.62 174.482 307.152 173.959 307.804 173.959H342.273C342.926 173.959 343.458 174.482 343.469 175.134C343.469 175.451 343.343 175.756 343.119 175.98C342.895 176.204 342.591 176.33 342.273 176.33L342.273 176.33Z" fill="#02113A"/>
<path fill-rule="evenodd" clip-rule="evenodd" d="M71.6418 163.638V142.02C71.631 136.949 67.5284 132.837 62.4569 132.815H9.83665C4.76518 132.837 0.662457 136.949 0.65155 142.02V170.911C0.662335 175.978 4.76809 180.085 9.83634 180.096H61.0022L68.9719 188.065C69.4314 188.537 70.1309 188.682 70.7399 188.432C71.3488 188.182 71.7451 187.588 71.7414 186.93L71.6418 163.638Z" fill="#B3CBFF"/>
<path fill-rule="evenodd" clip-rule="evenodd" d="M24.7994 157.083C24.7994 158.701 23.4881 160.012 21.8706 160.012C20.253 160.012 18.9417 158.701 18.9417 157.083C18.9417 155.465 20.253 154.154 21.8706 154.154C23.4881 154.154 24.7994 155.465 24.7994 157.083Z" fill="#00145E"/>
<path fill-rule="evenodd" clip-rule="evenodd" d="M39.6236 157.083C39.6236 158.701 38.3123 160.012 36.6947 160.012C35.0771 160.012 33.7658 158.701 33.7658 157.083C33.7658 155.465 35.0771 154.154 36.6947 154.154C38.3123 154.154 39.6236 155.465 39.6236 157.083H39.6236Z" fill="#00145E"/>
<path fill-rule="evenodd" clip-rule="evenodd" d="M54.4073 157.083C54.4066 158.277 53.6817 159.35 52.575 159.797C51.4682 160.244 50.2011 159.975 49.3719 159.116C48.5426 158.258 48.3173 156.982 48.8022 155.891C49.2871 154.801 50.3853 154.114 51.5781 154.154C53.1566 154.208 54.4082 155.504 54.4073 157.083Z" fill="#00145E"/>
</svg>
