<svg width="48" height="48" viewBox="0 0 48 48" fill="none" xmlns="http://www.w3.org/2000/svg">
<g opacity="0.7">
<path d="M42.2625 25.4438L40.9219 12.9375C40.6406 10.2657 38.3906 8.24066 35.7 8.25003H12.2906C9.60938 8.24066 7.35 10.275 7.06875 12.9375L5.7375 25.4438C5.40938 28.4532 5.25 31.4719 5.25 34.5C5.25 37.3969 7.60313 39.75 10.5 39.75H37.5C40.3969 39.75 42.75 37.3969 42.75 34.5C42.75 31.4719 42.5906 28.4532 42.2625 25.4438ZM7.22812 25.6032L8.56875 13.0969C8.76563 11.1938 10.3781 9.74066 12.3 9.75003H35.7094C37.6312 9.75003 39.2344 11.1938 39.4406 13.0969L40.7812 25.6032C40.9594 27.3 41.0906 29.025 41.1656 30.7407C40.1906 29.7844 38.8781 29.25 37.5094 29.25H10.5C9.13125 29.25 7.81875 29.7844 6.84375 30.7407C6.91875 29.025 7.04062 27.3094 7.22812 25.6032ZM20.25 32.25H17.25V30.75H20.25V32.25ZM15.75 32.25H13.5C13.0875 32.25 12.75 31.9125 12.75 31.5V30.75H15.75V32.25ZM21.75 30.75H24.75V31.5C24.75 31.9125 24.4125 32.25 24 32.25H21.75V30.75ZM37.5 38.25H10.5C8.42812 38.25 6.75 36.5719 6.75 34.5C6.75 32.4282 8.42812 30.75 10.5 30.75H11.25V31.5C11.25 32.7469 12.2531 33.75 13.5 33.75H24C25.2469 33.75 26.25 32.7469 26.25 31.5V30.75H37.5C39.5719 30.75 41.25 32.4282 41.25 34.5C41.25 36.5719 39.5719 38.25 37.5 38.25Z" fill="white"/>
<path d="M13.1813 21.6095C11.9531 22.2283 11.4563 23.7283 12.075 24.9658C12.6938 26.1939 14.1938 26.6908 15.4313 26.072C15.6375 25.9689 15.825 25.8376 15.9938 25.6783L17.8875 23.9439C19.875 24.497 21.9375 24.7689 24 24.7595C31.1531 24.7595 36.75 21.797 36.75 18.0095C36.75 14.222 31.1531 11.2595 24 11.2595C16.8469 11.2595 11.25 14.222 11.25 18.0095C11.325 19.4251 12.0281 20.747 13.1813 21.6095ZM14.9813 24.5626C14.5781 24.9376 13.9406 24.9095 13.5656 24.5064C13.1906 24.1033 13.2188 23.4658 13.6219 23.0908C13.7063 23.0158 13.8 22.9595 13.8937 22.9126L19.4062 20.4939L14.9813 24.5626ZM20.25 18.0001C20.25 17.3908 21.7125 16.5001 24 16.5001C26.2875 16.5001 27.75 17.3908 27.75 18.0001C27.75 18.6095 26.2875 19.5001 24 19.5001C21.7125 19.5001 20.25 18.6095 20.25 18.0001ZM24 12.7501C30.0938 12.7501 35.25 15.1501 35.25 18.0001C35.25 20.8501 30.0938 23.2501 24 23.2501C22.3875 23.2501 20.775 23.0814 19.2 22.7251L20.4281 21.6001C20.7469 21.3095 20.9344 20.8876 20.9156 20.4564C21.9 20.8314 22.9406 21.0095 24 21.0001C26.9906 21.0001 29.25 19.7064 29.25 18.0001C29.25 16.2939 26.9906 15.0001 24 15.0001C21.0094 15.0001 18.75 16.2939 18.75 18.0001C18.75 18.3658 18.8625 18.7314 19.0594 19.0408C18.975 19.0595 18.9 19.0876 18.8156 19.1251L14.7281 20.9064C13.4531 20.0345 12.75 19.0126 12.75 18.0001C12.75 15.1501 17.9062 12.7501 24 12.7501Z" fill="white"/>
<path d="M37.5 33.75H29.25C28.8375 33.75 28.5 34.0875 28.5 34.5C28.5 34.9125 28.8375 35.25 29.25 35.25H37.5C37.9125 35.25 38.25 34.9125 38.25 34.5C38.25 34.0875 37.9125 33.75 37.5 33.75Z" fill="white"/>
</g>
</svg>
