<svg width="177" height="271" viewBox="0 0 177 271" fill="none" xmlns="http://www.w3.org/2000/svg">
    <defs>
        <linearGradient id="paint0_linear" x1="162.331" y1="151.042" x2="57.113" y2="256.003" gradientUnits="userSpaceOnUse">
            <stop stop-color="#42E8E0"/>
            <stop offset="0.04" stop-color="#3ACBC9"/>
            <stop offset="0.11" stop-color="#2D9CA4"/>
            <stop offset="0.19" stop-color="#217283"/>
            <stop offset="0.27" stop-color="#174F67"/>
            <stop offset="0.36" stop-color="#0F3250"/>
            <stop offset="0.45" stop-color="#091C3E"/>
            <stop offset="0.55" stop-color="#040C32"/>
            <stop offset="0.66" stop-color="#02032A"/>
            <stop offset="0.82" stop-color="#010028"/>
        </linearGradient>
        <linearGradient id="paint1_linear" x1="5.04637" y1="211.972" x2="160.279" y2="236.502" gradientUnits="userSpaceOnUse">
            <stop stop-color="#C3ECFF"/>
            <stop offset="0.3" stop-color="#ADEBFE"/>
            <stop offset="0.93" stop-color="#75E8FC"/>
            <stop offset="1" stop-color="#6EE8FC"/>
        </linearGradient>
        <linearGradient id="paint2_linear" x1="120.465" y1="256.941" x2="76.2342" y2="214.888" gradientUnits="userSpaceOnUse">
            <stop stop-color="#1F6C7E"/>
            <stop offset="0.04" stop-color="#216F81"/>
            <stop offset="0.08" stop-color="#2A7B8F"/>
            <stop offset="0.19" stop-color="#3F98B1"/>
            <stop offset="0.31" stop-color="#50B0CC"/>
            <stop offset="0.44" stop-color="#5DC2E1"/>
            <stop offset="0.58" stop-color="#67CFF0"/>
            <stop offset="0.75" stop-color="#6CD7F9"/>
            <stop offset="1" stop-color="#6ED9FC"/>
        </linearGradient>
        <linearGradient id="paint3_linear" x1="0" y1="243.98" x2="73.4832" y2="243.98" gradientUnits="userSpaceOnUse">
            <stop stop-color="#3780B3"/>
            <stop offset="0.09" stop-color="#336AA6"/>
            <stop offset="0.23" stop-color="#2E4E95"/>
            <stop offset="0.38" stop-color="#293887"/>
            <stop offset="0.55" stop-color="#26287D"/>
            <stop offset="0.74" stop-color="#251F78"/>
            <stop offset="1" stop-color="#241C76"/>
        </linearGradient>
        <linearGradient id="paint4_linear" x1="57.0743" y1="18.3331" x2="157.492" y2="150.509" gradientUnits="userSpaceOnUse">
            <stop stop-color="#227786"/>
            <stop offset="0.31" stop-color="#235F82"/>
            <stop offset="0.95" stop-color="#242177"/>
            <stop offset="1" stop-color="#241C76"/>
        </linearGradient>
        <linearGradient id="paint5_linear" x1="1195.59" y1="6652.27" x2="12207.1" y2="6652.27" gradientUnits="userSpaceOnUse">
            <stop stop-color="#3780B3"/>
            <stop offset="0.09" stop-color="#336AA6"/>
            <stop offset="0.23" stop-color="#2E4E95"/>
            <stop offset="0.38" stop-color="#293887"/>
            <stop offset="0.55" stop-color="#26287D"/>
            <stop offset="0.74" stop-color="#251F78"/>
            <stop offset="1" stop-color="#241C76"/>
        </linearGradient>
        <clipPath id="clip0">
            <rect width="177" height="271" fill="white"/>
        </clipPath>
    </defs>
<g clip-path="url(#clip0)">
<g style="mix-blend-mode:lighten">
<path style="mix-blend-mode:lighten" d="M130.505 221.321L121.457 216.088L154.779 196.901C155.127 196.786 155.43 196.564 155.645 196.267C155.86 195.969 155.976 195.611 155.976 195.244C155.976 194.876 155.86 194.518 155.645 194.221C155.43 193.923 155.127 193.701 154.779 193.587L120.691 173.806C119.806 173.358 118.829 173.125 117.837 173.125C116.846 173.125 115.869 173.358 114.984 173.806L81.6613 193.098L72.6304 187.865L105.953 168.573C109.638 166.707 113.709 165.735 117.837 165.735C121.966 165.735 126.037 166.707 129.722 168.573L163.775 188.284C170.318 192.069 170.318 198.244 163.775 202.047L130.505 221.321Z" fill="url(#paint0_linear)"/>
</g>
<path d="M145.035 223.624C145.035 218.792 142.094 213.158 138.475 211.065L78.0946 176.178C77.4841 175.742 76.7682 175.478 76.0215 175.414C75.2748 175.349 74.5246 175.487 73.8488 175.812L1.74023 217.746L71.4649 270.372L142.477 229.049C142.697 228.948 142.907 228.825 143.104 228.683C143.789 228.043 144.319 227.254 144.654 226.378C144.989 225.501 145.119 224.559 145.035 223.624Z" fill="url(#paint1_linear)"/>
<path d="M71.4648 270.372L142.477 229.049C142.697 228.948 142.907 228.825 143.103 228.683C143.794 228.039 144.327 227.245 144.662 226.362C144.997 225.478 145.124 224.53 145.035 223.589C144.987 221.162 144.392 218.777 143.295 216.612L62.312 263.482L71.4648 270.372Z" fill="url(#paint2_linear)"/>
<path d="M66.9231 270.215L6.56007 235.328C2.94072 233.183 0 227.549 0 222.699C0 217.868 2.94072 215.722 6.56007 217.728L66.9231 252.615C70.5599 254.725 73.4832 260.342 73.4832 265.191C73.4832 270.076 70.5599 272.308 66.9231 270.215Z" fill="url(#paint3_linear)"/>
<path d="M67.6542 252.336L7.29109 217.449C6.66282 217.004 5.9247 216.742 5.15747 216.689C4.39025 216.637 3.62344 216.797 2.94092 217.152C3.55484 217.002 4.19316 216.98 4.81593 217.088C5.4387 217.196 6.03252 217.432 6.56027 217.78L66.9233 252.667C70.5601 254.778 73.4834 260.395 73.4834 265.244C73.5896 266.232 73.4424 267.232 73.0557 268.148C72.669 269.063 72.0556 269.865 71.2735 270.477C73.0136 269.936 74.2142 267.93 74.2142 264.877C74.2142 260.063 71.3431 254.446 67.6542 252.336Z" fill="white"/>
<path d="M57.8922 258.423L50.6361 254.237C50.2375 253.95 49.9117 253.573 49.685 253.137C49.4583 252.701 49.3371 252.217 49.3311 251.725C49.3311 250.766 49.9053 250.312 50.6361 250.731L57.8922 254.935C58.2875 255.221 58.6111 255.595 58.8376 256.028C59.0641 256.461 59.1872 256.94 59.1973 257.429C59.1625 258.406 58.6056 258.842 57.8922 258.423Z" fill="#FF2C9C"/>
<path d="M67.1668 209.32C67.5887 209.182 67.9562 208.914 68.2167 208.553C68.4773 208.193 68.6175 207.759 68.6175 207.314C68.6175 206.87 68.4773 206.436 68.2167 206.076C67.9562 205.715 67.5887 205.447 67.1668 205.308C66.0888 204.759 64.8963 204.472 63.6867 204.472C62.4771 204.472 61.2846 204.759 60.2066 205.308C59.7847 205.447 59.4172 205.715 59.1567 206.076C58.8962 206.436 58.7559 206.87 58.7559 207.314C58.7559 207.759 58.8962 208.193 59.1567 208.553C59.4172 208.914 59.7847 209.182 60.2066 209.32C61.2846 209.87 62.4771 210.157 63.6867 210.157C64.8963 210.157 66.0888 209.87 67.1668 209.32Z" fill="#241C76"/>
<path d="M77.6942 215.321C78.1078 215.174 78.4659 214.902 78.7191 214.543C78.9724 214.184 79.1083 213.755 79.1083 213.315C79.1083 212.875 78.9724 212.446 78.7191 212.087C78.4659 211.727 78.1078 211.456 77.6942 211.309C76.6153 210.762 75.4232 210.477 74.214 210.477C73.0049 210.477 71.8128 210.762 70.7339 211.309C70.312 211.447 69.9446 211.716 69.684 212.076C69.4235 212.436 69.2832 212.87 69.2832 213.315C69.2832 213.76 69.4235 214.193 69.684 214.554C69.9446 214.914 70.312 215.182 70.7339 215.321C71.812 215.871 73.0044 216.157 74.214 216.157C75.4237 216.157 76.6161 215.871 77.6942 215.321Z" fill="white"/>
<path d="M88.2214 221.269C88.635 221.122 88.9931 220.85 89.2463 220.491C89.4996 220.132 89.6355 219.703 89.6355 219.263C89.6355 218.823 89.4996 218.394 89.2463 218.035C88.9931 217.676 88.635 217.404 88.2214 217.257C87.1446 216.703 85.9516 216.414 84.7413 216.414C83.5309 216.414 82.3379 216.703 81.2611 217.257C80.8455 217.399 80.4847 217.669 80.2292 218.027C79.9738 218.385 79.8364 218.814 79.8364 219.254C79.8364 219.695 79.9738 220.124 80.2292 220.482C80.4847 220.84 80.8455 221.109 81.2611 221.252C82.3378 221.804 83.5296 222.094 84.7392 222.097C85.9488 222.1 87.142 221.816 88.2214 221.269Z" fill="white"/>
<path d="M63.5995 207.995C63.3702 207.99 63.1515 207.897 62.9893 207.734C62.827 207.572 62.7339 207.353 62.7295 207.123V119.522C62.7295 119.291 62.8212 119.069 62.9843 118.905C63.1475 118.742 63.3688 118.65 63.5995 118.65C63.8303 118.65 64.0516 118.742 64.2147 118.905C64.3779 119.069 64.4696 119.291 64.4696 119.522V207.123C64.4696 207.354 64.3779 207.576 64.2147 207.739C64.0516 207.903 63.8303 207.995 63.5995 207.995Z" fill="#396CAA"/>
<path d="M67.8977 116.4H59.3018V135.012H67.8977V116.4Z" fill="#5793CE"/>
<path d="M66.6449 136.756C65.7046 137.237 64.6641 137.488 63.6085 137.488C62.5529 137.488 61.5124 137.237 60.5721 136.756C60.2117 136.629 59.8996 136.393 59.6788 136.081C59.458 135.768 59.3394 135.395 59.3394 135.012C59.3394 134.629 59.458 134.255 59.6788 133.943C59.8996 133.63 60.2117 133.394 60.5721 133.267C61.5124 132.787 62.5529 132.536 63.6085 132.536C64.6641 132.536 65.7046 132.787 66.6449 133.267C67.0053 133.394 67.3174 133.63 67.5382 133.943C67.7591 134.255 67.8776 134.629 67.8776 135.012C67.8776 135.395 67.7591 135.768 67.5382 136.081C67.3174 136.393 67.0053 136.629 66.6449 136.756Z" fill="#5793CE"/>
<path d="M70.5771 90.4614H56.6392V119.644H70.5771V90.4614Z" fill="#5793CE"/>
<path d="M59.3018 119.452V125.749C60.6785 126.332 62.1576 126.632 63.6519 126.632C65.1462 126.632 66.6254 126.332 68.0021 125.749V119.452C66.6251 118.871 65.1461 118.571 63.6519 118.571C62.1578 118.571 60.6787 118.871 59.3018 119.452Z" fill="#396CAA"/>
<path d="M68.5412 122.487C67.014 123.27 65.3233 123.678 63.6081 123.678C61.893 123.678 60.2023 123.27 58.675 122.487C55.9605 120.917 55.9605 118.371 58.675 116.783C60.2048 116.009 61.8945 115.606 63.6081 115.606C65.3218 115.606 67.0115 116.009 68.5412 116.783C71.3428 118.371 71.3428 120.917 68.5412 122.487Z" fill="#5793CE"/>
<path d="M84.724 219.787C84.4933 219.787 84.272 219.695 84.1088 219.531C83.9457 219.368 83.854 219.146 83.854 218.914V131.314C83.854 131.083 83.9457 130.861 84.1088 130.697C84.272 130.534 84.4933 130.442 84.724 130.442C84.9548 130.442 85.1761 130.534 85.3393 130.697C85.5024 130.861 85.5941 131.083 85.5941 131.314V218.914C85.5941 219.146 85.5024 219.368 85.3393 219.531C85.1761 219.695 84.9548 219.787 84.724 219.787Z" fill="#396CAA"/>
<path d="M89.0222 128.191H80.4263V146.803H89.0222V128.191Z" fill="#5793CE"/>
<path d="M87.7692 148.565C86.8259 149.046 85.7825 149.297 84.7241 149.297C83.6657 149.297 82.6224 149.046 81.679 148.565C81.3263 148.431 81.0226 148.192 80.8084 147.88C80.5942 147.569 80.4795 147.199 80.4795 146.821C80.4795 146.442 80.5942 146.073 80.8084 145.761C81.0226 145.45 81.3263 145.211 81.679 145.076C82.6224 144.595 83.6657 144.345 84.7241 144.345C85.7825 144.345 86.8259 144.595 87.7692 145.076C88.122 145.211 88.4256 145.45 88.6398 145.761C88.854 146.073 88.9688 146.442 88.9688 146.821C88.9688 147.199 88.854 147.569 88.6398 147.88C88.4256 148.192 88.122 148.431 87.7692 148.565Z" fill="#5793CE"/>
<path d="M91.6845 102.253H77.7466V131.436H91.6845V102.253Z" fill="#5793CE"/>
<path d="M80.4263 131.261V137.558C81.7879 138.128 83.2487 138.422 84.7242 138.422C86.1998 138.422 87.6606 138.128 89.0222 137.558V131.261C87.6628 130.683 86.2011 130.385 84.7242 130.385C83.2474 130.385 81.7857 130.683 80.4263 131.261Z" fill="#396CAA"/>
<path d="M89.6482 134.314C88.1216 135.088 86.4347 135.491 84.7238 135.491C83.013 135.491 81.3261 135.088 79.7994 134.314C77.0675 132.744 77.0675 130.18 79.7994 128.61C81.3261 127.836 83.013 127.433 84.7238 127.433C86.4347 127.433 88.1216 127.836 89.6482 128.61C92.3801 130.163 92.3801 132.727 89.6482 134.314Z" fill="#5793CE"/>
<path d="M17.1919 34.8869L46.9819 17.6877L45.9031 34.8869L28.7634 40.1199L17.1919 34.8869Z" fill="#5793CE"/>
<path d="M152.917 157.147L171.606 146.106L153.805 123.831L149.124 131.506L152.917 157.147Z" fill="#241C76"/>
<path d="M158.12 101.172C156.133 99.9853 153.944 99.1753 151.665 98.7819C148.654 82.9259 137.744 66.0931 124.537 58.5052C121.163 56.435 117.37 55.1476 113.435 54.7374C111.695 35.5497 98.3313 13.7107 82.1139 4.34357C73.6919 -0.592896 66.1226 -1.16853 60.363 1.83173L60.102 1.98872L59.667 2.23293L42.0749 12.6989L47.9215 17.2691C42.7013 19.5716 39.3604 25.4675 39.3604 34.1892C39.3604 50.2719 50.6186 69.8259 64.5044 77.7976L158.12 144.798C168.561 150.833 177 145.949 177 133.861C177 121.772 168.543 107.172 158.12 101.172Z" fill="url(#paint4_linear)"/>
<path d="M40.2305 27.1072L80.6001 3.48888C72.7698 -0.610308 65.6877 -0.941732 60.3631 1.86665L60.1021 2.02364L59.6671 2.26785L42.0749 12.7339L47.9216 17.2691C45.9712 18.2056 44.2626 19.5804 42.9286 21.2867C41.5947 22.9931 40.6713 24.9848 40.2305 27.1072Z" fill="#5793CE"/>
<path d="M114.845 96.6712L144.252 79.35C139.572 70.799 132.784 63.5926 124.537 58.4179C123.51 57.8249 122.518 57.319 121.527 56.8655L84.0454 78.879L114.845 96.6712Z" fill="#5793CE"/>
<path d="M50.4619 14.5652L63.5994 22.1705L87.5428 7.9716C85.8292 6.63009 84.027 5.40626 82.1486 4.3085C79.5179 2.76888 76.6904 1.59523 73.7441 0.819824L50.4619 14.5652Z" fill="#D4ECFF"/>
<path d="M140.946 74.239L117.438 88.1937L125.616 97.334L146.966 84.6876C145.266 81.0363 143.251 77.5403 140.946 74.239Z" fill="#D4ECFF"/>
<path d="M139.641 112.039C137.655 110.85 135.466 110.039 133.185 109.649C130.192 93.7932 119.178 76.9603 106.145 69.3725C102.769 67.3049 98.9768 66.0177 95.0429 65.6047C93.3028 46.417 79.9217 24.5779 63.7216 15.2108C46.2861 5.23324 32.1741 13.3095 32.1741 33.4391C32.1741 34.1194 32.1741 34.8172 32.1741 35.5149C19.4542 29.6016 9.55322 36.265 9.55322 51.3709C9.55322 67.4537 20.8289 87.0077 34.7146 94.9793L139.641 155.769C150.081 161.805 158.538 156.921 158.538 144.832C158.538 132.744 150.081 118.074 139.641 112.039Z" fill="#D4ECFF"/>
<path d="M32.226 35.5148C32.226 34.8171 32.226 34.1193 32.226 33.439V33.3518C25.2658 30.6132 19.1581 31.8168 15.3647 36.2125C19.4365 32.8111 25.4224 32.3401 32.226 35.5148Z" fill="white"/>
<path d="M141.189 110.539C139.202 109.352 137.013 108.542 134.734 108.149C131.723 92.2929 120.726 75.4601 107.606 67.8722C104.232 65.802 100.439 64.5146 96.5044 64.1044C94.7643 44.9168 81.3832 23.0777 65.1831 13.7106C54.3425 7.43098 44.7721 8.25082 39.082 14.6176C44.8591 9.66373 53.6986 9.38464 63.5996 15.2107C79.7823 24.5778 93.1808 46.3994 94.9209 65.6046C98.8968 65.9998 102.733 67.2876 106.144 69.3723C119.247 76.9602 130.262 93.793 133.255 109.649C135.535 110.039 137.724 110.85 139.71 112.039C150.151 118.074 158.608 132.761 158.608 144.832C158.791 148.44 157.728 152.001 155.597 154.915C158.346 152.734 160.087 148.774 160.087 143.332C160.087 131.261 151.612 116.574 141.189 110.539Z" fill="white"/>
<path d="M29.9988 40.3118L37.8987 43.9749L37.4985 35.2532C37.4985 34.6485 37.4985 34.067 37.4985 33.5088C37.4985 25.7466 39.8476 20.1124 44.0934 17.6528C48.3391 15.1933 54.3772 15.9085 61.0939 19.8681C75.5364 28.2235 88.1346 48.5625 89.7702 66.1803L90.1878 70.6109L94.6076 70.9597C97.7572 71.3064 100.789 72.3553 103.482 74.0298C114.845 80.5885 125.285 96.0258 128.017 110.626L128.713 114.289L132.367 114.865C134.01 115.153 135.585 115.745 137.013 116.609C145.818 121.72 153.265 134.645 153.265 144.78C153.265 148.6 152.204 151.408 150.359 152.473C148.515 153.537 145.574 153.048 142.286 151.147L37.3593 90.4614C25.1788 83.4841 14.8428 65.5 14.8428 51.3708C14.8428 45.8239 16.461 41.6026 19.3148 39.771C20.5698 39.0018 22.0205 38.614 23.4909 38.6546C25.7542 38.7288 27.9745 39.2942 29.9988 40.3118Z" fill="url(#paint5_linear)"/>
<path d="M82.375 106.23L85.1417 104.835L82.4272 102.759L82.375 106.23Z" fill="#5793CE"/>
<path d="M74.0576 68.7444L76.7547 67.3838L76.7895 68.7967L74.0576 68.7444Z" fill="#5793CE"/>
<path d="M90.2748 97.4735L93.0764 96.0606L87.6821 90.9148L90.2748 97.4735Z" fill="#5793CE"/>
<path d="M84.3413 104.748L71.2212 97.0027C70.864 96.7555 70.5694 96.4281 70.3609 96.0464C70.1525 95.6648 70.0359 95.2396 70.0205 94.8048V79.5942L85.5245 88.752V103.963C85.5419 104.782 85.0025 105.149 84.3413 104.748Z" fill="#5793CE"/>
<path d="M76.7198 67.4013L62.6427 76.5241C62.0336 76.9253 62.5209 78.3557 63.4257 78.8964L77.8857 87.4437L92.2239 95.9386C93.1287 96.4793 93.6333 95.6072 93.0243 94.5082L79.0341 68.7618C78.4251 67.6455 77.3289 67.0001 76.7198 67.4013Z" fill="#5793CE"/>
<path d="M81.5221 106.16L68.4194 98.433C68.0619 98.1821 67.7673 97.8514 67.559 97.467C67.3506 97.0826 67.2342 96.6549 67.2188 96.2177V81.0071L82.7402 90.1648V105.375C82.7228 106.213 82.1834 106.562 81.5221 106.16Z" fill="#D4ECFF"/>
<path d="M73.9183 68.814L59.7541 77.9543C59.1625 78.3381 59.6323 79.7859 60.5545 80.3266L75.0145 88.8564L89.4571 97.3862C90.3793 97.927 90.8666 97.0548 90.2749 95.9733L76.2152 70.1746C75.6061 69.0757 74.5273 68.4303 73.9183 68.814Z" fill="#D4ECFF"/>
<path d="M62.2771 131.785C62.2771 132.639 61.6854 132.988 60.9546 132.552C60.5643 132.299 60.2393 131.957 60.0064 131.554C59.7735 131.15 59.6393 130.698 59.6147 130.232C59.6147 129.377 60.2064 129.029 60.9546 129.447C61.3421 129.706 61.6636 130.052 61.8933 130.458C62.123 130.864 62.2544 131.319 62.2771 131.785Z" fill="#D4ECFF"/>
<path d="M83.5235 143.978C83.5235 144.832 82.9144 145.181 82.1836 144.745C81.7923 144.493 81.4666 144.151 81.2335 143.748C81.0005 143.344 80.8669 142.891 80.8438 142.425C80.8438 141.57 81.4354 141.222 82.1836 141.658C82.573 141.912 82.8972 142.254 83.13 142.657C83.3628 143.06 83.4976 143.513 83.5235 143.978Z" fill="#D4ECFF"/>
</g>

</svg>
