<svg width="252" height="332" viewBox="0 0 252 332" fill="none" xmlns="http://www.w3.org/2000/svg">
    <defs>
        <filter id="filter0_f" x="0.128418" y="124.148" width="251.872" height="206.974"
            filterUnits="userSpaceOnUse" color-interpolation-filters="sRGB">
            <feFlood flood-opacity="0" result="BackgroundImageFix" />
            <feBlend mode="normal" in="SourceGraphic" in2="BackgroundImageFix" result="shape" />
            <feGaussianBlur stdDeviation="25" result="effect1_foregroundBlur" />
        </filter>
        <linearGradient id="paint0_linear" x1="79.5293" y1="187.894" x2="180.896" y2="233.441"
            gradientUnits="userSpaceOnUse">
            <stop stop-color="#A5FFFB" />
            <stop offset="1" stop-color="#42E8E0" />
        </linearGradient>
        <linearGradient id="paint1_linear" x1="217.331" y1="151.042" x2="112.113" y2="256.003"
            gradientUnits="userSpaceOnUse">
            <stop stop-color="#42E8E0" />
            <stop offset="0.04" stop-color="#3ACBC9" />
            <stop offset="0.11" stop-color="#2D9CA4" />
            <stop offset="0.19" stop-color="#217283" />
            <stop offset="0.27" stop-color="#174F67" />
            <stop offset="0.36" stop-color="#0F3250" />
            <stop offset="0.45" stop-color="#091C3E" />
            <stop offset="0.55" stop-color="#040C32" />
            <stop offset="0.66" stop-color="#02032A" />
            <stop offset="0.82" stop-color="#010028" />
        </linearGradient>
        <linearGradient id="paint2_linear" x1="60.0464" y1="211.972" x2="215.279" y2="236.502"
            gradientUnits="userSpaceOnUse">
            <stop stop-color="#C3ECFF" />
            <stop offset="0.3" stop-color="#ADEBFE" />
            <stop offset="0.93" stop-color="#75E8FC" />
            <stop offset="1" stop-color="#6EE8FC" />
        </linearGradient>
        <linearGradient id="paint3_linear" x1="175.465" y1="256.941" x2="131.234" y2="214.888"
            gradientUnits="userSpaceOnUse">
            <stop stop-color="#1F6C7E" />
            <stop offset="0.04" stop-color="#216F81" />
            <stop offset="0.08" stop-color="#2A7B8F" />
            <stop offset="0.19" stop-color="#3F98B1" />
            <stop offset="0.31" stop-color="#50B0CC" />
            <stop offset="0.44" stop-color="#5DC2E1" />
            <stop offset="0.58" stop-color="#67CFF0" />
            <stop offset="0.75" stop-color="#6CD7F9" />
            <stop offset="1" stop-color="#6ED9FC" />
        </linearGradient>
        <linearGradient id="paint4_linear" x1="55" y1="243.98" x2="128.483" y2="243.98"
            gradientUnits="userSpaceOnUse">
            <stop stop-color="#3780B3" />
            <stop offset="0.09" stop-color="#336AA6" />
            <stop offset="0.23" stop-color="#2E4E95" />
            <stop offset="0.38" stop-color="#293887" />
            <stop offset="0.55" stop-color="#26287D" />
            <stop offset="0.74" stop-color="#251F78" />
            <stop offset="1" stop-color="#241C76" />
        </linearGradient>
        <linearGradient id="paint5_linear" x1="112.074" y1="18.3331" x2="212.492" y2="150.509"
            gradientUnits="userSpaceOnUse">
            <stop stop-color="#227786" />
            <stop offset="0.31" stop-color="#235F82" />
            <stop offset="0.95" stop-color="#242177" />
            <stop offset="1" stop-color="#241C76" />
        </linearGradient>
        <linearGradient id="paint6_linear" x1="1250.59" y1="6652.27" x2="12262.1" y2="6652.27"
            gradientUnits="userSpaceOnUse">
            <stop stop-color="#3780B3" />
            <stop offset="0.09" stop-color="#336AA6" />
            <stop offset="0.23" stop-color="#2E4E95" />
            <stop offset="0.38" stop-color="#293887" />
            <stop offset="0.55" stop-color="#26287D" />
            <stop offset="0.74" stop-color="#251F78" />
            <stop offset="1" stop-color="#241C76" />
        </linearGradient>
        <clipPath id="clip0">
            <rect width="177" height="271" fill="white" transform="trans(55)" />
        </clipPath>
    </defs>

    <g opacity="0.3" filter="url(#filter0_f)">
        <path
            d="M138.844 180.803L55.4481 227.458L53.4088 229.402L109.862 274.184L198.835 224.468L138.844 180.803Z"
            fill="url(#paint0_linear)" />
    </g>
    <g clip-path="url(#clip0)">
        <g style="mix-blend-mode:lighten">
            <path style="mix-blend-mode:lighten"
                d="M185.505 221.321L176.457 216.088L209.779 196.901C210.127 196.786 210.43 196.564 210.645 196.267C210.86 195.969 210.976 195.611 210.976 195.244C210.976 194.876 210.86 194.518 210.645 194.221C210.43 193.923 210.127 193.701 209.779 193.587L175.691 173.806C174.806 173.358 173.829 173.125 172.837 173.125C171.846 173.125 170.869 173.358 169.984 173.806L136.661 193.098L127.63 187.865L160.953 168.573C164.638 166.707 168.709 165.735 172.837 165.735C176.966 165.735 181.037 166.707 184.722 168.573L218.775 188.284C225.318 192.069 225.318 198.244 218.775 202.047L185.505 221.321Z"
                fill="url(#paint1_linear)" />
        </g>
        <path
            d="M200.035 223.624C200.035 218.792 197.094 213.158 193.475 211.065L133.095 176.178C132.484 175.742 131.768 175.478 131.022 175.414C130.275 175.349 129.525 175.487 128.849 175.812L56.7402 217.746L126.465 270.372L197.477 229.049C197.697 228.948 197.907 228.825 198.104 228.683C198.789 228.043 199.319 227.254 199.654 226.378C199.989 225.501 200.119 224.559 200.035 223.624Z"
            fill="url(#paint2_linear)" />
        <path
            d="M126.465 270.372L197.477 229.049C197.697 228.948 197.907 228.825 198.103 228.683C198.794 228.039 199.327 227.245 199.662 226.362C199.997 225.478 200.124 224.53 200.035 223.589C199.987 221.162 199.392 218.777 198.295 216.612L117.312 263.482L126.465 270.372Z"
            fill="url(#paint3_linear)" />
        <path
            d="M121.923 270.215L61.5601 235.328C57.9407 233.183 55 227.549 55 222.699C55 217.868 57.9407 215.722 61.5601 217.728L121.923 252.615C125.56 254.725 128.483 260.342 128.483 265.191C128.483 270.076 125.56 272.308 121.923 270.215Z"
            fill="url(#paint4_linear)" />
        <path
            d="M122.654 252.336L62.2911 217.449C61.6628 217.004 60.9247 216.742 60.1575 216.689C59.3902 216.637 58.6234 216.797 57.9409 217.152C58.5548 217.002 59.1932 216.98 59.8159 217.088C60.4387 217.196 61.0325 217.432 61.5603 217.78L121.923 252.667C125.56 254.778 128.483 260.395 128.483 265.244C128.59 266.232 128.442 267.232 128.056 268.148C127.669 269.063 127.056 269.865 126.273 270.477C128.014 269.936 129.214 267.93 129.214 264.877C129.214 260.063 126.343 254.446 122.654 252.336Z"
            fill="white" />
        <path
            d="M112.892 258.423L105.636 254.237C105.237 253.95 104.912 253.573 104.685 253.137C104.458 252.701 104.337 252.217 104.331 251.725C104.331 250.766 104.905 250.312 105.636 250.731L112.892 254.935C113.287 255.221 113.611 255.595 113.838 256.028C114.064 256.461 114.187 256.94 114.197 257.429C114.162 258.406 113.606 258.842 112.892 258.423Z"
            fill="#FF2C9C" />
        <path
            d="M122.167 209.32C122.589 209.182 122.956 208.914 123.217 208.553C123.477 208.193 123.618 207.759 123.618 207.314C123.618 206.87 123.477 206.436 123.217 206.076C122.956 205.715 122.589 205.447 122.167 205.308C121.089 204.759 119.896 204.472 118.687 204.472C117.477 204.472 116.285 204.759 115.207 205.308C114.785 205.447 114.417 205.715 114.157 206.076C113.896 206.436 113.756 206.87 113.756 207.314C113.756 207.759 113.896 208.193 114.157 208.553C114.417 208.914 114.785 209.182 115.207 209.32C116.285 209.87 117.477 210.157 118.687 210.157C119.896 210.157 121.089 209.87 122.167 209.32Z"
            fill="#241C76" />
        <path
            d="M132.694 215.321C133.108 215.174 133.466 214.902 133.719 214.543C133.972 214.184 134.108 213.755 134.108 213.315C134.108 212.875 133.972 212.446 133.719 212.087C133.466 211.727 133.108 211.456 132.694 211.309C131.615 210.762 130.423 210.477 129.214 210.477C128.005 210.477 126.813 210.762 125.734 211.309C125.312 211.447 124.945 211.716 124.684 212.076C124.423 212.436 124.283 212.87 124.283 213.315C124.283 213.76 124.423 214.193 124.684 214.554C124.945 214.914 125.312 215.182 125.734 215.321C126.812 215.871 128.004 216.157 129.214 216.157C130.424 216.157 131.616 215.871 132.694 215.321Z"
            fill="white" />
        <path
            d="M143.221 221.269C143.635 221.122 143.993 220.85 144.246 220.491C144.5 220.132 144.636 219.703 144.636 219.263C144.636 218.823 144.5 218.394 144.246 218.035C143.993 217.676 143.635 217.404 143.221 217.257C142.145 216.703 140.952 216.414 139.741 216.414C138.531 216.414 137.338 216.703 136.261 217.257C135.846 217.399 135.485 217.669 135.229 218.027C134.974 218.385 134.836 218.814 134.836 219.254C134.836 219.695 134.974 220.124 135.229 220.482C135.485 220.84 135.846 221.109 136.261 221.252C137.338 221.804 138.53 222.094 139.739 222.097C140.949 222.1 142.142 221.816 143.221 221.269Z"
            fill="white" />
        <path
            d="M118.6 207.995C118.37 207.99 118.151 207.897 117.989 207.734C117.827 207.572 117.734 207.353 117.729 207.123V119.522C117.729 119.291 117.821 119.069 117.984 118.905C118.147 118.742 118.369 118.65 118.6 118.65C118.83 118.65 119.052 118.742 119.215 118.905C119.378 119.069 119.47 119.291 119.47 119.522V207.123C119.47 207.354 119.378 207.576 119.215 207.739C119.052 207.903 118.83 207.995 118.6 207.995Z"
            fill="#396CAA" />
        <path d="M122.898 116.4H114.302V135.012H122.898V116.4Z" fill="#5793CE" />
        <path
            d="M121.645 136.756C120.705 137.237 119.664 137.488 118.609 137.488C117.553 137.488 116.512 137.237 115.572 136.756C115.212 136.629 114.9 136.393 114.679 136.081C114.458 135.768 114.339 135.395 114.339 135.012C114.339 134.629 114.458 134.255 114.679 133.943C114.9 133.63 115.212 133.394 115.572 133.267C116.512 132.787 117.553 132.536 118.609 132.536C119.664 132.536 120.705 132.787 121.645 133.267C122.005 133.394 122.317 133.63 122.538 133.943C122.759 134.255 122.878 134.629 122.878 135.012C122.878 135.395 122.759 135.768 122.538 136.081C122.317 136.393 122.005 136.629 121.645 136.756Z"
            fill="#5793CE" />
        <path d="M125.577 90.4614H111.639V119.644H125.577V90.4614Z" fill="#5793CE" />
        <path
            d="M114.302 119.452V125.749C115.678 126.332 117.158 126.632 118.652 126.632C120.146 126.632 121.625 126.332 123.002 125.749V119.452C121.625 118.871 120.146 118.571 118.652 118.571C117.158 118.571 115.679 118.871 114.302 119.452Z"
            fill="#396CAA" />
        <path
            d="M123.541 122.487C122.014 123.27 120.323 123.678 118.608 123.678C116.893 123.678 115.202 123.27 113.675 122.487C110.961 120.917 110.961 118.371 113.675 116.783C115.205 116.009 116.894 115.606 118.608 115.606C120.322 115.606 122.012 116.009 123.541 116.783C126.343 118.371 126.343 120.917 123.541 122.487Z"
            fill="#5793CE" />
        <path
            d="M139.724 219.787C139.493 219.787 139.272 219.695 139.109 219.531C138.946 219.368 138.854 219.146 138.854 218.914V131.314C138.854 131.083 138.946 130.861 139.109 130.697C139.272 130.534 139.493 130.442 139.724 130.442C139.955 130.442 140.176 130.534 140.339 130.697C140.502 130.861 140.594 131.083 140.594 131.314V218.914C140.594 219.146 140.502 219.368 140.339 219.531C140.176 219.695 139.955 219.787 139.724 219.787Z"
            fill="#396CAA" />
        <path d="M144.022 128.191H135.426V146.803H144.022V128.191Z" fill="#5793CE" />
        <path
            d="M142.769 148.565C141.826 149.046 140.782 149.297 139.724 149.297C138.666 149.297 137.622 149.046 136.679 148.565C136.326 148.431 136.023 148.192 135.808 147.88C135.594 147.569 135.479 147.199 135.479 146.821C135.479 146.442 135.594 146.073 135.808 145.761C136.023 145.45 136.326 145.211 136.679 145.076C137.622 144.595 138.666 144.345 139.724 144.345C140.782 144.345 141.826 144.595 142.769 145.076C143.122 145.211 143.426 145.45 143.64 145.761C143.854 146.073 143.969 146.442 143.969 146.821C143.969 147.199 143.854 147.569 143.64 147.88C143.426 148.192 143.122 148.431 142.769 148.565Z"
            fill="#5793CE" />
        <path d="M146.685 102.253H132.747V131.436H146.685V102.253Z" fill="#5793CE" />
        <path
            d="M135.426 131.261V137.558C136.788 138.128 138.249 138.422 139.724 138.422C141.2 138.422 142.661 138.128 144.022 137.558V131.261C142.663 130.683 141.201 130.385 139.724 130.385C138.247 130.385 136.786 130.683 135.426 131.261Z"
            fill="#396CAA" />
        <path
            d="M144.648 134.314C143.122 135.088 141.435 135.491 139.724 135.491C138.013 135.491 136.326 135.088 134.799 134.314C132.068 132.744 132.068 130.18 134.799 128.61C136.326 127.836 138.013 127.433 139.724 127.433C141.435 127.433 143.122 127.836 144.648 128.61C147.38 130.163 147.38 132.727 144.648 134.314Z"
            fill="#5793CE" />
        <path d="M72.1919 34.8869L101.982 17.6877L100.903 34.8869L83.7634 40.1199L72.1919 34.8869Z"
            fill="#5793CE" />
        <path d="M207.917 157.147L226.606 146.106L208.805 123.831L204.124 131.506L207.917 157.147Z"
            fill="#241C76" />
        <path
            d="M213.12 101.172C211.133 99.9853 208.944 99.1753 206.665 98.7819C203.654 82.9259 192.744 66.0931 179.537 58.5052C176.163 56.435 172.37 55.1476 168.435 54.7374C166.695 35.5497 153.331 13.7107 137.114 4.34357C128.692 -0.592896 121.123 -1.16853 115.363 1.83173L115.102 1.98872L114.667 2.23293L97.0749 12.6989L102.921 17.2691C97.7013 19.5716 94.3604 25.4675 94.3604 34.1892C94.3604 50.2719 105.619 69.8259 119.504 77.7976L213.12 144.798C223.561 150.833 232 145.949 232 133.861C232 121.772 223.543 107.172 213.12 101.172Z"
            fill="url(#paint5_linear)" />
        <path
            d="M95.2305 27.1072L135.6 3.48888C127.77 -0.610308 120.688 -0.941732 115.363 1.86665L115.102 2.02364L114.667 2.26785L97.0749 12.7339L102.922 17.2691C100.971 18.2056 99.2626 19.5804 97.9286 21.2867C96.5947 22.9931 95.6713 24.9848 95.2305 27.1072Z"
            fill="#5793CE" />
        <path
            d="M169.845 96.6712L199.252 79.35C194.572 70.799 187.784 63.5926 179.537 58.4179C178.51 57.8249 177.518 57.319 176.527 56.8655L139.045 78.879L169.845 96.6712Z"
            fill="#5793CE" />
        <path
            d="M105.462 14.5652L118.599 22.1705L142.543 7.9716C140.829 6.63009 139.027 5.40626 137.149 4.3085C134.518 2.76888 131.69 1.59523 128.744 0.819824L105.462 14.5652Z"
            fill="#D4ECFF" />
        <path
            d="M195.946 74.239L172.438 88.1937L180.616 97.334L201.966 84.6876C200.266 81.0363 198.251 77.5403 195.946 74.239Z"
            fill="#D4ECFF" />
        <path
            d="M194.641 112.039C192.655 110.85 190.466 110.039 188.185 109.649C185.192 93.7932 174.178 76.9603 161.145 69.3725C157.769 67.3049 153.977 66.0177 150.043 65.6047C148.303 46.417 134.922 24.5779 118.722 15.2108C101.286 5.23324 87.1741 13.3095 87.1741 33.4391C87.1741 34.1194 87.1741 34.8172 87.1741 35.5149C74.4542 29.6016 64.5532 36.265 64.5532 51.3709C64.5532 67.4537 75.8289 87.0077 89.7146 94.9793L194.641 155.769C205.081 161.805 213.538 156.921 213.538 144.832C213.538 132.744 205.081 118.074 194.641 112.039Z"
            fill="#D4ECFF" />
        <path
            d="M87.226 35.5148C87.226 34.8171 87.226 34.1193 87.226 33.439V33.3518C80.2658 30.6132 74.1581 31.8168 70.3647 36.2125C74.4365 32.8111 80.4224 32.3401 87.226 35.5148Z"
            fill="white" />
        <path
            d="M196.189 110.539C194.202 109.352 192.013 108.542 189.734 108.149C186.723 92.2929 175.726 75.4601 162.606 67.8722C159.232 65.802 155.439 64.5146 151.504 64.1044C149.764 44.9168 136.383 23.0777 120.183 13.7106C109.342 7.43098 99.7721 8.25082 94.082 14.6176C99.8591 9.66373 108.699 9.38464 118.6 15.2107C134.782 24.5778 148.181 46.3994 149.921 65.6046C153.897 65.9998 157.733 67.2876 161.144 69.3723C174.247 76.9602 185.262 93.793 188.255 109.649C190.535 110.039 192.724 110.85 194.71 112.039C205.151 118.074 213.608 132.761 213.608 144.832C213.791 148.44 212.728 152.001 210.597 154.915C213.346 152.734 215.087 148.774 215.087 143.332C215.087 131.261 206.612 116.574 196.189 110.539Z"
            fill="white" />
        <path
            d="M84.9988 40.3118L92.8987 43.9749L92.4985 35.2532C92.4985 34.6485 92.4985 34.067 92.4985 33.5088C92.4985 25.7466 94.8476 20.1124 99.0934 17.6528C103.339 15.1933 109.377 15.9085 116.094 19.8681C130.536 28.2235 143.135 48.5625 144.77 66.1803L145.188 70.6109L149.608 70.9597C152.757 71.3064 155.789 72.3553 158.482 74.0298C169.845 80.5885 180.285 96.0258 183.017 110.626L183.713 114.289L187.367 114.865C189.01 115.153 190.585 115.745 192.013 116.609C200.818 121.72 208.265 134.645 208.265 144.78C208.265 148.6 207.204 151.408 205.359 152.473C203.515 153.537 200.574 153.048 197.286 151.147L92.3593 90.4614C80.1788 83.4841 69.8428 65.5 69.8428 51.3708C69.8428 45.8239 71.461 41.6026 74.3148 39.771C75.5698 39.0018 77.0205 38.614 78.4909 38.6546C80.7542 38.7288 82.9745 39.2942 84.9988 40.3118Z"
            fill="url(#paint6_linear)" />
        <path d="M137.375 106.23L140.142 104.835L137.427 102.759L137.375 106.23Z" fill="#5793CE" />
        <path d="M129.058 68.7444L131.755 67.3838L131.79 68.7967L129.058 68.7444Z" fill="#5793CE" />
        <path d="M145.275 97.4735L148.076 96.0606L142.682 90.9148L145.275 97.4735Z"
            fill="#5793CE" />
        <path
            d="M139.341 104.748L126.221 97.0027C125.864 96.7555 125.569 96.4281 125.361 96.0464C125.152 95.6648 125.036 95.2396 125.021 94.8048V79.5942L140.525 88.752V103.963C140.542 104.782 140.003 105.149 139.341 104.748Z"
            fill="#5793CE" />
        <path
            d="M131.72 67.4013L117.643 76.5241C117.034 76.9253 117.521 78.3557 118.426 78.8964L132.886 87.4437L147.224 95.9386C148.129 96.4793 148.633 95.6072 148.024 94.5082L134.034 68.7618C133.425 67.6455 132.329 67.0001 131.72 67.4013Z"
            fill="#5793CE" />
        <path
            d="M136.522 106.16L123.419 98.433C123.062 98.1821 122.767 97.8514 122.559 97.467C122.351 97.0826 122.234 96.6549 122.219 96.2177V81.0071L137.74 90.1648V105.375C137.723 106.213 137.183 106.562 136.522 106.16Z"
            fill="#D4ECFF" />
        <path
            d="M128.918 68.814L114.754 77.9543C114.162 78.3381 114.632 79.7859 115.555 80.3266L130.015 88.8564L144.457 97.3862C145.379 97.927 145.867 97.0548 145.275 95.9733L131.215 70.1746C130.606 69.0757 129.527 68.4303 128.918 68.814Z"
            fill="#D4ECFF" />
        <path
            d="M117.277 131.785C117.277 132.639 116.685 132.988 115.955 132.552C115.564 132.299 115.239 131.957 115.006 131.554C114.773 131.15 114.639 130.698 114.615 130.232C114.615 129.377 115.206 129.029 115.955 129.447C116.342 129.706 116.664 130.052 116.893 130.458C117.123 130.864 117.254 131.319 117.277 131.785Z"
            fill="#D4ECFF" />
        <path
            d="M138.523 143.978C138.523 144.832 137.914 145.181 137.184 144.745C136.792 144.493 136.467 144.151 136.234 143.748C136.001 143.344 135.867 142.891 135.844 142.425C135.844 141.57 136.435 141.222 137.184 141.658C137.573 141.912 137.897 142.254 138.13 142.657C138.363 143.06 138.498 143.513 138.523 143.978Z"
            fill="#D4ECFF" />
    </g>

</svg>
