<svg width="207" height="140" viewBox="0 0 207 140" fill="none" xmlns="http://www.w3.org/2000/svg">
    <defs>
        <filter id="filter0_f" x="0.182129" y="0.117676" width="139.408" height="139.353" filterUnits="userSpaceOnUse" color-interpolation-filters="sRGB">
            <feFlood flood-opacity="0" result="BackgroundImageFix"/>
            <feBlend mode="normal" in="SourceGraphic" in2="BackgroundImageFix" result="shape"/>
            <feGaussianBlur stdDeviation="25" result="effect1_foregroundBlur"/>
        </filter>
        <filter id="filter1_bd" x="27.6904" y="20.0967" width="85.1664" height="83.7721" filterUnits="userSpaceOnUse" color-interpolation-filters="sRGB">
            <feFlood flood-opacity="0" result="BackgroundImageFix"/>
            <feGaussianBlur in="BackgroundImage" stdDeviation="12.5"/>
            <feComposite in2="SourceAlpha" operator="in" result="effect1_backgroundBlur"/>
            <feColorMatrix in="SourceAlpha" type="matrix" values="0 0 0 0 0 0 0 0 0 0 0 0 0 0 0 0 0 0 127 0"/>
            <feOffset dx="5" dy="5"/>
            <feGaussianBlur stdDeviation="5"/>
            <feColorMatrix type="matrix" values="0 0 0 0 0 0 0 0 0 0 0 0 0 0 0 0 0 0 0.2 0"/>
            <feBlend mode="normal" in2="effect1_backgroundBlur" result="effect2_dropShadow"/>
            <feBlend mode="normal" in="SourceGraphic" in2="effect2_dropShadow" result="shape"/>
        </filter>
        <linearGradient id="paint0_linear" x1="54.1796" y1="57.1148" x2="105.413" y2="98.5893" gradientUnits="userSpaceOnUse">
            <stop stop-color="#42E8E0"/>
            <stop offset="1" stop-color="#3AFF04"/>
        </linearGradient>
        <linearGradient id="paint1_linear" x1="50.3318" y1="45.8841" x2="115.381" y2="98.5433" gradientUnits="userSpaceOnUse">
            <stop stop-color="#42E8E0"/>
            <stop offset="1" stop-color="#3AFF04"/>
        </linearGradient>
        <linearGradient id="paint2_linear" x1="53.4665" y1="47.658" x2="85.4396" y2="80.4971" gradientUnits="userSpaceOnUse">
            <stop stop-color="white"/>
            <stop offset="1" stop-color="white" stop-opacity="0.4"/>
        </linearGradient>
        <linearGradient id="paint3_linear" x1="53.4665" y1="46.0184" x2="87.9052" y2="77.221" gradientUnits="userSpaceOnUse">
            <stop stop-color="white"/>
            <stop offset="1" stop-color="white" stop-opacity="0.4"/>
        </linearGradient>
    </defs>

    <g filter="url(#filter0_f)">
<path d="M82.5774 50.1177H57.1951C53.322 50.1177 50.1821 53.2531 50.1821 57.1208V82.4675C50.1821 86.3352 53.322 89.4706 57.1951 89.4706H82.5774C86.4506 89.4706 89.5904 86.3352 89.5904 82.4675V57.1208C89.5904 53.2531 86.4506 50.1177 82.5774 50.1177Z" fill="url(#paint0_linear)" fill-opacity="0.5"/>
</g>
<path d="M86.3879 37H54.1606C49.2429 37 45.2563 40.981 45.2563 45.8917V78.0738C45.2563 82.9845 49.2429 86.9655 54.1606 86.9655H86.3879C91.3056 86.9655 95.2922 82.9845 95.2922 78.0738V45.8917C95.2922 40.981 91.3056 37 86.3879 37Z" fill="url(#paint1_linear)"/>
<g filter="url(#filter1_bd)">
<path d="M80.6193 45.0967L70.2736 55.4268L59.928 45.0967H52.6904V48.0908L70.2736 65.6483L87.8569 48.0889V45.0967H80.6193Z" fill="url(#paint2_linear)"/>
<path d="M70.2736 68.6473L59.929 58.339L52.6904 51.1269V61.336V78.865H59.929V68.5539L70.2736 78.8688L80.6193 68.4833V78.865H87.8569V61.2169V50.9553L80.6193 58.238L70.2736 68.6473Z" fill="url(#paint3_linear)"/>
</g>
<path d="M107.653 48.9993H112.709L119.407 60.4746H119.735L126.431 48.9993H131.487V72.4745H126.431V62.081L126.759 58.1471H126.431L121.076 67.4893H118.058L112.702 58.1471H112.374L112.702 62.081V72.4745H107.653V48.9993Z" fill="white"/>
<path d="M138.841 71.7861L132.011 56.4094H137.692L141.402 65.2615H141.73L145.277 56.4094H150.826L140.745 79.5563H135.36L138.841 71.7861Z" fill="white"/>
<path d="M149.708 48.9993H155.224L159.689 61.9172L160.576 65.1957H160.904L161.853 61.9172L166.516 48.9993H172.032L163.432 72.4745H158.048L149.708 48.9993Z" fill="white"/>
<path d="M173.151 72.4745V48.9993H181.557C182.692 48.9879 183.82 49.1765 184.89 49.5564C185.863 49.9015 186.76 50.4301 187.534 51.1134C188.28 51.7829 188.873 52.6048 189.274 53.5234C189.689 54.4631 189.897 55.5011 189.898 56.6375C189.899 57.7739 189.691 58.8119 189.274 59.7515C188.874 60.67 188.28 61.4918 187.534 62.1609C186.761 62.8447 185.863 63.3733 184.89 63.7179C183.82 64.0981 182.692 64.2867 181.557 64.275H178.274V72.4745H173.151ZM181.72 59.4252C182.792 59.4252 183.591 59.163 184.117 58.6386C184.643 58.1142 184.905 57.4476 184.905 56.6388C184.905 55.8305 184.642 55.1637 184.117 54.6384C183.592 54.1131 182.793 53.8509 181.72 53.8518H178.273V59.4252H181.72Z" fill="white"/>
<path d="M198.858 72.9992C196.67 72.9992 194.782 72.4145 193.194 71.2451C191.607 70.0758 190.485 68.3983 189.829 66.2126L194.656 64.311C194.94 65.4252 195.41 66.3432 196.067 67.0649C196.724 67.7865 197.655 68.1476 198.858 68.148C199.24 68.1497 199.62 68.1056 199.991 68.0167C200.33 67.9387 200.651 67.8 200.94 67.6071C201.213 67.423 201.442 67.1827 201.613 66.9024C201.792 66.6058 201.883 66.2648 201.876 65.9188C201.885 65.5494 201.806 65.1832 201.646 64.85C201.486 64.5167 201.25 64.2258 200.957 64.0009C200.552 63.6787 200.113 63.4032 199.647 63.1797C198.973 62.8532 198.283 62.563 197.578 62.3105L196.133 61.7893C195.476 61.5503 194.844 61.2486 194.245 60.8882C193.599 60.5055 193.008 60.0366 192.489 59.4943C191.959 58.9421 191.526 58.3048 191.208 57.609C190.872 56.8621 190.704 56.0508 190.716 55.2321C190.711 54.3173 190.901 53.4119 191.274 52.5764C191.639 51.7559 192.176 51.0235 192.85 50.429C193.528 49.8279 194.349 49.3524 195.312 49.0027C196.276 48.6529 197.338 48.478 198.498 48.478C199.724 48.478 200.775 48.636 201.65 48.9519C202.525 49.2678 203.27 49.6722 203.883 50.165C204.465 50.6239 204.959 51.1842 205.341 51.8189C205.678 52.3801 205.959 52.9733 206.179 53.5898L201.748 55.4582C201.507 54.7592 201.123 54.1964 200.596 53.7699C200.069 53.3434 199.391 53.1304 198.562 53.1308C197.686 53.1308 196.991 53.3114 196.478 53.6724C195.964 54.0335 195.706 54.4979 195.705 55.0656C195.705 55.6559 195.968 56.1806 196.494 56.6396C197.019 57.0985 197.95 57.5575 199.284 58.0165L200.729 58.508C202.721 59.185 204.264 60.0921 205.358 61.2294C206.453 62.3667 207 63.8969 207 65.8199C207 67.0439 206.754 68.1045 206.261 69.0017C205.792 69.8713 205.143 70.6314 204.357 71.2316C203.568 71.8276 202.679 72.2773 201.731 72.5591C200.8 72.8466 199.832 72.9949 198.858 72.9992Z" fill="white"/>

</svg>
