<svg width="123" height="42" viewBox="0 0 123 42" fill="none" xmlns="http://www.w3.org/2000/svg">
    <defs>
        <filter id="filter0_f" x="5" y="9" width="32" height="32" filterUnits="userSpaceOnUse" color-interpolation-filters="sRGB">
            <feFlood flood-opacity="0" result="BackgroundImageFix"/>
            <feBlend mode="normal" in="SourceGraphic" in2="BackgroundImageFix" result="shape"/>
            <feGaussianBlur stdDeviation="2" result="effect1_foregroundBlur"/>
        </filter>
        <filter id="filter1_bd" x="-14.4727" y="-15.0621" width="71.4167" height="70.5964" filterUnits="userSpaceOnUse" color-interpolation-filters="sRGB">
            <feFlood flood-opacity="0" result="BackgroundImageFix"/>
            <feGaussianBlur in="BackgroundImage" stdDeviation="12.5"/>
            <feComposite in2="SourceAlpha" operator="in" result="effect1_backgroundBlur"/>
            <feColorMatrix in="SourceAlpha" type="matrix" values="0 0 0 0 0 0 0 0 0 0 0 0 0 0 0 0 0 0 127 0"/>
            <feOffset dx="5" dy="5"/>
            <feGaussianBlur stdDeviation="5"/>
            <feColorMatrix type="matrix" values="0 0 0 0 0 0 0 0 0 0 0 0 0 0 0 0 0 0 0.2 0"/>
            <feBlend mode="normal" in2="effect1_backgroundBlur" result="effect2_dropShadow"/>
            <feBlend mode="normal" in="SourceGraphic" in2="effect2_dropShadow" result="shape"/>
        </filter>
        <linearGradient id="paint0_linear" x1="11.4345" y1="17.2673" x2="42.6706" y2="42.5182" gradientUnits="userSpaceOnUse">
            <stop stop-color="#42E8E0"/>
            <stop offset="1" stop-color="#3AFF04"/>
        </linearGradient>
        <linearGradient id="paint1_linear" x1="9.091" y1="10.4181" x2="48.7508" y2="42.4786" gradientUnits="userSpaceOnUse">
            <stop stop-color="#42E8E0"/>
            <stop offset="1" stop-color="#3AFF04"/>
        </linearGradient>
        <linearGradient id="paint2_linear" x1="11" y1="11.5" x2="30.5" y2="31.5" gradientUnits="userSpaceOnUse">
            <stop stop-color="white"/>
            <stop offset="1" stop-color="white" stop-opacity="0.4"/>
        </linearGradient>
        <linearGradient id="paint3_linear" x1="11" y1="10.5" x2="32" y2="29.5" gradientUnits="userSpaceOnUse">
            <stop stop-color="white"/>
            <stop offset="1" stop-color="white" stop-opacity="0.4"/>
        </linearGradient>
        <clipPath id="clip0">
            <rect width="123" height="42" fill="white"/>
        </clipPath>
    </defs>
    <g clip-path="url(#clip0)">
<g filter="url(#filter0_f)">
<path d="M28.729 13H13.271C10.9122 13 9 14.9122 9 17.271V32.729C9 35.0878 10.9122 37 13.271 37H28.729C31.0878 37 33 35.0878 33 32.729V17.271C33 14.9122 31.0878 13 28.729 13Z" fill="url(#paint0_linear)" fill-opacity="0.5"/>
</g>
<path d="M31.0495 5H11.4228C8.42785 5 6 7.42785 6 10.4228V30.0495C6 33.0444 8.42785 35.4722 11.4228 35.4722H31.0495C34.0444 35.4722 36.4722 33.0444 36.4722 30.0495V10.4228C36.4722 7.42785 34.0444 5 31.0495 5Z" fill="url(#paint1_linear)"/>
<g filter="url(#filter1_bd)">
<path d="M27.5363 9.93793L21.2357 16.2379L14.9351 9.93793H10.5273V11.7639L21.2357 22.4717L31.944 11.7628V9.93793H27.5363Z" fill="url(#paint2_linear)"/>
<path d="M21.2357 24.3006L14.9357 18.0139L10.5273 13.6155V19.8417V30.532H14.9357V24.2436L21.2357 30.5343L27.5363 24.2006V30.532H31.944V19.769V13.5108L27.5363 17.9523L21.2357 24.3006Z" fill="url(#paint3_linear)"/>
</g>
<path d="M44 12.3179H47.0791L51.1582 19.3163H51.3584L55.4362 12.3179H58.5153V26.6346H55.4362V20.296L55.636 17.8969H55.4362L52.1746 23.5943H50.3366L47.075 17.8969H46.8752L47.075 20.296V26.6346H44V12.3179Z" fill="white"/>
<path d="M62.9936 26.2148L58.8345 16.8371H62.2938L64.5534 22.2356H64.7532L66.9137 16.8371H70.2926L64.1534 30.9536H60.874L62.9936 26.2148Z" fill="white"/>
<path d="M69.6123 12.3179H72.9713L75.6908 20.1961L76.2304 22.1956H76.4307L77.0087 20.1961L79.8483 12.3179H83.2073L77.9702 26.6346H74.6909L69.6123 12.3179Z" fill="white"/>
<path d="M83.8887 26.6346V12.3179H89.0081C89.6994 12.311 90.3864 12.426 91.0377 12.6577C91.6303 12.8681 92.1769 13.1905 92.6479 13.6073C93.1024 14.0156 93.4638 14.5168 93.7077 15.077C93.9606 15.6501 94.0874 16.2831 94.0879 16.9762C94.0885 17.6692 93.9617 18.3023 93.7077 18.8753C93.4639 19.4355 93.1025 19.9366 92.6479 20.3447C92.1771 20.7617 91.6305 21.0841 91.0377 21.2943C90.3865 21.5262 89.6994 21.6412 89.0081 21.6341H87.0086V26.6346H83.8887ZM89.1072 18.6763C89.7603 18.6763 90.247 18.5164 90.5671 18.1966C90.8872 17.8768 91.0471 17.4702 91.0468 16.977C91.0468 16.4841 90.8869 16.0774 90.5671 15.757C90.2472 15.4366 89.7606 15.2767 89.1072 15.2773H87.0078V18.6763H89.1072Z" fill="white"/>
<path d="M99.5448 26.9546C98.2118 26.9546 97.062 26.598 96.0953 25.8849C95.1287 25.1717 94.4455 24.1487 94.0459 22.8157L96.9855 21.656C97.1583 22.3355 97.4448 22.8954 97.845 23.3355C98.2452 23.7756 98.8118 23.9958 99.5448 23.996C99.7771 23.9971 100.009 23.9702 100.235 23.916C100.441 23.8684 100.637 23.7838 100.813 23.6662C100.979 23.5539 101.118 23.4073 101.223 23.2364C101.331 23.0555 101.387 22.8476 101.383 22.6365C101.388 22.4112 101.34 22.1879 101.243 21.9847C101.145 21.7815 101.001 21.6041 100.823 21.4669C100.576 21.2704 100.309 21.1024 100.025 20.9661C99.6149 20.7669 99.1944 20.5899 98.7653 20.436L97.8851 20.1181C97.485 19.9723 97.1 19.7883 96.7353 19.5685C96.3417 19.3351 95.9818 19.0491 95.6656 18.7185C95.3429 18.3817 95.0792 17.993 94.8857 17.5686C94.6811 17.1132 94.5787 16.6184 94.5859 16.1191C94.5827 15.5612 94.6985 15.009 94.9257 14.4995C95.1479 13.999 95.4753 13.5524 95.8856 13.1899C96.2985 12.8232 96.7983 12.5333 97.3851 12.32C97.9719 12.1067 98.6188 12 99.3256 12C100.072 12 100.712 12.0963 101.245 12.289C101.778 12.4817 102.231 12.7283 102.605 13.0288C102.959 13.3087 103.26 13.6504 103.493 14.0375C103.698 14.3797 103.869 14.7415 104.003 15.1175L101.305 16.257C101.158 15.8306 100.924 15.4874 100.603 15.2273C100.282 14.9672 99.8692 14.8373 99.3644 14.8376C98.831 14.8376 98.4078 14.9477 98.0948 15.1679C97.7819 15.3881 97.6251 15.6713 97.6246 16.0175C97.6246 16.3775 97.7846 16.6975 98.1047 16.9774C98.4248 17.2574 98.9913 17.5373 99.8041 17.8172L100.684 18.1169C101.897 18.5298 102.837 19.083 103.503 19.7766C104.17 20.4702 104.503 21.4034 104.503 22.5762C104.503 23.3227 104.353 23.9695 104.053 24.5167C103.767 25.047 103.372 25.5106 102.894 25.8766C102.413 26.2401 101.871 26.5143 101.294 26.6862C100.727 26.8615 100.138 26.952 99.5448 26.9546Z" fill="white"/>
</g>

</svg>
