<svg width="375" height="295" viewBox="0 0 375 295" fill="none" xmlns="http://www.w3.org/2000/svg">
    <defs>
        <filter id="filter0_f" x="65.9038" y="120.346" width="243.568" height="174.441" filterUnits="userSpaceOnUse" color-interpolation-filters="sRGB">
            <feFlood flood-opacity="0" result="BackgroundImageFix"/>
            <feBlend mode="normal" in="SourceGraphic" in2="BackgroundImageFix" result="shape"/>
            <feGaussianBlur stdDeviation="20" result="effect1_foregroundBlur"/>
        </filter>
        <filter id="filter1_f" x="259.345" y="134.396" width="16.0933" height="27.0194" filterUnits="userSpaceOnUse" color-interpolation-filters="sRGB">
            <feFlood flood-opacity="0" result="BackgroundImageFix"/>
            <feBlend mode="normal" in="SourceGraphic" in2="BackgroundImageFix" result="shape"/>
            <feGaussianBlur stdDeviation="2" result="effect1_foregroundBlur"/>
        </filter>
        <filter id="filter2_f" x="254.489" y="137.634" width="16.0933" height="27.0194" filterUnits="userSpaceOnUse" color-interpolation-filters="sRGB">
            <feFlood flood-opacity="0" result="BackgroundImageFix"/>
            <feBlend mode="normal" in="SourceGraphic" in2="BackgroundImageFix" result="shape"/>
            <feGaussianBlur stdDeviation="2" result="effect1_foregroundBlur"/>
        </filter>
        <filter id="filter3_f" x="249.633" y="140.062" width="16.0933" height="27.0194" filterUnits="userSpaceOnUse" color-interpolation-filters="sRGB">
            <feFlood flood-opacity="0" result="BackgroundImageFix"/>
            <feBlend mode="normal" in="SourceGraphic" in2="BackgroundImageFix" result="shape"/>
            <feGaussianBlur stdDeviation="2" result="effect1_foregroundBlur"/>
        </filter>
        <filter id="filter4_f" x="179.076" y="41.9881" width="36.6147" height="61.7041" filterUnits="userSpaceOnUse" color-interpolation-filters="sRGB">
            <feFlood flood-opacity="0" result="BackgroundImageFix"/>
            <feBlend mode="normal" in="SourceGraphic" in2="BackgroundImageFix" result="shape"/>
            <feGaussianBlur stdDeviation="4.5" result="effect1_foregroundBlur"/>
        </filter>
        <filter id="filter5_f" x="170.174" y="50.0814" width="36.6147" height="61.7041" filterUnits="userSpaceOnUse" color-interpolation-filters="sRGB">
            <feFlood flood-opacity="0" result="BackgroundImageFix"/>
            <feBlend mode="normal" in="SourceGraphic" in2="BackgroundImageFix" result="shape"/>
            <feGaussianBlur stdDeviation="4.5" result="effect1_foregroundBlur"/>
        </filter>
        <filter id="filter6_f" x="161.271" y="54.1281" width="36.6147" height="61.7041" filterUnits="userSpaceOnUse" color-interpolation-filters="sRGB">
            <feFlood flood-opacity="0" result="BackgroundImageFix"/>
            <feBlend mode="normal" in="SourceGraphic" in2="BackgroundImageFix" result="shape"/>
            <feGaussianBlur stdDeviation="4.5" result="effect1_foregroundBlur"/>
        </filter>
        <linearGradient id="paint0_linear" x1="57.0616" y1="172.728" x2="238.215" y2="172.728" gradientUnits="userSpaceOnUse">
            <stop stop-color="#42E8E0"/>
            <stop offset="0.1" stop-color="#3CCACE"/>
            <stop offset="0.34" stop-color="#2F87A5"/>
            <stop offset="0.56" stop-color="#255385"/>
            <stop offset="0.75" stop-color="#1E2D6E"/>
            <stop offset="0.91" stop-color="#1A1660"/>
            <stop offset="1" stop-color="#180D5B"/>
        </linearGradient>
        <linearGradient id="paint1_linear" x1="187.68" y1="172.72" x2="278.261" y2="172.72" gradientUnits="userSpaceOnUse">
            <stop stop-color="#2B237C"/>
            <stop offset="1" stop-color="#180D5B"/>
        </linearGradient>
        <linearGradient id="paint2_linear" x1="44048.3" y1="20248.6" x2="84600.8" y2="20248.6" gradientUnits="userSpaceOnUse">
            <stop stop-color="#42E8E0"/>
            <stop offset="0.1" stop-color="#3CCACE"/>
            <stop offset="0.34" stop-color="#2F87A5"/>
            <stop offset="0.56" stop-color="#255385"/>
            <stop offset="0.75" stop-color="#1E2D6E"/>
            <stop offset="0.91" stop-color="#1A1660"/>
            <stop offset="1" stop-color="#180D5B"/>
        </linearGradient>
        <linearGradient id="paint3_linear" x1="22528.2" y1="20240.3" x2="33091" y2="20240.3" gradientUnits="userSpaceOnUse">
            <stop stop-color="#42E8E0"/>
            <stop offset="0.1" stop-color="#3CCACE"/>
            <stop offset="0.34" stop-color="#2F87A5"/>
            <stop offset="0.56" stop-color="#255385"/>
            <stop offset="0.75" stop-color="#1E2D6E"/>
            <stop offset="0.91" stop-color="#1A1660"/>
            <stop offset="1" stop-color="#180D5B"/>
        </linearGradient>
        <linearGradient id="paint4_linear" x1="49556.4" y1="14645.1" x2="58460.7" y2="-4117.03" gradientUnits="userSpaceOnUse">
            <stop stop-color="#42E8E0"/>
            <stop offset="0.1" stop-color="#3CCACE"/>
            <stop offset="0.34" stop-color="#2F87A5"/>
            <stop offset="0.56" stop-color="#255385"/>
            <stop offset="0.75" stop-color="#1E2D6E"/>
            <stop offset="0.91" stop-color="#1A1660"/>
            <stop offset="1" stop-color="#180D5B"/>
        </linearGradient>
        <linearGradient id="paint5_linear" x1="267.391" y1="138.396" x2="267.391" y2="157.416" gradientUnits="userSpaceOnUse">
            <stop stop-color="#3AFF04" stop-opacity="0"/>
            <stop offset="1" stop-color="#3AFF04"/>
        </linearGradient>
        <linearGradient id="paint6_linear" x1="262.535" y1="141.634" x2="262.535" y2="160.653" gradientUnits="userSpaceOnUse">
            <stop stop-color="#3AFF04" stop-opacity="0"/>
            <stop offset="1" stop-color="#3AFF04"/>
        </linearGradient>
        <linearGradient id="paint7_linear" x1="257.679" y1="144.062" x2="257.679" y2="163.081" gradientUnits="userSpaceOnUse">
            <stop stop-color="#3AFF04" stop-opacity="0"/>
            <stop offset="1" stop-color="#3AFF04"/>
        </linearGradient>
        <linearGradient id="paint8_linear" x1="35084.1" y1="14245.5" x2="75634.7" y2="14245.5" gradientUnits="userSpaceOnUse">
            <stop stop-color="#42E8E0"/>
            <stop offset="0.1" stop-color="#3CCACE"/>
            <stop offset="0.34" stop-color="#2F87A5"/>
            <stop offset="0.56" stop-color="#255385"/>
            <stop offset="0.75" stop-color="#1E2D6E"/>
            <stop offset="0.91" stop-color="#1A1660"/>
            <stop offset="1" stop-color="#180D5B"/>
        </linearGradient>
        <linearGradient id="paint9_linear" x1="32308" y1="14237.6" x2="42448.5" y2="14237.6" gradientUnits="userSpaceOnUse">
            <stop stop-color="#2B237C"/>
            <stop offset="1" stop-color="#180D5B"/>
        </linearGradient>
        <linearGradient id="paint10_linear" x1="44048.3" y1="13119.5" x2="84600.8" y2="13119.5" gradientUnits="userSpaceOnUse">
            <stop stop-color="#42E8E0"/>
            <stop offset="0.1" stop-color="#3CCACE"/>
            <stop offset="0.34" stop-color="#2F87A5"/>
            <stop offset="0.56" stop-color="#255385"/>
            <stop offset="0.75" stop-color="#1E2D6E"/>
            <stop offset="0.91" stop-color="#1A1660"/>
            <stop offset="1" stop-color="#180D5B"/>
        </linearGradient>
        <linearGradient id="paint11_linear" x1="22528.2" y1="13119.5" x2="33091" y2="13119.5" gradientUnits="userSpaceOnUse">
            <stop stop-color="#42E8E0"/>
            <stop offset="0.1" stop-color="#3CCACE"/>
            <stop offset="0.34" stop-color="#2F87A5"/>
            <stop offset="0.56" stop-color="#255385"/>
            <stop offset="0.75" stop-color="#1E2D6E"/>
            <stop offset="0.91" stop-color="#1A1660"/>
            <stop offset="1" stop-color="#180D5B"/>
        </linearGradient>
        <linearGradient id="paint12_linear" x1="49556.4" y1="10789.1" x2="58460" y2="-7973" gradientUnits="userSpaceOnUse">
            <stop stop-color="#42E8E0"/>
            <stop offset="0.1" stop-color="#3CCACE"/>
            <stop offset="0.34" stop-color="#2F87A5"/>
            <stop offset="0.56" stop-color="#255385"/>
            <stop offset="0.75" stop-color="#1E2D6E"/>
            <stop offset="0.91" stop-color="#1A1660"/>
            <stop offset="1" stop-color="#180D5B"/>
        </linearGradient>
        <radialGradient id="paint13_radial" cx="0" cy="0" r="1" gradientUnits="userSpaceOnUse" gradientTransform="trans(164.522 46.0754) rotate(29.8865) scale(65.384 56.4942)">
            <stop stop-color="#42E8E0"/>
            <stop offset="0.04" stop-color="#3ACBC9"/>
            <stop offset="0.11" stop-color="#2D9CA4"/>
            <stop offset="0.19" stop-color="#217283"/>
            <stop offset="0.27" stop-color="#174F67"/>
            <stop offset="0.36" stop-color="#0F3250"/>
            <stop offset="0.45" stop-color="#091C3E"/>
            <stop offset="0.55" stop-color="#040C32"/>
            <stop offset="0.66" stop-color="#02032A"/>
            <stop offset="0.82" stop-color="#010028"/>
        </radialGradient>
        <radialGradient id="paint14_radial" cx="0" cy="0" r="1" gradientUnits="userSpaceOnUse" gradientTransform="trans(94.1102 89.7795) rotate(29.8865) scale(65.384 56.4942)">
            <stop stop-color="#42E8E0"/>
            <stop offset="0.04" stop-color="#3ACBC9"/>
            <stop offset="0.11" stop-color="#2D9CA4"/>
            <stop offset="0.19" stop-color="#217283"/>
            <stop offset="0.27" stop-color="#174F67"/>
            <stop offset="0.36" stop-color="#0F3250"/>
            <stop offset="0.45" stop-color="#091C3E"/>
            <stop offset="0.55" stop-color="#040C32"/>
            <stop offset="0.66" stop-color="#02032A"/>
            <stop offset="0.82" stop-color="#010028"/>
        </radialGradient>
        <radialGradient id="paint15_radial" cx="0" cy="0" r="1" gradientUnits="userSpaceOnUse" gradientTransform="trans(271.354 110.822) rotate(29.8865) scale(65.384 56.4942)">
            <stop stop-color="#42E8E0"/>
            <stop offset="0.04" stop-color="#3ACBC9"/>
            <stop offset="0.11" stop-color="#2D9CA4"/>
            <stop offset="0.19" stop-color="#217283"/>
            <stop offset="0.27" stop-color="#174F67"/>
            <stop offset="0.36" stop-color="#0F3250"/>
            <stop offset="0.45" stop-color="#091C3E"/>
            <stop offset="0.55" stop-color="#040C32"/>
            <stop offset="0.66" stop-color="#02032A"/>
            <stop offset="0.82" stop-color="#010028"/>
        </radialGradient>
        <radialGradient id="paint16_radial" cx="0" cy="0" r="1" gradientUnits="userSpaceOnUse" gradientTransform="trans(260.024 118.106) rotate(29.8865) scale(65.384 56.4942)">
            <stop stop-color="#42E8E0"/>
            <stop offset="0.04" stop-color="#3ACBC9"/>
            <stop offset="0.11" stop-color="#2D9CA4"/>
            <stop offset="0.19" stop-color="#217283"/>
            <stop offset="0.27" stop-color="#174F67"/>
            <stop offset="0.36" stop-color="#0F3250"/>
            <stop offset="0.45" stop-color="#091C3E"/>
            <stop offset="0.55" stop-color="#040C32"/>
            <stop offset="0.66" stop-color="#02032A"/>
            <stop offset="0.82" stop-color="#010028"/>
        </radialGradient>
        <radialGradient id="paint17_radial" cx="0" cy="0" r="1" gradientUnits="userSpaceOnUse" gradientTransform="trans(246.265 126.2) rotate(29.8865) scale(65.384 56.4942)">
            <stop stop-color="#42E8E0"/>
            <stop offset="0.04" stop-color="#3ACBC9"/>
            <stop offset="0.11" stop-color="#2D9CA4"/>
            <stop offset="0.19" stop-color="#217283"/>
            <stop offset="0.27" stop-color="#174F67"/>
            <stop offset="0.36" stop-color="#0F3250"/>
            <stop offset="0.45" stop-color="#091C3E"/>
            <stop offset="0.55" stop-color="#040C32"/>
            <stop offset="0.66" stop-color="#02032A"/>
            <stop offset="0.82" stop-color="#010028"/>
        </radialGradient>
        <radialGradient id="paint18_radial" cx="0" cy="0" r="1" gradientUnits="userSpaceOnUse" gradientTransform="trans(4886.05 896.282) scale(131.112)">
            <stop stop-color="#42E8E0"/>
            <stop offset="0.04" stop-color="#3ACBC9"/>
            <stop offset="0.11" stop-color="#2D9CA4"/>
            <stop offset="0.19" stop-color="#217283"/>
            <stop offset="0.27" stop-color="#174F67"/>
            <stop offset="0.36" stop-color="#0F3250"/>
            <stop offset="0.45" stop-color="#091C3E"/>
            <stop offset="0.55" stop-color="#040C32"/>
            <stop offset="0.66" stop-color="#02032A"/>
            <stop offset="0.82" stop-color="#010028"/>
        </radialGradient>
        <radialGradient id="paint19_radial" cx="0" cy="0" r="1" gradientUnits="userSpaceOnUse" gradientTransform="trans(263.15 118.777) rotate(76.4652) scale(7.23819)">
            <stop stop-color="#6EE8FC" stop-opacity="0.74"/>
            <stop offset="1" stop-color="#010028" stop-opacity="0"/>
        </radialGradient>
        <radialGradient id="paint20_radial" cx="0" cy="0" r="1" gradientUnits="userSpaceOnUse" gradientTransform="trans(276.099 110.684) rotate(76.4652) scale(7.23819)">
            <stop stop-color="#6EE8FC" stop-opacity="0.74"/>
            <stop offset="1" stop-color="#010028" stop-opacity="0"/>
        </radialGradient>
        <radialGradient id="paint21_radial" cx="0" cy="0" r="1" gradientUnits="userSpaceOnUse" gradientTransform="trans(163.602 44.3184) rotate(76.4652) scale(7.23819)">
            <stop stop-color="#6EE8FC" stop-opacity="0.74"/>
            <stop offset="1" stop-color="#010028" stop-opacity="0"/>
        </radialGradient>
        <radialGradient id="paint22_radial" cx="0" cy="0" r="1" gradientUnits="userSpaceOnUse" gradientTransform="trans(89.9521 87.2132) rotate(76.4652) scale(7.23819)">
            <stop stop-color="#6EE8FC" stop-opacity="0.74"/>
            <stop offset="1" stop-color="#010028" stop-opacity="0"/>
        </radialGradient>
        <radialGradient id="paint23_radial" cx="0" cy="0" r="1" gradientUnits="userSpaceOnUse" gradientTransform="trans(-145008 24702.1) scale(7595.83 4385.56)">
            <stop stop-color="#42E8E0"/>
            <stop offset="0.04" stop-color="#3ACBC9"/>
            <stop offset="0.11" stop-color="#2D9CA4"/>
            <stop offset="0.19" stop-color="#217283"/>
            <stop offset="0.27" stop-color="#174F67"/>
            <stop offset="0.36" stop-color="#0F3250"/>
            <stop offset="0.45" stop-color="#091C3E"/>
            <stop offset="0.55" stop-color="#040C32"/>
            <stop offset="0.66" stop-color="#02032A"/>
            <stop offset="0.82" stop-color="#010028"/>
        </radialGradient>
        <linearGradient id="paint24_linear" x1="178.752" y1="100.481" x2="178.752" y2="105.155" gradientUnits="userSpaceOnUse">
            <stop stop-color="#BDFFAB"/>
            <stop offset="1" stop-color="#27B700"/>
        </linearGradient>
        <linearGradient id="paint25_linear" x1="187.688" y1="95.3015" x2="187.688" y2="99.9829" gradientUnits="userSpaceOnUse">
            <stop stop-color="#BDFFAB"/>
            <stop offset="1" stop-color="#27B700"/>
        </linearGradient>
        <linearGradient id="paint26_linear" x1="196.615" y1="90.1519" x2="196.615" y2="94.8274" gradientUnits="userSpaceOnUse">
            <stop stop-color="#BDFFAB"/>
            <stop offset="1" stop-color="#27B700"/>
        </linearGradient>
        <linearGradient id="paint27_linear" x1="197.384" y1="58.7945" x2="197.384" y2="94.6922" gradientUnits="userSpaceOnUse">
            <stop stop-color="#3AFF04" stop-opacity="0"/>
            <stop offset="1" stop-color="#3AFF04"/>
        </linearGradient>
        <linearGradient id="paint28_linear" x1="188.481" y1="66.8878" x2="188.481" y2="102.786" gradientUnits="userSpaceOnUse">
            <stop stop-color="#3AFF04" stop-opacity="0"/>
            <stop offset="1" stop-color="#3AFF04"/>
        </linearGradient>
        <linearGradient id="paint29_linear" x1="179.578" y1="70.9345" x2="179.578" y2="106.832" gradientUnits="userSpaceOnUse">
            <stop stop-color="#3AFF04" stop-opacity="0"/>
            <stop offset="1" stop-color="#3AFF04"/>
        </linearGradient>
    </defs>
<g id="server">
<g id="lines">
<g id="lines_2">
<g id="Group" opacity="0.73">
<path id="Vector" opacity="0.73" d="M129.885 175.399L-84.8068 52.2668L-84.5316 51.7893L130.161 174.922L129.885 175.399Z" fill="#42E8E0"/>
<path id="Vector_2" opacity="0.73" d="M151.454 162.943L135.211 153.571C133.509 152.634 131.622 152.082 129.683 151.953L112.258 150.577C110.242 150.467 108.275 149.914 106.496 148.958L-73.6217 45.8003L-73.3466 45.3228L106.771 148.497C108.478 149.415 110.364 149.953 112.299 150.075L129.724 151.443C131.739 151.56 133.705 152.112 135.486 153.061L151.729 162.442L151.454 162.943Z" fill="#42E8E0"/>
<path id="Vector_3" opacity="0.73" d="M108.325 187.847L92.0813 178.475C91.3927 178.124 90.7814 177.639 90.2837 177.049C89.786 176.458 89.412 175.773 89.1839 175.035L86.7559 164.975C86.5431 164.308 86.1975 163.691 85.7399 163.161C85.2823 162.631 84.7221 162.199 84.0931 161.891L-96 58.7253L-95.7249 58.2478L84.3845 161.414C85.0811 161.758 85.7001 162.24 86.2038 162.832C86.7076 163.423 87.0854 164.111 87.3143 164.853L89.6857 174.913C89.9019 175.58 90.2497 176.196 90.7084 176.726C91.1672 177.256 91.7276 177.688 92.3565 177.997L108.608 187.369L108.325 187.847Z" fill="#42E8E0"/>
<path id="Vector_4" opacity="0.73" d="M119.129 181.623L101.818 171.628C101.012 171.18 100.3 170.581 99.7216 169.863L92.7452 160.904C92.2068 160.245 91.5475 159.696 90.8028 159.285L-90.4073 55.4961L-90.1322 55.0186L91.0536 158.8C91.8606 159.249 92.5747 159.848 93.1579 160.564L100.126 169.531C100.664 170.19 101.324 170.74 102.069 171.15L119.38 181.145L119.129 181.623Z" fill="#42E8E0"/>
<path id="Vector_5" opacity="0.73" d="M140.666 169.175L123.362 159.172C122.464 158.663 121.5 158.279 120.497 158.031L104.974 153.984C103.924 153.72 102.914 153.318 101.971 152.786L-79.2144 49.0295L-78.9392 48.5601L102.247 152.341C103.145 152.85 104.109 153.234 105.112 153.482L120.635 157.529C121.684 157.793 122.694 158.195 123.637 158.727L140.941 168.722L140.666 169.175Z" fill="#42E8E0"/>
</g>
<g id="Group_2" opacity="0.73">
<path id="Vector_6" opacity="0.73" d="M245.305 175.399L459.997 52.2668L459.722 51.7893L245.03 174.922L245.305 175.399Z" fill="#42E8E0"/>
<path id="Vector_7" opacity="0.73" d="M223.736 162.943L239.979 153.571C241.682 152.634 243.568 152.082 245.507 151.953L262.932 150.577C264.949 150.467 266.916 149.914 268.695 148.958L448.812 45.8003L448.537 45.3228L268.419 148.497C266.712 149.415 264.826 149.953 262.892 150.075L245.467 151.443C243.452 151.56 241.486 152.112 239.704 153.061L223.461 162.442L223.736 162.943Z" fill="#42E8E0"/>
<path id="Vector_8" opacity="0.73" d="M266.866 187.847L283.109 178.475C283.798 178.124 284.409 177.639 284.907 177.049C285.404 176.458 285.778 175.773 286.007 175.035L288.435 164.975C288.647 164.308 288.993 163.691 289.451 163.161C289.908 162.631 290.468 162.199 291.097 161.891L471.19 58.7253L470.915 58.2478L290.806 161.414C290.109 161.758 289.49 162.24 288.987 162.832C288.483 163.423 288.105 164.111 287.876 164.853L285.505 174.913C285.289 175.58 284.941 176.196 284.482 176.726C284.023 177.256 283.463 177.688 282.834 177.997L266.583 187.369L266.866 187.847Z" fill="#42E8E0"/>
<path id="Vector_9" opacity="0.73" d="M256.061 181.623L273.373 171.628C274.179 171.18 274.89 170.581 275.469 169.863L282.445 160.904C282.984 160.245 283.643 159.696 284.388 159.285L465.598 55.4961L465.323 55.0186L284.137 158.8C283.33 159.249 282.616 159.848 282.033 160.564L275.064 169.531C274.526 170.19 273.867 170.74 273.122 171.15L255.81 181.145L256.061 181.623Z" fill="#42E8E0"/>
<path id="Vector_10" opacity="0.73" d="M234.525 169.175L251.828 159.172C252.727 158.663 253.691 158.279 254.693 158.031L270.216 153.984C271.266 153.72 272.276 153.318 273.219 152.786L454.405 49.0295L454.13 48.5601L272.944 152.341C272.045 152.85 271.081 153.234 270.079 153.482L254.556 157.529C253.506 157.793 252.496 158.195 251.553 158.727L234.25 168.722L234.525 169.175Z" fill="#42E8E0"/>
</g>
</g>
</g>
<g id="box">
<path id="Vector_11" d="M186.855 270.69C183.983 270.769 181.139 270.114 178.591 268.788L82.0538 213.057C79.8928 211.811 78.7031 210.079 78.7031 208.201C78.7031 205.919 80.4189 203.621 83.4054 201.897L177.223 147.728C182.832 144.491 191.363 144.143 196.227 146.919L292.764 202.657C294.925 203.904 296.115 205.636 296.115 207.513C296.115 209.796 294.399 212.094 291.413 213.818L197.603 268.003C194.306 269.798 190.607 270.723 186.855 270.69ZM187.98 145.389C184.292 145.359 180.658 146.267 177.418 148.027L83.5996 202.188C80.7346 203.847 79.0835 206.032 79.0835 208.185C79.0835 209.95 80.2085 211.568 82.248 212.75L178.777 268.473C183.544 271.232 191.905 270.901 197.392 267.663L291.21 213.494C294.083 211.876 295.726 209.658 295.726 207.505C295.726 205.741 294.601 204.122 292.562 202.941L196.065 147.25C193.572 145.951 190.789 145.31 187.98 145.389Z" fill="#6EE8FC"/>
<g id="Vector_12" opacity="0.2" filter="url(#filter0_f)">
<path d="M178.227 252.755L109.433 213.041C104.205 210.022 104.861 204.754 110.898 201.265L176.754 163.227C182.792 159.738 191.921 159.358 197.149 162.417L265.943 202.139C271.171 205.158 270.515 210.427 264.478 213.915L198.622 251.954C192.585 255.394 183.455 255.75 178.227 252.755Z" fill="#6EE8FC"/>
</g>
<path id="Vector_13" d="M278.245 166.933V152.713H241.55L198.169 127.664C192.382 124.322 182.266 124.743 175.581 128.603L133.851 152.713H97.1075V167.743C96.9457 170.001 98.2082 172.186 100.992 173.788L177.183 217.784C182.97 221.126 193.087 220.706 199.772 216.845L272.717 174.76C276.602 172.502 278.455 169.62 278.245 166.933Z" fill="#312A91"/>
<path id="Vector_14" opacity="0.5" d="M278.245 166.933V152.713H241.55L198.169 127.664C192.382 124.322 182.266 124.743 175.581 128.603L133.851 152.713H97.1075V167.743C96.9457 170.001 98.2082 172.186 100.992 173.788L177.183 217.784C182.97 221.126 193.087 220.706 199.772 216.845L272.717 174.76C276.602 172.502 278.455 169.62 278.245 166.933Z" fill="url(#paint0_linear)"/>
<path id="Vector_15" d="M198.169 127.664C195.385 126.046 191.606 125.334 187.648 125.431V220.026C191.893 219.969 196.06 218.877 199.788 216.845L272.733 174.76C276.594 172.534 278.447 169.653 278.237 166.966V152.713H241.55L198.169 127.664Z" fill="url(#paint1_linear)"/>
<path id="Vector_16" d="M177.207 202.755L101.016 158.767C95.2216 155.425 95.95 149.581 102.635 145.721L175.58 103.635C182.266 99.7829 192.382 99.362 198.169 102.705L274.36 146.692C280.155 150.034 279.426 155.878 272.741 159.73L199.796 201.816C193.111 205.676 182.994 206.097 177.207 202.755Z" fill="#312A91"/>
<path id="Vector_17" opacity="0.5" d="M177.207 202.755L101.016 158.767C95.2216 155.425 95.95 149.581 102.635 145.721L175.58 103.635C182.266 99.7829 192.382 99.362 198.169 102.705L274.36 146.692C280.155 150.034 279.426 155.878 272.741 159.73L199.796 201.816C193.111 205.676 182.994 206.097 177.207 202.755Z" fill="url(#paint2_linear)"/>
<path id="Vector_18" d="M179.247 193.034L117.851 157.586C113.189 154.899 113.804 150.188 119.162 147.064L177.936 113.129C183.318 110.021 191.468 109.681 196.13 112.376L257.526 147.817C262.188 150.512 261.572 155.214 256.215 158.338L197.441 192.266C192.059 195.39 183.909 195.721 179.247 193.034Z" fill="#5CFFF3"/>
<path id="Vector_19" d="M119.162 151.677L177.936 117.742C183.318 114.634 191.468 114.294 196.13 116.989L257.526 152.43C258.537 152.981 259.394 153.777 260.019 154.745C261.378 152.252 260.593 149.614 257.526 147.833L196.17 112.392C191.509 109.697 183.359 110.037 177.976 113.145L119.203 147.08C115.156 149.419 113.812 152.665 115.399 155.279C116.302 153.758 117.603 152.513 119.162 151.677Z" fill="#42E8E0"/>
<path id="Vector_20" opacity="0.5" d="M179.765 202.755L103.574 158.767C97.7791 155.425 96.3952 150.512 105.193 145.721L178.138 103.635C181.653 101.717 185.564 100.639 189.566 100.487C184.707 100.221 179.869 101.296 175.58 103.595L102.635 145.68C95.95 149.541 95.2216 155.392 101.016 158.727L177.207 202.714C180.145 204.414 184.208 205.142 188.368 204.932C185.37 204.887 182.423 204.141 179.765 202.755Z" fill="url(#paint3_linear)"/>
<path id="Vector_21" opacity="0.5" d="M272.741 166.051L199.796 208.137C193.111 211.997 182.994 212.418 177.208 209.075L101.017 165.104C98.2326 163.486 96.9701 161.317 97.1319 159.059V162.175C96.9701 164.433 98.2326 166.618 101.017 168.22L177.208 212.216C182.994 215.558 193.111 215.137 199.796 211.277L272.741 169.191C276.602 166.966 278.455 164.085 278.245 161.398V158.282C278.455 160.944 276.602 163.826 272.741 166.051Z" fill="url(#paint4_linear)"/>
<g id="internal dots">
<path id="Vector_22" d="M259.509 161.907C259.692 161.967 259.853 162.083 259.966 162.24C260.08 162.396 260.141 162.584 260.141 162.777C260.141 162.971 260.08 163.159 259.966 163.315C259.853 163.472 259.692 163.588 259.509 163.648C259.042 163.883 258.526 164.006 258.003 164.006C257.48 164.006 256.965 163.883 256.498 163.648C256.318 163.584 256.162 163.466 256.052 163.31C255.942 163.155 255.882 162.968 255.882 162.777C255.882 162.587 255.942 162.4 256.052 162.245C256.162 162.089 256.318 161.971 256.498 161.907C256.965 161.672 257.48 161.549 258.003 161.549C258.526 161.549 259.042 161.672 259.509 161.907Z" fill="#3AFF04"/>
<path id="Vector_23" d="M264.202 159.196C264.386 159.256 264.547 159.372 264.66 159.528C264.774 159.685 264.835 159.873 264.835 160.066C264.835 160.259 264.774 160.448 264.66 160.604C264.547 160.76 264.386 160.877 264.202 160.936C263.736 161.172 263.22 161.294 262.697 161.294C262.174 161.294 261.659 161.172 261.192 160.936C261.008 160.877 260.848 160.76 260.734 160.604C260.62 160.448 260.559 160.259 260.559 160.066C260.559 159.873 260.62 159.685 260.734 159.528C260.848 159.372 261.008 159.256 261.192 159.196C261.659 158.961 262.174 158.838 262.697 158.838C263.22 158.838 263.736 158.961 264.202 159.196Z" fill="#3AFF04"/>
<path id="Vector_24" d="M268.889 156.493C269.073 156.553 269.233 156.669 269.347 156.825C269.46 156.981 269.522 157.17 269.522 157.363C269.522 157.556 269.46 157.745 269.347 157.901C269.233 158.057 269.073 158.173 268.889 158.233C268.422 158.469 267.906 158.591 267.384 158.591C266.861 158.591 266.345 158.469 265.878 158.233C265.698 158.17 265.542 158.052 265.432 157.896C265.322 157.74 265.263 157.554 265.263 157.363C265.263 157.172 265.322 156.986 265.432 156.83C265.542 156.674 265.698 156.557 265.878 156.493C266.344 156.254 266.86 156.129 267.384 156.129C267.907 156.129 268.423 156.254 268.889 156.493Z" fill="#3AFF04"/>
<g id="lights">
<g id="Vector 4" opacity="0.7" filter="url(#filter1_f)">
<path d="M269.415 157.416H265.368L263.345 138.396L271.438 138.801L269.415 157.416Z" fill="url(#paint5_linear)"/>
</g>
<g id="Vector 5" opacity="0.7" filter="url(#filter2_f)">
<path d="M264.559 160.653H260.512L258.489 141.634L266.582 142.038L264.559 160.653Z" fill="url(#paint6_linear)"/>
</g>
<g id="Vector 6" opacity="0.7" filter="url(#filter3_f)">
<path d="M259.703 163.081H255.656L253.633 144.062L261.726 144.466L259.703 163.081Z" fill="url(#paint7_linear)"/>
</g>
</g>
</g>
<path id="Vector_25" opacity="0.5" d="M181.068 184.447L132.912 156.647C129.246 154.534 129.675 150.844 133.932 148.4L180.064 121.789C184.289 119.361 190.675 119.077 194.341 121.19L242.464 148.999C246.13 151.111 245.701 154.801 241.444 157.238L195.312 183.857C191.112 186.293 184.726 186.56 181.068 184.447Z" fill="#0B0244"/>
<path id="Vector_26" opacity="0.5" d="M278.245 152.713C278.261 152.444 278.261 152.174 278.245 151.904V112.182L215.116 112.457L198.161 102.672C192.374 99.3297 182.257 99.7505 175.572 103.603L159.815 112.708L97.0992 112.983V152.713C96.9374 154.971 98.1999 157.157 100.984 158.767L177.175 202.755C182.962 206.097 193.078 205.676 199.763 201.816L272.709 159.73C276.181 157.731 278.034 155.19 278.212 152.746L278.245 152.713Z" fill="#5CFFF3"/>
<path id="Vector_27" d="M278.245 112.182V97.9295H241.55L198.169 72.8887C192.382 69.5461 182.266 69.9589 175.581 73.8194L133.851 97.9295H97.1075V112.983C96.9457 115.249 98.2082 117.426 100.992 119.037L177.183 163.024C182.97 166.367 193.087 165.946 199.772 162.085L272.717 120C276.602 117.75 278.455 114.861 278.245 112.182Z" fill="#312A91"/>
<path id="Vector_28" opacity="0.5" d="M278.245 112.182V97.9295H241.55L198.169 72.8887C192.382 69.5461 182.266 69.9589 175.581 73.8194L133.851 97.9295H97.1075V112.983C96.9457 115.249 98.2082 117.426 100.992 119.037L177.183 163.024C182.97 166.367 193.087 165.946 199.772 162.085L272.717 120C276.602 117.75 278.455 114.861 278.245 112.182Z" fill="url(#paint8_linear)"/>
<path id="Vector_29" d="M198.169 72.913C195.385 71.2943 191.606 70.574 187.648 70.6711V165.266C191.893 165.209 196.06 164.117 199.788 162.085L272.733 120C276.594 117.774 278.447 114.885 278.237 112.206V97.9295H241.55L198.169 72.913Z" fill="url(#paint9_linear)"/>
<path id="Vector_30" d="M177.207 147.995L101.016 104.008C95.2216 100.665 95.95 94.8217 102.635 90.9692L175.58 48.8838C182.266 45.0233 192.382 44.6024 198.169 47.945L274.36 91.9323C280.155 95.2749 279.426 101.118 272.741 104.979L199.796 147.064C193.111 150.917 182.994 151.346 177.207 147.995Z" fill="#312A91"/>
<path id="Vector_31" opacity="0.5" d="M177.207 147.995L101.016 104.008C95.2216 100.665 95.95 94.8217 102.635 90.9692L175.58 48.8838C182.266 45.0233 192.382 44.6024 198.169 47.945L274.36 91.9323C280.155 95.2749 279.426 101.118 272.741 104.979L199.796 147.064C193.111 150.917 182.994 151.346 177.207 147.995Z" fill="url(#paint10_linear)"/>
<path id="Vector_32" opacity="0.5" d="M179.765 147.995L103.574 104.008C97.7791 100.665 96.3952 95.7524 105.193 90.9692L178.138 48.8838C181.651 46.9589 185.563 45.8782 189.566 45.7274C184.702 45.4727 179.863 46.565 175.58 48.8838L102.635 90.9692C95.95 94.8217 95.2216 100.681 101.016 104.008L177.207 147.995C180.145 149.695 184.208 150.423 188.368 150.213C185.366 150.159 182.419 149.399 179.765 147.995Z" fill="url(#paint11_linear)"/>
<path id="Vector_33" opacity="0.5" d="M272.741 111.3L199.796 153.385C193.111 157.246 182.994 157.667 177.208 154.324L101.017 110.337C98.2326 108.718 96.9701 106.549 97.1319 104.283V107.399C96.9701 109.657 98.2326 111.842 101.017 113.453L177.208 157.44C182.994 160.782 193.111 160.362 199.796 156.501L272.741 114.416C276.602 112.182 278.455 109.301 278.245 106.614V103.506C278.455 106.185 276.602 109.074 272.741 111.3Z" fill="url(#paint12_linear)"/>
<path id="Vector_34" opacity="0.5" d="M187.187 137.19C184.568 137.262 181.974 136.663 179.652 135.45L123.33 102.931C121.282 101.741 120.149 100.082 120.149 98.2451C120.149 96.068 121.768 93.8909 124.528 92.2884L178.47 61.1452C183.561 58.2074 191.314 57.9079 195.741 60.4573L252.079 92.9845C254.127 94.1661 255.26 95.8333 255.26 97.6705C255.26 99.8476 253.641 102.017 250.881 103.619L196.939 134.762C193.948 136.388 190.591 137.224 187.187 137.19ZM180.226 134.455C184.338 136.834 191.557 136.527 196.356 133.767L250.29 102.624C252.718 101.232 254.094 99.3863 254.094 97.6705C254.094 96.2542 253.164 94.9512 251.488 93.98L195.15 61.4528C191.039 59.0733 183.82 59.389 179.02 62.1407L125.086 93.2839C122.658 94.676 121.282 96.5213 121.282 98.2451C121.282 99.6534 122.213 100.965 123.889 101.936L180.226 134.455Z" fill="#0B0244"/>
<g id="lines light">
<path id="Vector_35" d="M186.855 159.366C183.983 159.449 181.138 158.794 178.591 157.464L82.0538 101.741C79.8928 100.495 78.7031 98.7631 78.7031 96.8854C78.7031 94.6031 80.4189 92.3046 83.4054 90.5807L177.24 36.42C182.848 33.1827 191.379 32.8266 196.243 35.6107L292.764 91.3415C294.925 92.5879 296.115 94.3199 296.115 96.1975C296.115 98.4798 294.399 100.778 291.413 102.502L197.603 156.687C194.306 158.479 190.607 159.401 186.855 159.366ZM187.98 34.073C184.293 34.0403 180.658 34.9454 177.418 36.7033L83.5996 90.8721C80.7346 92.4908 79.0835 94.7164 79.0835 96.8612C79.0835 98.6255 80.2085 100.244 82.248 101.426L178.777 157.157C183.544 159.908 191.905 159.585 197.392 156.347L291.21 102.187C294.083 100.568 295.726 98.3422 295.726 96.1975C295.726 94.4332 294.601 92.8064 292.562 91.6329L196.065 35.9263C193.572 34.6296 190.789 33.9916 187.98 34.073Z" fill="#6EE8FC"/>
<path id="Vector_36" style="mix-blend-mode:lighten" opacity="0.3" d="M169.138 92.1509C213.211 92.1509 248.939 71.5222 248.939 46.0754C248.939 20.6287 213.211 0 169.138 0C125.066 0 89.3379 20.6287 89.3379 46.0754C89.3379 71.5222 125.066 92.1509 169.138 92.1509Z" fill="url(#paint13_radial)"/>
<path id="Vector_37" style="mix-blend-mode:lighten" opacity="0.3" d="M98.7262 135.855C142.799 135.855 178.527 115.226 178.527 89.7795C178.527 64.3327 142.799 43.7041 98.7262 43.7041C54.6537 43.7041 18.9258 64.3327 18.9258 89.7795C18.9258 115.226 54.6537 135.855 98.7262 135.855Z" fill="url(#paint14_radial)"/>
<path id="Vector_38" style="mix-blend-mode:lighten" opacity="0.3" d="M275.97 156.898C320.043 156.898 355.771 136.269 355.771 110.822C355.771 85.3755 320.043 64.7468 275.97 64.7468C231.898 64.7468 196.17 85.3755 196.17 110.822C196.17 136.269 231.898 156.898 275.97 156.898Z" fill="url(#paint15_radial)"/>
<path id="Vector_39" style="mix-blend-mode:lighten" opacity="0.3" d="M264.64 164.182C308.712 164.182 344.44 143.553 344.44 118.106C344.44 92.6595 308.712 72.0308 264.64 72.0308C220.567 72.0308 184.839 92.6595 184.839 118.106C184.839 143.553 220.567 164.182 264.64 164.182Z" fill="url(#paint16_radial)"/>
<path id="Vector_40" style="mix-blend-mode:lighten" opacity="0.3" d="M250.881 172.275C294.954 172.275 330.681 151.646 330.681 126.2C330.681 100.753 294.954 80.1241 250.881 80.1241C206.808 80.1241 171.081 100.753 171.081 126.2C171.081 151.646 206.808 172.275 250.881 172.275Z" fill="url(#paint17_radial)"/>
<path id="Vector_41" style="mix-blend-mode:lighten" d="M163.53 51.7731C167.552 51.7731 170.814 48.512 170.814 44.4891C170.814 40.4663 167.552 37.2051 163.53 37.2051C159.507 37.2051 156.246 40.4663 156.246 44.4891C156.246 48.512 159.507 51.7731 163.53 51.7731Z" fill="url(#paint18_radial)"/>
<path id="Vector_42" d="M165.601 44.5134C165.603 44.9255 165.482 45.3287 165.254 45.672C165.026 46.0153 164.702 46.2832 164.321 46.4416C163.941 46.6 163.522 46.6419 163.118 46.5619C162.713 46.4819 162.342 46.2836 162.051 45.9923C161.759 45.7009 161.561 45.3295 161.481 44.9253C161.401 44.5211 161.443 44.1022 161.601 43.7218C161.76 43.3414 162.028 43.0166 162.371 42.7887C162.714 42.5607 163.117 42.4399 163.529 42.4415C164.078 42.4436 164.604 42.6626 164.992 43.0507C165.38 43.4388 165.599 43.9646 165.601 44.5134Z" fill="#6EE8FC"/>
<path id="Vector_43" d="M90.0746 89.0673C91.2234 89.0673 92.1546 88.1361 92.1546 86.9873C92.1546 85.8386 91.2234 84.9073 90.0746 84.9073C88.9259 84.9073 87.9946 85.8386 87.9946 86.9873C87.9946 88.1361 88.9259 89.0673 90.0746 89.0673Z" fill="#6EE8FC"/>
<g id="Vector_44" style="mix-blend-mode:lighten">
<path d="M265.937 125.507C269.654 123.967 271.419 119.706 269.879 115.99C268.34 112.273 264.079 110.508 260.362 112.048C256.646 113.587 254.881 117.848 256.42 121.565C257.96 125.281 262.221 127.046 265.937 125.507Z" fill="url(#paint19_radial)"/>
</g>
<g id="Vector_45" style="mix-blend-mode:lighten">
<path d="M278.887 117.413C282.603 115.874 284.368 111.613 282.829 107.896C281.289 104.18 277.028 102.415 273.312 103.954C269.595 105.494 267.83 109.755 269.37 113.471C270.909 117.188 275.17 118.953 278.887 117.413Z" fill="url(#paint20_radial)"/>
</g>
<g id="Vector_46" style="mix-blend-mode:lighten">
<path d="M166.389 51.048C170.106 49.5085 171.871 45.2476 170.332 41.531C168.792 37.8143 164.531 36.0494 160.815 37.5889C157.098 39.1283 155.333 43.3893 156.872 47.1059C158.412 50.8225 162.673 52.5875 166.389 51.048Z" fill="url(#paint21_radial)"/>
</g>
<g id="Vector_47" style="mix-blend-mode:lighten">
<path d="M92.7396 93.9427C96.4562 92.4032 98.2211 88.1423 96.6816 84.4257C95.1422 80.7091 90.8812 78.9441 87.1646 80.4836C83.448 82.0231 81.6831 86.284 83.2225 90.0006C84.762 93.7173 89.0229 95.4822 92.7396 93.9427Z" fill="url(#paint22_radial)"/>
</g>
<path id="Vector_48" d="M251.585 126.507C251.585 126.919 251.463 127.321 251.234 127.664C251.005 128.006 250.68 128.272 250.299 128.43C249.919 128.587 249.5 128.627 249.097 128.547C248.693 128.466 248.322 128.267 248.032 127.975C247.741 127.683 247.544 127.312 247.464 126.908C247.385 126.504 247.427 126.085 247.586 125.706C247.745 125.326 248.012 125.001 248.356 124.774C248.699 124.546 249.102 124.426 249.513 124.427C250.064 124.429 250.591 124.649 250.979 125.039C251.367 125.429 251.585 125.957 251.585 126.507Z" fill="#6EE8FC"/>
<path id="Vector_49" d="M263.013 120.631C264.162 120.631 265.093 119.7 265.093 118.551C265.093 117.403 264.162 116.471 263.013 116.471C261.864 116.471 260.933 117.403 260.933 118.551C260.933 119.7 261.864 120.631 263.013 120.631Z" fill="#6EE8FC"/>
<path id="Vector_50" d="M278.601 110.709C278.602 111.121 278.482 111.524 278.254 111.867C278.027 112.21 277.702 112.478 277.322 112.636C276.943 112.795 276.524 112.837 276.12 112.758C275.716 112.679 275.345 112.481 275.053 112.191C274.761 111.9 274.562 111.529 274.481 111.126C274.401 110.722 274.441 110.303 274.598 109.923C274.756 109.542 275.022 109.217 275.364 108.988C275.707 108.759 276.109 108.637 276.521 108.637C277.071 108.637 277.599 108.855 277.989 109.243C278.379 109.632 278.599 110.159 278.601 110.709Z" fill="#6EE8FC"/>
<path id="Vector_51" style="mix-blend-mode:lighten" opacity="0.3" d="M249.432 160.685C283.318 160.685 310.788 144.825 310.788 125.261C310.788 105.696 283.318 89.8362 249.432 89.8362C215.547 89.8362 188.077 105.696 188.077 125.261C188.077 144.825 215.547 160.685 249.432 160.685Z" fill="url(#paint23_radial)"/>
</g>
</g>
<g id="dots">
<path id="Vector_52" d="M181.602 101.167C183.22 102.073 183.22 103.554 181.602 104.469C180.714 104.92 179.732 105.155 178.737 105.155C177.741 105.155 176.759 104.92 175.872 104.469C174.293 103.554 174.293 102.041 175.872 101.167C176.759 100.716 177.741 100.481 178.737 100.481C179.732 100.481 180.714 100.716 181.602 101.167Z" fill="url(#paint24_linear)"/>
<path id="Vector_53" d="M190.553 95.9871C192.172 96.9017 192.172 98.4151 190.553 99.2973C189.665 99.748 188.684 99.9829 187.688 99.9829C186.692 99.9829 185.711 99.748 184.823 99.2973C183.204 98.3828 183.204 96.8693 184.823 95.9871C185.711 95.5364 186.692 95.3015 187.688 95.3015C188.684 95.3015 189.665 95.5364 190.553 95.9871Z" fill="url(#paint25_linear)"/>
<path id="Vector_54" d="M199.48 90.8316C201.098 91.7462 201.098 93.2596 199.48 94.1418C198.592 94.5925 197.61 94.8274 196.615 94.8274C195.619 94.8274 194.637 94.5925 193.75 94.1418C192.131 93.2273 192.131 91.7138 193.75 90.8316C194.639 90.3847 195.62 90.1519 196.615 90.1519C197.61 90.1519 198.591 90.3847 199.48 90.8316Z" fill="url(#paint26_linear)"/>
<g id="lights_2">
<g id="Vector 1" opacity="0.45" filter="url(#filter4_f)">
<path d="M196.979 94.6922C194.389 94.6922 193.202 93.3246 192.932 92.6409L188.076 54.179C188.076 54.179 196.979 46.9995 206.691 54.179L200.621 92.6409C200.486 93.3246 199.569 94.6922 196.979 94.6922Z" fill="url(#paint27_linear)"/>
</g>
<g id="Vector 2" opacity="0.45" filter="url(#filter5_f)">
<path d="M188.077 102.786C185.487 102.786 184.3 101.418 184.03 100.734L179.174 62.2723C179.174 62.2723 188.077 55.0928 197.789 62.2723L191.719 100.734C191.584 101.418 190.666 102.786 188.077 102.786Z" fill="url(#paint28_linear)"/>
</g>
<g id="Vector 3" opacity="0.45" filter="url(#filter6_f)">
<path d="M179.174 106.832C176.584 106.832 175.397 105.465 175.127 104.781L170.271 66.319C170.271 66.319 179.174 59.1395 188.886 66.319L182.816 104.781C182.681 105.465 181.764 106.832 179.174 106.832Z" fill="url(#paint29_linear)"/>
</g>
</g>
</g>
</g>

</svg>
