<svg width="232" height="280" viewBox="0 0 232 280" fill="none" xmlns="http://www.w3.org/2000/svg">
    <defs>
        <linearGradient id="paint0_linear" x1="109.399" y1="72.4521" x2="202.841" y2="228.623"
            gradientUnits="userSpaceOnUse">
            <stop stop-color="#42E8E0" />
            <stop offset="0.04" stop-color="#3ACBC9" />
            <stop offset="0.11" stop-color="#2D9CA4" />
            <stop offset="0.19" stop-color="#217283" />
            <stop offset="0.27" stop-color="#174F67" />
            <stop offset="0.36" stop-color="#0F3250" />
            <stop offset="0.45" stop-color="#091C3E" />
            <stop offset="0.55" stop-color="#040C32" />
            <stop offset="0.66" stop-color="#02032A" />
            <stop offset="0.82" stop-color="#010028" />
        </linearGradient>
        <linearGradient id="paint1_linear" x1="0.000145694" y1="209.857" x2="193.829" y2="209.857"
            gradientUnits="userSpaceOnUse">
            <stop stop-color="#C3ECFF" />
            <stop offset="0.3" stop-color="#ADEBFE" />
            <stop offset="0.93" stop-color="#75E8FC" />
            <stop offset="1" stop-color="#6EE8FC" />
        </linearGradient>
        <linearGradient id="paint2_linear" x1="118.262" y1="77.8958" x2="178.719" y2="175.84"
            gradientUnits="userSpaceOnUse">
            <stop stop-color="#99C5D2" />
            <stop offset="0.18" stop-color="#86AFC3" />
            <stop offset="0.54" stop-color="#55769B" />
            <stop offset="1" stop-color="#122865" />
        </linearGradient>
        <linearGradient id="paint3_linear" x1="1086.17" y1="497.114" x2="1355.15" y2="1108.25"
            gradientUnits="userSpaceOnUse">
            <stop stop-color="#99C5D2" />
            <stop offset="0.18" stop-color="#86AFC3" />
            <stop offset="0.54" stop-color="#55769B" />
            <stop offset="1" stop-color="#122865" />
        </linearGradient>
        <linearGradient id="paint4_linear" x1="646.15" y1="521.353" x2="868.632" y2="996.06"
            gradientUnits="userSpaceOnUse">
            <stop stop-color="#99C5D2" />
            <stop offset="0.18" stop-color="#86AFC3" />
            <stop offset="0.54" stop-color="#55769B" />
            <stop offset="1" stop-color="#122865" />
        </linearGradient>
        <linearGradient id="paint5_linear" x1="892.07" y1="611.128" x2="1160.51" y2="1224.26"
            gradientUnits="userSpaceOnUse">
            <stop stop-color="#99C5D2" />
            <stop offset="0.18" stop-color="#86AFC3" />
            <stop offset="0.54" stop-color="#55769B" />
            <stop offset="1" stop-color="#122865" />
        </linearGradient>
        <linearGradient id="paint6_linear" x1="538.095" y1="375.71" x2="722.301" y2="736.28"
            gradientUnits="userSpaceOnUse">
            <stop stop-color="#99C5D2" />
            <stop offset="0.18" stop-color="#86AFC3" />
            <stop offset="0.54" stop-color="#55769B" />
            <stop offset="1" stop-color="#122865" />
        </linearGradient>
        <linearGradient id="paint7_linear" x1="1126.26" y1="643.329" x2="1438.18" y2="1383.91"
            gradientUnits="userSpaceOnUse">
            <stop stop-color="#99C5D2" />
            <stop offset="0.18" stop-color="#86AFC3" />
            <stop offset="0.54" stop-color="#55769B" />
            <stop offset="1" stop-color="#122865" />
        </linearGradient>
        <linearGradient id="paint8_linear" x1="506.989" y1="411.088" x2="688.778" y2="769.897"
            gradientUnits="userSpaceOnUse">
            <stop stop-color="#99C5D2" />
            <stop offset="0.18" stop-color="#86AFC3" />
            <stop offset="0.54" stop-color="#55769B" />
            <stop offset="1" stop-color="#122865" />
        </linearGradient>
        <linearGradient id="paint9_linear" x1="932.157" y1="682.804" x2="1217.46" y2="1350.98"
            gradientUnits="userSpaceOnUse">
            <stop stop-color="#99C5D2" />
            <stop offset="0.18" stop-color="#86AFC3" />
            <stop offset="0.54" stop-color="#55769B" />
            <stop offset="1" stop-color="#122865" />
        </linearGradient>
        <linearGradient id="paint10_linear" x1="389.035" y1="392.505" x2="553.807" y2="685.478"
            gradientUnits="userSpaceOnUse">
            <stop stop-color="#99C5D2" />
            <stop offset="0.18" stop-color="#86AFC3" />
            <stop offset="0.54" stop-color="#55769B" />
            <stop offset="1" stop-color="#122865" />
        </linearGradient>
        <linearGradient id="paint11_linear" x1="397.793" y1="436.675" x2="569.166" y2="758.031"
            gradientUnits="userSpaceOnUse">
            <stop stop-color="#99C5D2" />
            <stop offset="0.18" stop-color="#86AFC3" />
            <stop offset="0.54" stop-color="#55769B" />
            <stop offset="1" stop-color="#122865" />
        </linearGradient>
        <linearGradient id="paint12_linear" x1="724.776" y1="621.335" x2="977.605" y2="1187.49"
            gradientUnits="userSpaceOnUse">
            <stop stop-color="#99C5D2" />
            <stop offset="0.18" stop-color="#86AFC3" />
            <stop offset="0.54" stop-color="#55769B" />
            <stop offset="1" stop-color="#122865" />
        </linearGradient>
        <linearGradient id="paint13_linear" x1="536.019" y1="557.201" x2="751.972" y2="1013.82"
            gradientUnits="userSpaceOnUse">
            <stop stop-color="#99C5D2" />
            <stop offset="0.18" stop-color="#86AFC3" />
            <stop offset="0.54" stop-color="#55769B" />
            <stop offset="1" stop-color="#122865" />
        </linearGradient>
        <linearGradient id="paint14_linear" x1="550.556" y1="447.97" x2="732.715" y2="803.48"
            gradientUnits="userSpaceOnUse">
            <stop stop-color="#99C5D2" />
            <stop offset="0.18" stop-color="#86AFC3" />
            <stop offset="0.54" stop-color="#55769B" />
            <stop offset="1" stop-color="#122865" />
        </linearGradient>
        <linearGradient id="paint15_linear" x1="993.088" y1="619.726" x2="1277.39" y2="1285.76"
            gradientUnits="userSpaceOnUse">
            <stop stop-color="#99C5D2" />
            <stop offset="0.18" stop-color="#86AFC3" />
            <stop offset="0.54" stop-color="#55769B" />
            <stop offset="1" stop-color="#122865" />
        </linearGradient>
        <linearGradient id="paint16_linear" x1="1544.83" y1="863.213" x2="1958.71" y2="1894.07"
            gradientUnits="userSpaceOnUse">
            <stop stop-color="#99C5D2" />
            <stop offset="0.18" stop-color="#86AFC3" />
            <stop offset="0.54" stop-color="#55769B" />
            <stop offset="1" stop-color="#122865" />
        </linearGradient>
        <linearGradient id="paint17_linear" x1="920.826" y1="651.092" x2="1206.48" y2="1320.22"
            gradientUnits="userSpaceOnUse">
            <stop stop-color="#99C5D2" />
            <stop offset="0.18" stop-color="#86AFC3" />
            <stop offset="0.54" stop-color="#55769B" />
            <stop offset="1" stop-color="#122865" />
        </linearGradient>
        <linearGradient id="paint18_linear" x1="572.41" y1="399.393" x2="754.042" y2="754.05"
            gradientUnits="userSpaceOnUse">
            <stop stop-color="#99C5D2" />
            <stop offset="0.18" stop-color="#86AFC3" />
            <stop offset="0.54" stop-color="#55769B" />
            <stop offset="1" stop-color="#122865" />
        </linearGradient>
        <linearGradient id="paint19_linear" x1="2402.16" y1="810.064" x2="2887.44" y2="2040.33"
            gradientUnits="userSpaceOnUse">
            <stop stop-color="#99C5D2" />
            <stop offset="0.18" stop-color="#86AFC3" />
            <stop offset="0.54" stop-color="#55769B" />
            <stop offset="1" stop-color="#122865" />
        </linearGradient>
        <linearGradient id="paint20_linear" x1="985.049" y1="767.167" x2="1307.83" y2="1536.33"
            gradientUnits="userSpaceOnUse">
            <stop stop-color="#99C5D2" />
            <stop offset="0.18" stop-color="#86AFC3" />
            <stop offset="0.54" stop-color="#55769B" />
            <stop offset="1" stop-color="#122865" />
        </linearGradient>
        <linearGradient id="paint21_linear" x1="955.134" y1="528.524" x2="1224.95" y2="1142.92"
            gradientUnits="userSpaceOnUse">
            <stop stop-color="#99C5D2" />
            <stop offset="0.18" stop-color="#86AFC3" />
            <stop offset="0.54" stop-color="#55769B" />
            <stop offset="1" stop-color="#122865" />
        </linearGradient>
        <linearGradient id="paint22_linear" x1="740.278" y1="763.156" x2="1032.46" y2="1443.24"
            gradientUnits="userSpaceOnUse">
            <stop stop-color="#99C5D2" />
            <stop offset="0.18" stop-color="#86AFC3" />
            <stop offset="0.54" stop-color="#55769B" />
            <stop offset="1" stop-color="#122865" />
        </linearGradient>
        <linearGradient id="paint23_linear" x1="880.566" y1="486.758" x2="1102.28" y2="960.511"
            gradientUnits="userSpaceOnUse">
            <stop stop-color="#99C5D2" />
            <stop offset="0.18" stop-color="#86AFC3" />
            <stop offset="0.54" stop-color="#55769B" />
            <stop offset="1" stop-color="#122865" />
        </linearGradient>
        <linearGradient id="paint24_linear" x1="1474.89" y1="570.504" x2="1787.17" y2="1311.69"
            gradientUnits="userSpaceOnUse">
            <stop stop-color="#99C5D2" />
            <stop offset="0.18" stop-color="#86AFC3" />
            <stop offset="0.54" stop-color="#55769B" />
            <stop offset="1" stop-color="#122865" />
        </linearGradient>
        <linearGradient id="paint25_linear" x1="695.662" y1="396.569" x2="879.81" y2="757.125"
            gradientUnits="userSpaceOnUse">
            <stop stop-color="#99C5D2" />
            <stop offset="0.18" stop-color="#86AFC3" />
            <stop offset="0.54" stop-color="#55769B" />
            <stop offset="1" stop-color="#122865" />
        </linearGradient>
        <linearGradient id="paint26_linear" x1="550.001" y1="384.223" x2="713.997" y2="676.669"
            gradientUnits="userSpaceOnUse">
            <stop stop-color="#99C5D2" />
            <stop offset="0.18" stop-color="#86AFC3" />
            <stop offset="0.54" stop-color="#55769B" />
            <stop offset="1" stop-color="#122865" />
        </linearGradient>
        <linearGradient id="paint27_linear" x1="1315.71" y1="559.924" x2="1601.49" y2="1229.2"
            gradientUnits="userSpaceOnUse">
            <stop stop-color="#99C5D2" />
            <stop offset="0.18" stop-color="#86AFC3" />
            <stop offset="0.54" stop-color="#55769B" />
            <stop offset="1" stop-color="#122865" />
        </linearGradient>
        <linearGradient id="paint28_linear" x1="2015.41" y1="745.735" x2="2428.76" y2="1775.95"
            gradientUnits="userSpaceOnUse">
            <stop stop-color="#99C5D2" />
            <stop offset="0.18" stop-color="#86AFC3" />
            <stop offset="0.54" stop-color="#55769B" />
            <stop offset="1" stop-color="#122865" />
        </linearGradient>
        <linearGradient id="paint29_linear" x1="1238.3" y1="588.411" x2="1523.91" y2="1257.14"
            gradientUnits="userSpaceOnUse">
            <stop stop-color="#99C5D2" />
            <stop offset="0.18" stop-color="#86AFC3" />
            <stop offset="0.54" stop-color="#55769B" />
            <stop offset="1" stop-color="#122865" />
        </linearGradient>
        <linearGradient id="paint30_linear" x1="1343.74" y1="689.592" x2="1666.87" y2="1458.67"
            gradientUnits="userSpaceOnUse">
            <stop stop-color="#99C5D2" />
            <stop offset="0.18" stop-color="#86AFC3" />
            <stop offset="0.54" stop-color="#55769B" />
            <stop offset="1" stop-color="#122865" />
        </linearGradient>
        <linearGradient id="paint31_linear" x1="214.493" y1="84.3001" x2="225.601" y2="84.3001"
            gradientUnits="userSpaceOnUse">
            <stop stop-color="#227786" />
            <stop offset="0.31" stop-color="#235F82" />
            <stop offset="0.95" stop-color="#242177" />
            <stop offset="1" stop-color="#241C76" />
        </linearGradient>
        <linearGradient id="paint32_linear" x1="7887.74" y1="316.747" x2="10817.4" y2="5366.55"
            gradientUnits="userSpaceOnUse">
            <stop stop-color="#227786" />
            <stop offset="0.31" stop-color="#235F82" />
            <stop offset="0.95" stop-color="#242177" />
            <stop offset="1" stop-color="#241C76" />
        </linearGradient>
        <linearGradient id="paint33_linear" x1="133.102" y1="49.515" x2="218.595" y2="49.515"
            gradientUnits="userSpaceOnUse">
            <stop stop-color="#3780B3" />
            <stop offset="0.09" stop-color="#336AA6" />
            <stop offset="0.23" stop-color="#2E4E95" />
            <stop offset="0.38" stop-color="#293887" />
            <stop offset="0.55" stop-color="#26287D" />
            <stop offset="0.74" stop-color="#251F78" />
            <stop offset="1" stop-color="#241C76" />
        </linearGradient>
        <clipPath id="clip0">
            <rect width="232" height="280" fill="white" />
        </clipPath>
    </defs>
    <g clip-path="url(#clip0)">
        <path
            d="M176.338 106.765H176.136C175.901 106.709 175.697 106.563 175.571 106.357C175.444 106.152 175.404 105.905 175.46 105.67L184.324 67.2783C184.347 67.1617 184.395 67.0511 184.462 66.9532C184.53 66.8554 184.618 66.7725 184.719 66.7094C184.82 66.6463 184.933 66.6044 185.05 66.5864C185.168 66.5683 185.289 66.5743 185.404 66.6042C185.639 66.6566 185.843 66.7993 185.972 67.0013C186.102 67.2033 186.147 67.4482 186.096 67.6828L177.267 106.058C177.219 106.265 177.101 106.45 176.931 106.58C176.761 106.709 176.551 106.775 176.338 106.765Z"
            fill="#5793CE" />
        <path
            d="M164.571 104.069H164.368C164.252 104.045 164.141 103.998 164.043 103.93C163.945 103.862 163.862 103.775 163.798 103.674C163.735 103.573 163.693 103.461 163.675 103.343C163.657 103.225 163.663 103.105 163.693 102.99L172.54 64.5985C172.596 64.3631 172.742 64.159 172.947 64.0299C173.152 63.9008 173.4 63.8568 173.637 63.9075C173.872 63.9635 174.075 64.1103 174.202 64.3157C174.328 64.5211 174.368 64.7683 174.312 65.0029L165.449 103.361C165.406 103.562 165.296 103.742 165.136 103.87C164.976 103.999 164.776 104.069 164.571 104.069Z"
            fill="#5793CE" />
        <path
            d="M152.804 101.356H152.584C152.349 101.3 152.146 101.153 152.02 100.947C151.893 100.742 151.853 100.495 151.909 100.26L160.772 61.8515C160.796 61.7349 160.843 61.6243 160.911 61.5265C160.979 61.4287 161.066 61.3457 161.167 61.2826C161.268 61.2195 161.381 61.1777 161.499 61.1596C161.617 61.1415 161.737 61.1476 161.853 61.1774C162.087 61.2298 162.292 61.3726 162.421 61.5746C162.551 61.7765 162.595 62.0215 162.545 62.256L153.631 100.648C153.588 100.839 153.484 101.011 153.335 101.139C153.186 101.266 153 101.342 152.804 101.356Z"
            fill="#5793CE" />
        <path d="M161.925 72.1544L157.191 71.0469L154.795 81.253L159.529 82.3606L161.925 72.1544Z"
            fill="#5793CE" />
        <path
            d="M158.696 83.1707C158.111 83.313 157.5 83.3155 156.913 83.1778C156.326 83.0402 155.78 82.7664 155.32 82.3786C155.139 82.2588 154.999 82.0865 154.919 81.885C154.839 81.6835 154.823 81.4623 154.872 81.2513C154.922 81.0403 155.035 80.8495 155.197 80.7046C155.358 80.5596 155.56 80.4675 155.775 80.4405C156.361 80.2996 156.972 80.2978 157.558 80.4354C158.145 80.573 158.691 80.846 159.152 81.2326C159.333 81.3525 159.473 81.5247 159.553 81.7263C159.633 81.9278 159.649 82.1489 159.599 82.3599C159.55 82.5709 159.436 82.7617 159.275 82.9067C159.114 83.0516 158.912 83.1438 158.696 83.1707Z"
            fill="#5793CE" />
        <path d="M166.744 58.2471L159.068 56.4512L155.308 72.466L162.984 74.2619L166.744 58.2471Z"
            fill="#5793CE" />
        <path
            d="M156.788 72.7218L155.978 76.1767C156.656 76.6649 157.425 77.0145 158.239 77.2054C159.053 77.3963 159.897 77.4247 160.722 77.289L161.532 73.9183C160.863 73.4113 160.097 73.044 159.282 72.8385C158.467 72.6329 157.619 72.5932 156.788 72.7218Z"
            fill="#396CAA" />
        <path
            d="M161.482 75.5701C160.54 75.8027 159.556 75.8095 158.612 75.5898C157.667 75.3701 156.787 74.9302 156.045 74.3061C155.734 74.1236 155.49 73.8463 155.348 73.515C155.206 73.1836 155.175 72.8156 155.258 72.465C155.341 72.1144 155.534 71.7995 155.81 71.5667C156.085 71.3339 156.428 71.1953 156.788 71.1714C157.732 70.9464 158.715 70.9451 159.659 71.1676C160.603 71.39 161.481 71.8299 162.224 72.4522C162.529 72.6377 162.766 72.9144 162.903 73.2427C163.04 73.5711 163.069 73.9343 162.987 74.2803C162.904 74.6263 162.714 74.9374 162.444 75.1691C162.174 75.4008 161.837 75.5411 161.482 75.5701Z"
            fill="#5793CE" />
        <path
            d="M156.704 80.744C156.694 80.8432 156.654 80.9372 156.591 81.0141C156.527 81.091 156.442 81.1474 156.346 81.1763C156.251 81.2051 156.149 81.205 156.053 81.1761C155.957 81.1472 155.873 81.0906 155.809 81.0136C155.614 80.81 155.47 80.5636 155.388 80.2944C155.306 80.0252 155.288 79.7405 155.336 79.4632C155.454 78.9576 155.86 78.8396 156.231 79.1935C156.434 79.3915 156.584 79.6373 156.666 79.9083C156.749 80.1793 156.762 80.4667 156.704 80.744Z"
            fill="#D4ECFF" />
        <path d="M172.833 78.6305L168.099 77.5229L165.703 87.7291L170.437 88.8367L172.833 78.6305Z"
            fill="#5793CE" />
        <path
            d="M169.517 89.6595C168.932 89.8088 168.32 89.8148 167.732 89.6768C167.144 89.5389 166.598 89.2612 166.141 88.8674C165.331 88.1259 165.533 87.1821 166.597 86.9293C167.182 86.7883 167.793 86.7866 168.379 86.9242C168.966 87.0617 169.512 87.3348 169.973 87.7214C170.784 88.4798 170.514 89.3224 169.517 89.6595Z"
            fill="#5793CE" />
        <path d="M177.648 64.7393L169.972 62.9434L166.212 78.9582L173.888 80.7541L177.648 64.7393Z"
            fill="#5793CE" />
        <path
            d="M167.711 79.2102L166.901 82.5809C167.578 83.0707 168.347 83.4213 169.161 83.6123C169.975 83.8032 170.82 83.8307 171.645 83.6932L172.455 80.2382C171.073 79.2816 169.367 78.9119 167.711 79.2102Z"
            fill="#396CAA" />
        <path
            d="M172.405 82.0754C171.461 82.3003 170.478 82.3016 169.534 82.0792C168.59 81.8568 167.712 81.4168 166.968 80.7946C165.669 79.5811 166.006 78.1823 167.711 77.6599C168.652 77.4337 169.633 77.4317 170.574 77.6543C171.516 77.8768 172.391 78.3175 173.131 78.9407C173.441 79.1223 173.685 79.3981 173.828 79.728C173.97 80.0579 174.003 80.4245 173.922 80.7745C173.841 81.1245 173.65 81.4394 173.377 81.6734C173.104 81.9075 172.763 82.0483 172.405 82.0754Z"
            fill="#5793CE" />
        <path
            d="M167.627 87.2325C167.616 87.3317 167.577 87.4257 167.513 87.5026C167.45 87.5795 167.365 87.636 167.269 87.6648C167.174 87.6936 167.071 87.6936 166.976 87.6646C166.88 87.6357 166.795 87.5792 166.732 87.5022C166.537 87.2985 166.393 87.0522 166.311 86.7829C166.229 86.5137 166.211 86.229 166.259 85.9517C166.377 85.4461 166.783 85.3281 167.154 85.682C167.348 85.8857 167.493 86.1321 167.575 86.4013C167.657 86.6705 167.675 86.9552 167.627 87.2325Z"
            fill="#D4ECFF" />
        <path d="M183.867 85.0709L179.133 83.9634L176.737 94.1695L181.471 95.2771L183.867 85.0709Z"
            fill="#5793CE" />
        <path
            d="M180.643 96.0635C180.058 96.2128 179.446 96.2188 178.858 96.0808C178.27 95.9429 177.724 95.6652 177.267 95.2714C177.083 95.1549 176.941 94.9842 176.859 94.783C176.777 94.5818 176.76 94.3602 176.81 94.1489C176.86 93.9376 176.975 93.7471 177.138 93.604C177.302 93.4608 177.506 93.3721 177.723 93.3501C178.307 93.2028 178.917 93.1963 179.505 93.3311C180.092 93.4659 180.638 93.7382 181.099 94.1254C181.825 94.9175 181.622 95.777 180.643 96.0635Z"
            fill="#5793CE" />
        <path d="M188.682 71.1797L181.006 69.3838L177.246 85.3986L184.922 87.1945L188.682 71.1797Z"
            fill="#5793CE" />
        <path
            d="M178.752 85.6482L177.942 89.0188C178.619 89.5087 179.388 89.8593 180.202 90.0503C181.016 90.2412 181.861 90.2687 182.686 90.1311L183.496 86.6762C182.114 85.7196 180.408 85.3499 178.752 85.6482Z"
            fill="#396CAA" />
        <path
            d="M183.446 88.5133C182.502 88.7383 181.519 88.7396 180.575 88.5171C179.631 88.2947 178.753 87.8548 178.009 87.2325C176.71 86.019 177.047 84.6202 178.752 84.0978C179.693 83.8729 180.673 83.8717 181.615 84.0942C182.556 84.3166 183.432 84.7566 184.172 85.3786C184.482 85.5602 184.726 85.836 184.869 86.1659C185.011 86.4958 185.044 86.8624 184.963 87.2124C184.882 87.5624 184.691 87.8773 184.418 88.1114C184.145 88.3454 183.804 88.4862 183.446 88.5133Z"
            fill="#5793CE" />
        <path
            d="M178.668 93.6705C178.667 93.7747 178.633 93.8758 178.57 93.9591C178.507 94.0425 178.42 94.1036 178.32 94.1337C178.22 94.1639 178.113 94.1613 178.015 94.1265C177.916 94.0917 177.832 94.0264 177.773 93.9402C177.57 93.7422 177.42 93.4964 177.338 93.2254C177.255 92.9544 177.242 92.667 177.3 92.3897C177.419 91.8841 177.824 91.7661 178.195 92.12C178.39 92.3237 178.534 92.57 178.616 92.8393C178.698 93.1085 178.716 93.3932 178.668 93.6705Z"
            fill="#D4ECFF" />
        <path
            d="M107.508 278.837L2.00917 218.047C-0.96216 216.362 -0.590744 213.312 2.8533 211.306L74.6886 169.931C76.4537 168.947 78.4259 168.389 80.4463 168.304C82.4667 168.219 84.4788 168.609 86.3206 169.443L191.82 230.249C194.791 231.935 194.42 234.968 190.976 236.99L119.14 278.365C117.372 279.344 115.4 279.896 113.38 279.978C111.361 280.06 109.35 279.669 107.508 278.837Z"
            fill="#00001C" />
        <path
            d="M216.519 122.557L111.037 61.7503C110.506 61.4264 109.912 61.2197 109.295 61.1442C108.677 61.0686 108.051 61.1259 107.458 61.3122H107.272L103.456 62.7784L106.833 64.4637V64.6491L89.5958 142.798C88.7348 146.708 90.4568 151.224 93.445 152.91L196.429 212.25L196.074 216.598L200.244 214.913C201.031 214.478 201.708 213.87 202.223 213.133C202.738 212.397 203.078 211.553 203.215 210.666L220.402 132.601C221.162 128.843 219.473 124.276 216.519 122.557Z"
            fill="#173D7A" />
        <path
            d="M216.519 122.557L111.037 61.7503C110.506 61.4264 109.912 61.2197 109.295 61.1442C108.677 61.0686 108.051 61.1259 107.458 61.3122H107.272L103.456 62.7784L106.833 64.4637V64.6491L95.4541 116.17L147.081 156.314L219.862 126.753C219.246 125.022 218.07 123.546 216.519 122.557Z"
            fill="#396CAA" />
        <path
            d="M212.552 134.556L220.571 131.186C220.661 129.69 220.417 128.192 219.856 126.802C219.296 125.412 218.433 124.163 217.329 123.147L204.617 128.489L212.552 134.556Z"
            fill="#274F89" />
        <path
            d="M192.461 216.261L86.8776 155.454C83.8894 153.769 82.1674 149.185 83.0284 145.343L100.215 67.194C101.076 63.284 104.199 61.5144 107.17 63.2335L212.72 124.023C215.708 125.708 217.43 130.309 216.569 134.135L199.332 212.351C198.471 216.21 195.348 217.98 192.461 216.261Z"
            fill="#D4ECFF" />
        <path
            d="M190.08 210.447L90.8786 153.365C89.4398 152.328 88.3382 150.891 87.7108 149.234C87.0835 147.577 86.958 145.772 87.3501 144.045L103.068 72.469C103.861 68.8961 106.714 67.2782 109.449 68.8455L208.651 126.062C210.09 127.099 211.192 128.536 211.819 130.193C212.446 131.85 212.572 133.654 212.18 135.382L196.445 206.823C195.669 210.396 192.815 212.031 190.08 210.447Z"
            fill="white" />
        <path
            d="M190.08 210.447L90.8786 153.365C89.4398 152.328 88.3382 150.891 87.7108 149.234C87.0835 147.577 86.958 145.772 87.3501 144.045L103.068 72.469C103.861 68.8961 106.714 67.2782 109.449 68.8455L208.651 126.062C210.09 127.099 211.192 128.536 211.819 130.193C212.446 131.85 212.572 133.654 212.18 135.382L196.445 206.823C195.669 210.396 192.815 212.031 190.08 210.447Z"
            fill="url(#paint0_linear)" />
        <path
            d="M193.829 218.907L179.411 217.003L86.3205 163.359C84.4786 162.525 82.4665 162.136 80.4461 162.22C78.4258 162.305 76.4536 162.863 74.6884 163.847L8.72828 201.835L0 200.689V205.61C0.00458914 206.255 0.194763 206.886 0.547914 207.427C0.901064 207.967 1.40234 208.396 1.99214 208.66L107.508 269.484C109.35 270.317 111.362 270.707 113.382 270.622C115.403 270.537 117.375 269.98 119.14 268.995L190.975 227.62C191.76 227.286 192.44 226.746 192.942 226.058C193.444 225.37 193.751 224.558 193.829 223.71V218.907Z"
            fill="#173D7A" />
        <path
            d="M123.884 185.015L117.266 181.189H44.5699L8.72828 201.835L0 200.689V205.61C0.00458914 206.255 0.194763 206.886 0.547914 207.427C0.901064 207.967 1.40234 208.396 1.99214 208.66L107.508 269.484C109.365 270.418 111.448 270.81 113.518 270.613L123.884 185.015Z"
            fill="#396CAA" />
        <path
            d="M3.8661 201.194L0 200.689V205.61C0.00458914 206.255 0.194763 206.886 0.547914 207.427C0.901064 207.967 1.40234 208.396 1.99214 208.66L3.84922 209.739L3.8661 201.194Z"
            fill="#5793CE" />
        <path
            d="M108.572 269.972C111.827 271.029 115.363 270.812 118.465 269.366V258.344H108.572V269.972Z"
            fill="#274F89" />
        <path
            d="M107.508 264.596L2.00917 203.756C-0.96216 202.071 -0.590744 199.02 2.8533 197.015L74.6886 155.657C76.4537 154.672 78.4259 154.115 80.4463 154.03C82.4667 153.945 84.4788 154.335 86.3206 155.168L191.82 215.975C194.791 217.66 194.42 220.693 190.976 222.716L119.14 264.074C117.376 265.06 115.406 265.621 113.386 265.712C111.367 265.802 109.354 265.42 107.508 264.596Z"
            fill="url(#paint1_linear)" />
        <path
            d="M190.975 220.879L119.14 262.27C117.372 263.249 115.4 263.801 113.38 263.883C111.36 263.965 109.35 263.574 107.508 262.742L2.00891 201.953C1.16714 201.514 0.5089 200.791 0.151833 199.913C-0.0618632 200.67 0.00901265 201.478 0.351099 202.186C0.693185 202.894 1.28285 203.452 2.00891 203.756L107.508 264.596C109.35 265.428 111.36 265.819 113.38 265.737C115.4 265.655 117.372 265.103 119.14 264.124L190.975 222.733C193.288 221.401 194.217 219.598 193.676 218.047C193.138 219.279 192.181 220.282 190.975 220.879Z"
            fill="white" />
        <path
            d="M46.8826 183.7L42.1049 180.953C41.7166 180.734 41.7672 180.347 42.223 180.094L47.8449 176.841C48.0784 176.725 48.3355 176.665 48.5962 176.665C48.8569 176.665 49.114 176.725 49.3475 176.841L54.1252 179.588C54.4966 179.807 54.446 180.195 54.0071 180.448L48.3683 183.7C48.137 183.813 47.883 183.872 47.6254 183.872C47.3679 183.872 47.1139 183.813 46.8826 183.7Z"
            fill="#173D7A" />
        <path
            d="M54.2606 187.863L49.4829 185.116C49.0946 184.897 49.1452 184.509 49.5842 184.257L55.223 181.004C55.4542 180.891 55.7083 180.832 55.9658 180.832C56.2233 180.832 56.4774 180.891 56.7086 181.004L61.4864 183.7C61.8747 183.92 61.824 184.307 61.3851 184.56L55.7125 187.813C55.4896 187.928 55.2435 187.993 54.9923 188.002C54.7411 188.011 54.4912 187.963 54.2606 187.863Z"
            fill="#173D7A" />
        <path
            d="M61.6216 192.127L56.8438 189.38C56.4724 189.161 56.523 188.773 56.962 188.521L62.5839 185.268C62.8173 185.152 63.0745 185.092 63.3351 185.092C63.5958 185.092 63.853 185.152 64.0864 185.268L68.8642 188.015C69.2356 188.234 69.2018 188.622 68.746 188.874L63.1241 192.127C62.8907 192.243 62.6335 192.303 62.3728 192.303C62.1121 192.303 61.855 192.243 61.6216 192.127Z"
            fill="#173D7A" />
        <path
            d="M71.8181 188.605L67.0404 185.858C66.669 185.639 66.7027 185.251 67.1585 184.998L71.8857 182.268C72.1169 182.155 72.371 182.096 72.6285 182.096C72.886 182.096 73.1401 182.155 73.3713 182.268L78.1491 185.015C78.5374 185.234 78.4867 185.622 78.0478 185.875L73.3207 188.605C73.0872 188.721 72.8301 188.781 72.5694 188.781C72.3087 188.781 72.0516 188.721 71.8181 188.605Z"
            fill="#173D7A" />
        <path
            d="M79.1962 192.852L74.4184 190.105C74.0301 189.886 74.0808 189.498 74.5197 189.245L79.2468 186.515C79.4803 186.399 79.7374 186.339 79.9981 186.339C80.2588 186.339 80.5159 186.399 80.7494 186.515L85.5271 189.262C85.8986 189.481 85.8479 189.869 85.409 190.122L80.6819 192.852C80.4506 192.965 80.1965 193.024 79.939 193.024C79.6815 193.024 79.4274 192.965 79.1962 192.852Z"
            fill="#173D7A" />
        <path
            d="M86.5571 197.183L81.7793 194.436C81.4079 194.217 81.4586 193.829 81.8975 193.576L86.6246 190.846C86.8559 190.733 87.11 190.674 87.3675 190.674C87.625 190.674 87.8791 190.733 88.1103 190.846L92.8543 193.458C93.2426 193.678 93.1919 194.065 92.753 194.318L88.0259 197.048C87.8072 197.18 87.5615 197.261 87.307 197.284C87.0526 197.308 86.7962 197.273 86.5571 197.183Z"
            fill="#173D7A" />
        <path
            d="M93.9345 201.363L89.1567 198.599C88.7684 198.38 88.8191 197.992 89.258 197.739L94.002 195.009C94.2332 194.896 94.4873 194.837 94.7448 194.837C95.0023 194.837 95.2564 194.896 95.4877 195.009L100.265 197.756C100.654 197.975 100.603 198.363 100.147 198.616L95.4201 201.346C95.1902 201.462 94.9368 201.523 94.6793 201.526C94.4218 201.529 94.167 201.473 93.9345 201.363Z"
            fill="#173D7A" />
        <path
            d="M101.295 205.61L96.5342 202.846C96.1459 202.627 96.1965 202.239 96.6354 201.986L101.363 199.256C101.596 199.14 101.853 199.08 102.114 199.08C102.375 199.08 102.632 199.14 102.865 199.256L107.626 202.003C108.014 202.222 107.964 202.61 107.525 202.863L102.798 205.61C102.564 205.726 102.307 205.786 102.046 205.786C101.786 205.786 101.528 205.726 101.295 205.61Z"
            fill="#173D7A" />
        <path
            d="M108.673 209.857L103.895 207.093C103.524 206.874 103.558 206.486 104.014 206.233L108.741 203.52C108.972 203.407 109.226 203.348 109.483 203.348C109.741 203.348 109.995 203.407 110.226 203.52L115.004 206.267C115.392 206.486 115.342 206.874 114.903 207.127L110.176 209.857C109.942 209.973 109.685 210.033 109.424 210.033C109.164 210.033 108.907 209.973 108.673 209.857Z"
            fill="#173D7A" />
        <path
            d="M116.051 214.036L111.273 211.272C110.885 211.053 110.935 210.683 111.374 210.413L116.101 207.7C116.335 207.584 116.592 207.523 116.853 207.523C117.113 207.523 117.37 207.584 117.604 207.7L122.382 210.447C122.753 210.666 122.702 211.053 122.263 211.306L117.536 214.036C117.305 214.149 117.051 214.208 116.794 214.208C116.536 214.208 116.282 214.149 116.051 214.036Z"
            fill="#173D7A" />
        <path
            d="M123.412 218.351L118.634 215.604C118.262 215.368 118.313 214.997 118.752 214.727L123.479 212.014C123.713 211.898 123.97 211.838 124.23 211.838C124.491 211.838 124.748 211.898 124.982 212.014L129.743 214.761C130.131 214.98 130.08 215.368 129.641 215.621L124.931 218.283C124.701 218.413 124.443 218.486 124.179 218.498C123.915 218.509 123.652 218.459 123.412 218.351Z"
            fill="#173D7A" />
        <path
            d="M130.789 222.598L126.011 219.851C125.623 219.632 125.674 219.244 126.112 218.991L130.857 216.261C131.088 216.148 131.342 216.089 131.599 216.089C131.857 216.089 132.111 216.148 132.342 216.261L137.12 219.008C137.508 219.227 137.458 219.615 137.002 219.868L132.275 222.463C132.054 222.598 131.805 222.68 131.548 222.703C131.29 222.727 131.03 222.69 130.789 222.598Z"
            fill="#173D7A" />
        <path
            d="M138.15 226.845L133.372 224.148C132.984 223.929 133.034 223.542 133.473 223.289L138.2 220.559C138.434 220.443 138.691 220.383 138.952 220.383C139.212 220.383 139.47 220.443 139.703 220.559L144.464 223.306C144.852 223.542 144.802 223.912 144.363 224.182L139.635 226.895C139.4 227.001 139.144 227.051 138.887 227.042C138.629 227.033 138.377 226.966 138.15 226.845Z"
            fill="#173D7A" />
        <path
            d="M82.7242 186.599L77.9634 183.852C77.5751 183.633 77.6257 183.245 78.0646 182.993L82.7242 180.33C82.9577 180.214 83.2148 180.154 83.4755 180.154C83.7362 180.154 83.9933 180.214 84.2268 180.33L88.9877 183.077C89.376 183.313 89.3253 183.684 88.8864 183.953L84.1592 186.667C83.9298 186.762 83.6822 186.805 83.4342 186.793C83.1862 186.781 82.9437 186.715 82.7242 186.599Z"
            fill="#396CAA" />
        <path
            d="M75.1948 182.285L70.417 179.538C70.0456 179.319 70.0963 178.931 70.5352 178.678L75.2623 175.948C75.4936 175.835 75.7477 175.776 76.0052 175.776C76.2627 175.776 76.5168 175.835 76.748 175.948L81.5258 178.645C81.9141 178.864 81.8634 179.251 81.4245 179.504L76.6973 182.217C76.4692 182.344 76.2147 182.416 75.954 182.427C75.6933 182.439 75.4334 182.39 75.1948 182.285Z"
            fill="#396CAA" />
        <path
            d="M67.6988 177.97L57.4004 172.038C57.029 171.819 57.0797 171.431 57.5186 171.179L62.2457 168.448C62.477 168.335 62.7311 168.276 62.9886 168.276C63.2461 168.276 63.5001 168.335 63.7314 168.448L74.0129 174.364C74.4012 174.583 74.3505 174.97 73.9116 175.223L69.2182 177.903C68.9879 178.032 68.7304 178.105 68.4665 178.117C68.2026 178.129 67.9397 178.079 67.6988 177.97Z"
            fill="#173D7A" />
        <path
            d="M72.9496 172.712L64.5083 167.909C64.1369 167.69 64.1876 167.302 64.6265 167.05L69.3536 164.319C69.5849 164.206 69.839 164.147 70.0965 164.147C70.354 164.147 70.6081 164.206 70.8393 164.319L79.2806 169.139C79.652 169.359 79.6013 169.746 79.1624 169.999L74.4353 172.729C74.2028 172.84 73.948 172.896 73.6905 172.893C73.433 172.89 73.1796 172.828 72.9496 172.712Z"
            fill="#173D7A" />
        <path
            d="M90.0516 190.846L85.2738 188.099C84.8855 187.88 84.9362 187.493 85.392 187.24L90.1191 184.51C90.3503 184.396 90.6044 184.338 90.8619 184.338C91.1194 184.338 91.3735 184.396 91.6048 184.51L96.3825 187.257C96.7708 187.493 96.7202 187.863 96.2812 188.133L91.5372 190.846C91.306 190.959 91.0519 191.018 90.7944 191.018C90.5369 191.018 90.2828 190.959 90.0516 190.846Z"
            fill="#396CAA" />
        <path
            d="M97.4122 195.093L92.6513 192.346C92.263 192.127 92.3137 191.739 92.7526 191.487L97.4798 188.756C97.7132 188.641 97.9703 188.58 98.231 188.58C98.4917 188.58 98.7488 188.641 98.9823 188.756L103.76 191.52C104.131 191.739 104.081 192.127 103.642 192.38L98.9148 195.093C98.6813 195.209 98.4242 195.269 98.1635 195.269C97.9028 195.269 97.6457 195.209 97.4122 195.093Z"
            fill="#173D7A" />
        <path
            d="M104.79 199.34L100.012 196.593C99.6406 196.374 99.6744 195.986 100.13 195.734L104.857 193.003C105.089 192.89 105.343 192.832 105.6 192.832C105.858 192.832 106.112 192.89 106.343 193.003L111.121 195.767C111.509 195.986 111.458 196.374 111.019 196.627L106.36 199.273C106.123 199.41 105.857 199.488 105.583 199.5C105.31 199.512 105.037 199.457 104.79 199.34Z"
            fill="#173D7A" />
        <path
            d="M112.168 203.587L107.39 200.84C107.002 200.621 107.052 200.234 107.491 199.981L112.219 197.251C112.452 197.135 112.709 197.074 112.97 197.074C113.23 197.074 113.488 197.135 113.721 197.251L118.499 200.014C118.87 200.234 118.836 200.621 118.381 200.874L113.654 203.604C113.421 203.715 113.166 203.771 112.909 203.768C112.651 203.765 112.398 203.703 112.168 203.587Z"
            fill="#173D7A" />
        <path
            d="M119.528 207.834L114.801 205.087C114.413 204.868 114.464 204.481 114.903 204.228L119.63 201.498C119.863 201.382 120.12 201.322 120.381 201.322C120.642 201.322 120.899 201.382 121.132 201.498L125.893 204.245C126.281 204.464 126.231 204.851 125.792 205.104L121.065 207.834C120.827 207.956 120.564 208.019 120.297 208.019C120.029 208.019 119.766 207.956 119.528 207.834Z"
            fill="#173D7A" />
        <path
            d="M126.906 212.081L122.128 209.334C121.74 209.115 121.791 208.728 122.246 208.475L126.974 205.745C127.205 205.632 127.459 205.573 127.716 205.573C127.974 205.573 128.228 205.632 128.459 205.745L133.237 208.492C133.625 208.711 133.575 209.098 133.136 209.351L128.392 212.081C128.16 212.195 127.906 212.253 127.649 212.253C127.391 212.253 127.137 212.195 126.906 212.081Z"
            fill="#173D7A" />
        <path
            d="M134.267 216.328L129.506 213.581C129.118 213.362 129.168 212.975 129.607 212.722L134.334 209.991C134.568 209.876 134.825 209.815 135.086 209.815C135.346 209.815 135.603 209.876 135.837 209.991L140.615 212.739C140.986 212.958 140.935 213.345 140.496 213.598L135.769 216.328C135.536 216.444 135.279 216.504 135.018 216.504C134.757 216.504 134.5 216.444 134.267 216.328Z"
            fill="#173D7A" />
        <path
            d="M141.645 220.592L136.867 217.828C136.495 217.609 136.546 217.222 136.985 216.969L141.712 214.239C141.943 214.125 142.197 214.067 142.455 214.067C142.712 214.067 142.966 214.125 143.198 214.239L147.975 216.986C148.364 217.205 148.313 217.592 147.874 217.845L143.147 220.575C142.915 220.694 142.658 220.757 142.398 220.76C142.137 220.763 141.879 220.705 141.645 220.592Z"
            fill="#173D7A" />
        <path
            d="M149.022 224.839L144.245 222.075C143.856 221.856 143.907 221.469 144.346 221.216L149.073 218.502C149.306 218.387 149.564 218.326 149.824 218.326C150.085 218.326 150.342 218.387 150.576 218.502L155.32 221.182C155.691 221.401 155.657 221.789 155.201 222.042L150.474 224.772C150.253 224.89 150.007 224.958 149.756 224.97C149.505 224.981 149.254 224.937 149.022 224.839Z"
            fill="#173D7A" />
        <path
            d="M162.072 232.39L151.656 226.39C151.267 226.154 151.318 225.783 151.757 225.513L156.484 222.8C156.718 222.684 156.975 222.624 157.235 222.624C157.496 222.624 157.753 222.684 157.987 222.8L168.403 228.8C168.792 229.019 168.741 229.407 168.302 229.659L163.558 232.39C163.327 232.503 163.073 232.562 162.815 232.562C162.558 232.562 162.304 232.503 162.072 232.39Z"
            fill="#173D7A" />
        <path
            d="M176.473 224.148L167.678 219.092C167.306 218.873 167.34 218.486 167.796 218.233L172.523 215.52C172.754 215.406 173.008 215.348 173.266 215.348C173.523 215.348 173.777 215.406 174.009 215.52L182.804 220.576C183.193 220.811 183.142 221.182 182.703 221.452L177.959 224.165C177.727 224.276 177.472 224.332 177.214 224.329C176.957 224.326 176.703 224.264 176.473 224.148Z"
            fill="#173D7A" />
        <path
            d="M102.984 190.02L98.2226 187.257C97.8343 187.037 97.885 186.65 98.3239 186.397L102.984 183.7C103.217 183.585 103.474 183.524 103.735 183.524C103.995 183.524 104.253 183.585 104.486 183.7L109.264 186.448C109.635 186.667 109.585 187.054 109.146 187.307L104.419 190.037C104.193 190.14 103.947 190.192 103.699 190.189C103.451 190.186 103.207 190.128 102.984 190.02Z"
            fill="#173D7A" />
        <path
            d="M95.4031 185.655L90.6253 182.908C90.2539 182.689 90.2877 182.302 90.7435 182.049L95.4706 179.319C95.7019 179.206 95.956 179.147 96.2135 179.147C96.471 179.147 96.725 179.206 96.9563 179.319L101.734 182.015C102.122 182.234 102.072 182.622 101.633 182.875L96.9056 185.605C96.6761 185.729 96.421 185.798 96.1603 185.806C95.8996 185.815 95.6404 185.764 95.4031 185.655Z"
            fill="#173D7A" />
        <path
            d="M87.7893 181.307L83.0791 178.644C82.6908 178.425 82.7414 178.038 83.1804 177.785L87.9075 175.055C88.1409 174.939 88.3981 174.879 88.6588 174.879C88.9194 174.879 89.1766 174.939 89.41 175.055L94.1878 177.802C94.5592 178.038 94.5086 178.409 94.0696 178.678L89.3425 181.392C89.0958 181.503 88.8259 181.553 88.5556 181.539C88.2853 181.524 88.0225 181.445 87.7893 181.307Z"
            fill="#396CAA" />
        <path
            d="M80.2932 176.959L75.5155 174.195C75.144 173.976 75.1778 173.589 75.6336 173.336L80.3608 170.622C80.592 170.509 80.8461 170.45 81.1036 170.45C81.3611 170.45 81.6152 170.509 81.8464 170.622L86.6242 173.369C87.0125 173.589 86.9618 173.976 86.5229 174.229L81.7958 176.959C81.5623 177.075 81.3052 177.135 81.0445 177.135C80.7838 177.135 80.5267 177.075 80.2932 176.959Z"
            fill="#173D7A" />
        <path
            d="M110.327 194.268L105.55 191.52C105.178 191.284 105.212 190.914 105.668 190.644L110.395 187.931C110.626 187.818 110.88 187.759 111.138 187.759C111.395 187.759 111.649 187.818 111.881 187.931L116.658 190.678C117.047 190.897 116.996 191.284 116.557 191.537L111.83 194.268C111.596 194.383 111.339 194.444 111.079 194.444C110.818 194.444 110.561 194.383 110.327 194.268Z"
            fill="#173D7A" />
        <path
            d="M117.705 198.514L112.927 195.767C112.539 195.548 112.59 195.161 113.029 194.891L117.756 192.178C117.989 192.062 118.246 192.001 118.507 192.001C118.768 192.001 119.025 192.062 119.258 192.178L124.036 194.925C124.407 195.144 124.374 195.531 123.918 195.784L119.191 198.514C118.959 198.627 118.705 198.686 118.448 198.686C118.19 198.686 117.936 198.627 117.705 198.514Z"
            fill="#173D7A" />
        <path
            d="M125.066 202.761L120.305 200.014C119.917 199.795 119.967 199.408 120.406 199.155L125.134 196.425C125.367 196.309 125.624 196.249 125.885 196.249C126.146 196.249 126.403 196.309 126.636 196.425L131.397 199.172C131.785 199.391 131.735 199.778 131.296 200.048L126.619 202.694C126.385 202.829 126.121 202.905 125.851 202.917C125.581 202.929 125.311 202.875 125.066 202.761Z"
            fill="#173D7A" />
        <path
            d="M132.444 207.009L127.666 204.261C127.278 204.042 127.328 203.655 127.784 203.402L132.511 200.672C132.742 200.559 132.997 200.5 133.254 200.5C133.512 200.5 133.766 200.559 133.997 200.672L138.775 203.419C139.163 203.655 139.112 204.025 138.673 204.295L133.929 207.009C133.698 207.122 133.444 207.18 133.186 207.18C132.929 207.18 132.675 207.122 132.444 207.009Z"
            fill="#173D7A" />
        <path
            d="M139.805 211.256L135.061 208.508C134.672 208.289 134.723 207.902 135.162 207.649L139.889 204.919C140.122 204.803 140.38 204.743 140.64 204.743C140.901 204.743 141.158 204.803 141.391 204.919L146.169 207.683C146.541 207.902 146.49 208.289 146.051 208.542L141.324 211.256C141.088 211.374 140.828 211.436 140.564 211.436C140.3 211.436 140.04 211.374 139.805 211.256Z"
            fill="#173D7A" />
        <path
            d="M147.182 215.503L142.404 212.756C142.033 212.536 142.066 212.149 142.522 211.896L147.249 209.166C147.481 209.053 147.735 208.994 147.992 208.994C148.25 208.994 148.504 209.053 148.735 209.166L153.513 211.93C153.901 212.149 153.851 212.536 153.412 212.789L148.684 215.503C148.451 215.618 148.194 215.679 147.933 215.679C147.672 215.679 147.415 215.618 147.182 215.503Z"
            fill="#173D7A" />
        <path
            d="M154.56 219.75L149.782 217.003C149.394 216.784 149.445 216.396 149.883 216.143L154.611 213.413C154.844 213.297 155.101 213.237 155.362 213.237C155.623 213.237 155.88 213.297 156.113 213.413L160.891 216.177C161.262 216.396 161.229 216.784 160.773 217.036L156.046 219.767C155.813 219.877 155.558 219.933 155.301 219.93C155.043 219.927 154.79 219.865 154.56 219.75Z"
            fill="#173D7A" />
        <path
            d="M161.921 223.997L157.16 221.249C156.771 221.03 156.822 220.643 157.261 220.39L161.988 217.66C162.222 217.544 162.479 217.484 162.739 217.484C163 217.484 163.257 217.544 163.491 217.66L168.251 220.407C168.64 220.626 168.589 221.013 168.15 221.266L163.423 223.997C163.19 224.112 162.932 224.173 162.672 224.173C162.411 224.173 162.154 224.112 161.921 223.997Z"
            fill="#173D7A" />
        <path
            d="M169.298 228.244L164.52 225.497C164.132 225.277 164.183 224.89 164.639 224.637L169.366 221.907C169.597 221.794 169.851 221.735 170.109 221.735C170.366 221.735 170.62 221.794 170.851 221.907L175.629 224.654C176.017 224.873 175.967 225.261 175.528 225.513L170.784 228.244C170.553 228.357 170.298 228.416 170.041 228.416C169.783 228.416 169.529 228.357 169.298 228.244Z"
            fill="#173D7A" />
        <path
            d="M99.0839 179.504L94.3061 176.757C93.9178 176.538 93.9685 176.15 94.4074 175.898L99.1345 173.167C99.368 173.051 99.6251 172.991 99.8858 172.991C100.146 172.991 100.404 173.051 100.637 173.167L105.415 175.931C105.786 176.15 105.736 176.538 105.297 176.791L100.57 179.521C100.337 179.631 100.082 179.687 99.8248 179.684C99.5673 179.682 99.3138 179.62 99.0839 179.504Z"
            fill="#173D7A" />
        <path
            d="M91.7397 175.274L86.962 172.527C86.5905 172.308 86.6412 171.92 87.0801 171.667L91.8073 168.937C92.0385 168.824 92.2926 168.765 92.5501 168.765C92.8076 168.765 93.0617 168.824 93.2929 168.937L98.0707 171.684C98.459 171.903 98.4083 172.291 97.9694 172.544L93.2423 175.274C93.0088 175.39 92.7517 175.45 92.491 175.45C92.2303 175.45 91.9732 175.39 91.7397 175.274Z"
            fill="#173D7A" />
        <path
            d="M84.4125 171.061L79.6347 168.297C79.2464 168.077 79.2971 167.69 79.736 167.437L84.4125 164.707C84.646 164.591 84.9031 164.531 85.1638 164.531C85.4245 164.531 85.6816 164.591 85.915 164.707L90.6928 167.454C91.0642 167.673 91.0305 168.061 90.5746 168.313L85.8475 171.044C85.6242 171.152 85.3799 171.209 85.1319 171.212C84.8839 171.215 84.6382 171.163 84.4125 171.061Z"
            fill="#173D7A" />
        <path
            d="M77.069 166.847L72.3081 164.1C71.9198 163.864 71.9704 163.494 72.4094 163.224L77.1365 160.511C77.3699 160.395 77.6271 160.334 77.8878 160.334C78.1484 160.334 78.4056 160.395 78.639 160.511L83.3999 163.258C83.7882 163.477 83.7376 163.864 83.2986 164.117L78.5715 166.847C78.3381 166.963 78.0809 167.023 77.8202 167.023C77.5595 167.023 77.3024 166.963 77.069 166.847Z"
            fill="#173D7A" />
        <path
            d="M84.6155 162.482L79.8377 159.735C79.4663 159.516 79.5001 159.128 79.9559 158.859L81.5091 157.966C81.7426 157.85 81.9997 157.79 82.2604 157.79C82.5211 157.79 82.7782 157.85 83.0116 157.966L87.7894 160.662C88.1608 160.881 88.1102 161.269 87.6712 161.522L86.118 162.415C85.8898 162.541 85.6354 162.613 85.3747 162.625C85.114 162.637 84.8541 162.588 84.6155 162.482Z"
            fill="#173D7A" />
        <path
            d="M94.1876 167.993L89.4774 165.246C89.106 165.027 89.1397 164.639 89.5956 164.387L91.1656 163.477C91.3991 163.361 91.6562 163.301 91.9169 163.301C92.1776 163.301 92.4347 163.361 92.6682 163.477L97.4291 166.224C97.8174 166.443 97.7667 166.83 97.3278 167.083L95.7577 167.976C95.5169 168.106 95.2482 168.175 94.9747 168.178C94.7012 168.181 94.4311 168.118 94.1876 167.993Z"
            fill="#173D7A" />
        <path
            d="M101.498 172.207L96.7202 169.46C96.3319 169.24 96.3825 168.853 96.8215 168.6L98.3916 167.69C98.6228 167.577 98.8769 167.518 99.1344 167.518C99.3919 167.518 99.646 167.577 99.8772 167.69L104.672 170.386C105.06 170.606 105.01 170.993 104.571 171.246L103 172.139C102.772 172.266 102.518 172.337 102.257 172.349C101.996 172.361 101.737 172.312 101.498 172.207Z"
            fill="#173D7A" />
        <path
            d="M108.791 176.42L104.013 173.588C103.642 173.369 103.692 172.982 104.131 172.729L105.685 171.836C105.918 171.72 106.175 171.66 106.436 171.66C106.697 171.66 106.954 171.72 107.187 171.836L111.965 174.583C112.336 174.819 112.303 175.19 111.847 175.459L110.294 176.352C110.065 176.479 109.811 176.551 109.55 176.562C109.289 176.574 109.03 176.525 108.791 176.42Z"
            fill="#173D7A" />
        <path
            d="M116.101 180.616L111.324 177.869C110.935 177.65 110.986 177.263 111.425 177.01L112.995 176.116C113.229 176.001 113.486 175.94 113.746 175.94C114.007 175.94 114.264 176.001 114.498 176.116L119.259 178.864C119.647 179.083 119.596 179.47 119.157 179.723L117.587 180.633C117.355 180.744 117.1 180.8 116.842 180.797C116.585 180.794 116.331 180.732 116.101 180.616Z"
            fill="#173D7A" />
        <path
            d="M156.873 204.127L152.095 201.379C151.724 201.16 151.757 200.773 152.213 200.52L153.766 199.61C154 199.494 154.257 199.434 154.518 199.434C154.778 199.434 155.036 199.494 155.269 199.61L160.047 202.239C160.418 202.458 160.368 202.846 159.929 203.099L158.375 203.992C158.153 204.129 157.901 204.213 157.64 204.236C157.379 204.259 157.117 204.222 156.873 204.127Z"
            fill="#173D7A" />
        <path
            d="M164.183 208.34L159.405 205.61C159.016 205.391 159.067 205.003 159.506 204.75L161.076 203.857C161.307 203.744 161.561 203.685 161.819 203.685C162.076 203.685 162.331 203.744 162.562 203.857L167.34 206.604C167.728 206.84 167.677 207.211 167.238 207.48L165.668 208.374C165.434 208.482 165.179 208.535 164.921 208.529C164.664 208.523 164.411 208.458 164.183 208.34Z"
            fill="#173D7A" />
        <path
            d="M171.476 212.536L166.715 209.789C166.327 209.57 166.378 209.183 166.817 208.93L168.387 208.037C168.618 207.924 168.872 207.865 169.13 207.865C169.387 207.865 169.641 207.924 169.872 208.037L174.65 210.784C175.038 211.003 174.988 211.39 174.532 211.643L172.979 212.553C172.744 212.667 172.486 212.724 172.225 212.721C171.965 212.718 171.708 212.655 171.476 212.536Z"
            fill="#173D7A" />
        <path
            d="M178.786 216.75L174.009 214.036C173.62 213.817 173.671 213.43 174.127 213.177L175.68 212.267C175.913 212.151 176.171 212.091 176.431 212.091C176.692 212.091 176.949 212.151 177.183 212.267L181.943 215.014C182.332 215.233 182.281 215.621 181.842 215.873L180.272 216.784C180.038 216.891 179.783 216.945 179.525 216.939C179.268 216.933 179.015 216.868 178.786 216.75Z"
            fill="#173D7A" />
        <path
            d="M106.444 183.701L101.667 180.954C101.295 180.734 101.346 180.347 101.785 180.094L106.512 177.364C106.743 177.251 106.997 177.192 107.255 177.192C107.512 177.192 107.766 177.251 107.998 177.364L112.775 180.111C113.164 180.33 113.113 180.718 112.674 180.97L107.947 183.701C107.713 183.816 107.456 183.877 107.196 183.877C106.935 183.877 106.678 183.816 106.444 183.701Z"
            fill="#173D7A" />
        <path
            d="M113.822 187.998L109.044 185.251C108.656 185.032 108.707 184.644 109.146 184.391L113.89 181.661C114.121 181.548 114.375 181.489 114.633 181.489C114.89 181.489 115.144 181.548 115.375 181.661L120.153 184.408C120.541 184.627 120.491 185.015 120.035 185.268L115.308 187.998C115.077 188.111 114.823 188.17 114.565 188.17C114.307 188.17 114.053 188.111 113.822 187.998Z"
            fill="#173D7A" />
        <path
            d="M121.183 192.245L116.49 189.498C116.101 189.279 116.152 188.891 116.591 188.638L121.318 185.908C121.552 185.792 121.809 185.732 122.069 185.732C122.33 185.732 122.587 185.792 122.821 185.908L127.582 188.655C127.97 188.874 127.919 189.262 127.48 189.515L122.686 192.127C122.461 192.262 122.209 192.342 121.948 192.363C121.688 192.383 121.426 192.343 121.183 192.245Z"
            fill="#173D7A" />
        <path
            d="M128.561 196.509L123.783 193.812C123.412 193.593 123.445 193.206 123.901 192.953L128.628 190.223C128.86 190.11 129.114 190.051 129.371 190.051C129.629 190.051 129.883 190.11 130.114 190.223L134.892 192.97C135.28 193.189 135.229 193.576 134.79 193.829L129.996 196.442C129.776 196.557 129.534 196.624 129.286 196.635C129.038 196.647 128.79 196.604 128.561 196.509Z"
            fill="#173D7A" />
        <path
            d="M135.938 200.756L131.161 197.992C130.772 197.773 130.823 197.385 131.262 197.133L135.989 194.402C136.222 194.287 136.48 194.226 136.74 194.226C137.001 194.226 137.258 194.287 137.492 194.402L142.269 197.183C142.641 197.402 142.59 197.79 142.151 198.043L137.424 200.773C137.192 200.883 136.937 200.939 136.679 200.936C136.422 200.933 136.168 200.872 135.938 200.756Z"
            fill="#173D7A" />
        <path
            d="M143.299 205.003L138.522 202.239C138.15 202.02 138.201 201.632 138.64 201.379L143.367 198.666C143.6 198.55 143.857 198.49 144.118 198.49C144.379 198.49 144.636 198.55 144.869 198.666L149.63 201.413C150.019 201.632 149.968 202.02 149.529 202.273L144.802 205.003C144.568 205.119 144.311 205.179 144.051 205.179C143.79 205.179 143.533 205.119 143.299 205.003Z"
            fill="#173D7A" />
        <path
            d="M150.677 209.25L145.899 206.486C145.511 206.267 145.561 205.88 146 205.627L150.744 202.913C150.975 202.8 151.23 202.741 151.487 202.741C151.745 202.741 151.999 202.8 152.23 202.913L157.008 205.61C157.396 205.829 157.345 206.217 156.889 206.469L152.162 209.2C151.935 209.321 151.683 209.388 151.425 209.397C151.168 209.406 150.912 209.355 150.677 209.25Z"
            fill="#173D7A" />
        <path
            d="M158.038 213.497L153.277 210.75C152.889 210.514 152.939 210.143 153.378 209.874L158.105 207.16C158.339 207.044 158.596 206.984 158.857 206.984C159.117 206.984 159.374 207.044 159.608 207.16L164.369 209.907C164.757 210.126 164.706 210.514 164.267 210.767L159.54 213.497C159.307 213.613 159.05 213.673 158.789 213.673C158.528 213.673 158.271 213.613 158.038 213.497Z"
            fill="#173D7A" />
        <path
            d="M165.449 217.744L160.671 214.997C160.3 214.778 160.334 214.39 160.789 214.137L165.517 211.407C165.748 211.294 166.002 211.235 166.259 211.235C166.517 211.235 166.771 211.294 167.002 211.407L171.78 214.154C172.168 214.373 172.118 214.761 171.679 215.014L166.952 217.744C166.718 217.86 166.461 217.92 166.2 217.92C165.94 217.92 165.682 217.86 165.449 217.744Z"
            fill="#173D7A" />
        <path
            d="M64.3054 184.274L50.2422 176.184C49.8708 175.965 49.9215 175.577 50.3604 175.324L55.0875 172.594C55.3188 172.481 55.5729 172.422 55.8304 172.422C56.0879 172.422 56.3419 172.481 56.5732 172.594L70.6364 180.701C71.0247 180.92 70.974 181.307 70.5351 181.56L65.8417 184.223C65.6079 184.352 65.3467 184.424 65.0796 184.433C64.8126 184.442 64.5472 184.387 64.3054 184.274Z"
            fill="#173D7A" />
        <path
            d="M154.864 236.468L140.801 228.362C140.412 228.143 140.463 227.755 140.919 227.502L145.646 224.789C145.877 224.676 146.131 224.617 146.389 224.617C146.646 224.617 146.9 224.676 147.132 224.789L161.195 232.895C161.583 233.114 161.532 233.502 161.077 233.755L156.349 236.485C156.117 236.596 155.862 236.651 155.605 236.649C155.347 236.646 155.094 236.584 154.864 236.468Z"
            fill="#173D7A" />
        <path
            d="M125.387 228.867L120.609 226.12C120.221 225.901 120.271 225.514 120.71 225.261L126.349 222.008C126.582 221.892 126.84 221.832 127.1 221.832C127.361 221.832 127.618 221.892 127.851 222.008L132.612 224.755C133.001 224.991 132.95 225.362 132.511 225.632L126.872 228.867C126.641 228.98 126.387 229.039 126.129 229.039C125.872 229.039 125.618 228.98 125.387 228.867Z"
            fill="#173D7A" />
        <path
            d="M71.8522 198.009L64.1538 193.61C63.7655 193.391 63.8161 193.004 64.2551 192.751L69.8939 189.515C70.1273 189.399 70.3844 189.339 70.6451 189.339C70.9058 189.339 71.1629 189.399 71.3964 189.515L79.0948 193.813C79.4663 194.032 79.4325 194.419 78.9767 194.672L73.3548 197.925C73.1279 198.054 72.8741 198.129 72.6134 198.143C72.3527 198.158 72.0921 198.112 71.8522 198.009Z"
            fill="#173D7A" />
        <path
            d="M118.279 224.772L110.648 220.373C110.26 220.154 110.311 219.767 110.75 219.514L116.388 216.261C116.622 216.145 116.879 216.085 117.14 216.085C117.4 216.085 117.658 216.145 117.891 216.261L125.522 220.66C125.893 220.879 125.86 221.266 125.404 221.519L119.866 224.705C119.628 224.845 119.358 224.924 119.081 224.936C118.804 224.948 118.529 224.892 118.279 224.772Z"
            fill="#173D7A" />
        <path
            d="M82.4883 204.144L74.8574 199.745C74.4691 199.526 74.5197 199.138 74.9587 198.885L80.5975 195.633C80.8309 195.517 81.0881 195.457 81.3487 195.457C81.6094 195.457 81.8666 195.517 82.1 195.633L89.7309 200.031C90.1024 200.25 90.0686 200.638 89.6128 200.891L83.9909 204.127C83.7587 204.245 83.5023 204.308 83.2416 204.311C82.9809 204.314 82.7231 204.257 82.4883 204.144Z"
            fill="#173D7A" />
        <path
            d="M82.1503 195.599L115.325 214.727C115.747 214.963 115.747 215.351 115.325 215.587L109.584 218.957C109.353 219.071 109.099 219.129 108.842 219.129C108.584 219.129 108.33 219.071 108.099 218.957L74.9077 199.778L82.1503 195.599Z"
            fill="#173D7A" />
        <path
            d="M145.984 236.569L151.302 239.636C151.622 239.822 151.572 240.125 151.217 240.344L148.904 241.659C148.716 241.754 148.508 241.803 148.296 241.803C148.085 241.803 147.877 241.754 147.689 241.659L142.371 238.592C142.05 238.406 142.084 238.086 142.371 237.884L144.667 236.552C144.87 236.446 145.097 236.391 145.327 236.394C145.557 236.397 145.783 236.457 145.984 236.569Z"
            fill="#173D7A" />
        <path
            d="M138.555 232.289L143.873 235.356C144.177 235.524 144.143 235.845 143.772 236.064L141.476 237.378C141.286 237.477 141.074 237.529 140.86 237.529C140.645 237.529 140.434 237.477 140.243 237.378L134.925 234.328C134.621 234.142 134.655 233.822 135.027 233.62L137.323 232.289C137.513 232.19 137.724 232.138 137.939 232.138C138.153 232.138 138.365 232.19 138.555 232.289Z"
            fill="#173D7A" />
        <path
            d="M131.177 228.041L136.495 231.109C136.816 231.277 136.765 231.597 136.495 231.8L134.182 233.131C133.995 233.23 133.786 233.282 133.575 233.282C133.363 233.282 133.154 233.23 132.967 233.131L127.649 230.064C127.328 229.895 127.379 229.575 127.649 229.373L129.962 228.041C130.149 227.943 130.358 227.891 130.569 227.891C130.781 227.891 130.99 227.943 131.177 228.041Z"
            fill="#173D7A" />
        <path
            d="M142.624 229.946L147.942 232.996C148.246 233.182 148.212 233.502 147.942 233.704L145.629 235.035C145.439 235.134 145.227 235.186 145.013 235.186C144.798 235.186 144.587 235.134 144.396 235.035L139.095 231.968C138.775 231.8 138.808 231.479 139.095 231.26L141.391 229.946C141.582 229.847 141.793 229.795 142.008 229.795C142.222 229.795 142.433 229.847 142.624 229.946Z"
            fill="#173D7A" />
        <path
            d="M132.849 99.7208L125.809 95.6592C125.469 95.4398 125.203 95.1228 125.046 94.7499C124.889 94.377 124.849 93.9654 124.931 93.5694C124.948 93.4031 125.007 93.244 125.103 93.1071C125.199 92.9702 125.329 92.8602 125.479 92.7875C125.63 92.7148 125.797 92.6819 125.964 92.6919C126.131 92.7019 126.293 92.7545 126.434 92.8447L133.49 96.9063C133.824 97.1311 134.084 97.4495 134.237 97.8213C134.391 98.1931 134.43 98.6018 134.351 98.9961C134.33 99.1602 134.269 99.3164 134.172 99.4506C134.075 99.5848 133.946 99.6928 133.797 99.7648C133.648 99.8367 133.483 99.8704 133.317 99.8627C133.152 99.855 132.991 99.8063 132.849 99.7208Z"
            fill="url(#paint2_linear)" />
        <path
            d="M149.664 109.395L139.264 103.412C138.933 103.186 138.677 102.866 138.53 102.493C138.382 102.121 138.35 101.713 138.437 101.322C138.454 101.156 138.513 100.996 138.609 100.86C138.705 100.723 138.834 100.613 138.985 100.54C139.136 100.467 139.303 100.434 139.47 100.444C139.637 100.454 139.798 100.507 139.939 100.597L150.255 106.597C150.592 106.818 150.854 107.136 151.008 107.509C151.162 107.882 151.199 108.292 151.116 108.687C151.096 108.846 151.038 108.998 150.944 109.128C150.851 109.259 150.727 109.364 150.583 109.435C150.438 109.505 150.278 109.538 150.118 109.531C149.958 109.524 149.801 109.477 149.664 109.395Z"
            fill="url(#paint3_linear)" />
        <path
            d="M120.558 132.585L113.501 128.523C113.165 128.293 112.903 127.968 112.75 127.591C112.597 127.213 112.559 126.799 112.64 126.4C112.66 126.233 112.722 126.074 112.82 125.938C112.918 125.801 113.048 125.692 113.2 125.619C113.352 125.547 113.519 125.514 113.687 125.524C113.855 125.534 114.018 125.586 114.16 125.675L121.217 129.77C121.549 129.992 121.808 130.308 121.962 130.676C122.115 131.045 122.155 131.451 122.078 131.843C122.06 132.011 122.001 132.172 121.904 132.311C121.807 132.449 121.676 132.561 121.524 132.635C121.372 132.709 121.204 132.744 121.035 132.735C120.866 132.726 120.702 132.674 120.558 132.585Z"
            fill="url(#paint4_linear)" />
        <path
            d="M135.533 141.213L125.133 135.231C124.8 135.006 124.54 134.687 124.386 134.316C124.233 133.944 124.194 133.535 124.272 133.141C124.292 132.974 124.354 132.815 124.452 132.679C124.55 132.542 124.681 132.433 124.832 132.361C124.984 132.288 125.151 132.255 125.319 132.265C125.487 132.275 125.65 132.327 125.792 132.416L136.192 138.416C136.524 138.642 136.782 138.961 136.935 139.332C137.088 139.703 137.129 140.111 137.053 140.506C137.03 140.671 136.967 140.828 136.868 140.962C136.769 141.096 136.638 141.204 136.487 141.274C136.335 141.344 136.169 141.376 136.002 141.365C135.835 141.355 135.674 141.303 135.533 141.213Z"
            fill="url(#paint5_linear)" />
        <path
            d="M112.05 94.3783L107.643 91.8503C107.306 91.6287 107.043 91.3108 106.89 90.938C106.736 90.5652 106.699 90.1549 106.782 89.7605C106.799 89.5943 106.858 89.4352 106.954 89.2983C107.05 89.1614 107.18 89.0514 107.33 88.9787C107.481 88.906 107.648 88.8731 107.815 88.8831C107.982 88.8931 108.144 88.9457 108.285 89.0358L112.691 91.5807C113.028 91.8023 113.291 92.1202 113.444 92.493C113.598 92.8658 113.636 93.2761 113.552 93.6705C113.537 93.8376 113.479 93.9979 113.383 94.1354C113.287 94.273 113.156 94.3831 113.004 94.4547C112.852 94.5262 112.684 94.5569 112.517 94.5435C112.349 94.5301 112.188 94.4731 112.05 94.3783Z"
            fill="url(#paint6_linear)" />
        <path
            d="M125.623 108.872L112.117 101.103C111.78 100.886 111.516 100.571 111.363 100.2C111.209 99.8301 111.172 99.4217 111.256 99.0298C111.273 98.8636 111.332 98.7044 111.428 98.5676C111.524 98.4307 111.654 98.3207 111.804 98.248C111.955 98.1753 112.122 98.1424 112.289 98.1524C112.456 98.1624 112.618 98.215 112.759 98.3051L126.265 106.058C126.595 106.285 126.853 106.604 127.006 106.975C127.158 107.346 127.2 107.753 127.126 108.147C127.105 108.311 127.043 108.468 126.946 108.602C126.849 108.736 126.72 108.844 126.571 108.916C126.422 108.988 126.257 109.022 126.092 109.014C125.926 109.006 125.765 108.958 125.623 108.872Z"
            fill="url(#paint7_linear)" />
        <path
            d="M113.856 115.394L109.45 112.917C109.113 112.695 108.85 112.377 108.696 112.004C108.543 111.632 108.505 111.221 108.589 110.827C108.606 110.661 108.665 110.502 108.761 110.365C108.857 110.228 108.986 110.118 109.137 110.045C109.288 109.972 109.455 109.94 109.622 109.95C109.789 109.96 109.95 110.012 110.091 110.102L114.498 112.647C114.835 112.869 115.098 113.187 115.251 113.559C115.405 113.932 115.442 114.343 115.359 114.737C115.336 114.9 115.272 115.054 115.173 115.185C115.074 115.316 114.942 115.419 114.792 115.485C114.641 115.551 114.476 115.577 114.312 115.561C114.148 115.546 113.991 115.488 113.856 115.394Z"
            fill="url(#paint8_linear)" />
        <path
            d="M137.812 155.842L125.995 149.101C125.662 148.879 125.403 148.563 125.25 148.194C125.096 147.825 125.056 147.419 125.134 147.028C125.153 146.861 125.215 146.702 125.313 146.566C125.411 146.429 125.542 146.32 125.693 146.248C125.845 146.175 126.013 146.142 126.18 146.152C126.348 146.162 126.511 146.214 126.653 146.303L138.471 153.044C138.793 153.259 139.045 153.564 139.195 153.92C139.345 154.277 139.387 154.67 139.315 155.05C139.309 155.222 139.258 155.389 139.166 155.535C139.075 155.681 138.946 155.8 138.794 155.881C138.641 155.961 138.47 156 138.298 155.993C138.126 155.986 137.958 155.934 137.812 155.842Z"
            fill="url(#paint9_linear)" />
        <path
            d="M109.551 126.248L106.732 124.563C106.394 124.341 106.132 124.023 105.978 123.65C105.825 123.277 105.787 122.867 105.871 122.473C105.885 122.306 105.944 122.145 106.04 122.008C106.136 121.87 106.266 121.76 106.418 121.689C106.57 121.617 106.738 121.586 106.906 121.6C107.073 121.613 107.234 121.67 107.373 121.765L110.209 123.45C110.543 123.675 110.803 123.993 110.956 124.365C111.11 124.737 111.149 125.146 111.07 125.54C111.048 125.705 110.985 125.862 110.886 125.996C110.787 126.131 110.656 126.238 110.504 126.308C110.353 126.379 110.187 126.41 110.02 126.4C109.853 126.389 109.692 126.337 109.551 126.248Z"
            fill="url(#paint10_linear)" />
        <path
            d="M107.525 138.382L104.013 136.36C103.676 136.142 103.412 135.828 103.259 135.457C103.105 135.087 103.068 134.679 103.152 134.287C103.169 134.12 103.228 133.961 103.324 133.824C103.42 133.688 103.55 133.578 103.7 133.505C103.851 133.432 104.018 133.399 104.185 133.409C104.352 133.419 104.514 133.472 104.655 133.562L108.166 135.584C108.504 135.806 108.766 136.124 108.92 136.497C109.073 136.869 109.111 137.28 109.027 137.674C109.013 137.841 108.954 138.002 108.858 138.139C108.762 138.277 108.631 138.387 108.48 138.458C108.328 138.53 108.159 138.561 107.992 138.547C107.824 138.534 107.663 138.477 107.525 138.382Z"
            fill="url(#paint11_linear)" />
        <path
            d="M121.183 146.27L111.931 140.927C111.594 140.705 111.331 140.387 111.178 140.015C111.024 139.642 110.987 139.232 111.07 138.837C111.085 138.67 111.143 138.51 111.24 138.372C111.336 138.235 111.466 138.125 111.618 138.053C111.77 137.981 111.938 137.951 112.106 137.964C112.273 137.978 112.434 138.035 112.573 138.129L121.841 143.455C122.175 143.68 122.435 143.998 122.588 144.37C122.742 144.742 122.781 145.151 122.702 145.545C122.683 145.711 122.621 145.87 122.523 146.007C122.425 146.143 122.294 146.253 122.143 146.325C121.991 146.397 121.823 146.43 121.656 146.42C121.488 146.411 121.325 146.359 121.183 146.27Z"
            fill="url(#paint12_linear)" />
        <path
            d="M109.314 146.084L102.663 142.241C102.325 142.02 102.063 141.702 101.909 141.329C101.756 140.956 101.718 140.546 101.802 140.152C101.816 139.985 101.875 139.824 101.971 139.687C102.067 139.549 102.198 139.439 102.35 139.368C102.502 139.296 102.67 139.265 102.837 139.279C103.005 139.292 103.166 139.349 103.304 139.444L109.956 143.253C110.293 143.474 110.556 143.792 110.709 144.165C110.863 144.538 110.9 144.948 110.817 145.342C110.803 145.51 110.745 145.671 110.651 145.81C110.556 145.95 110.426 146.062 110.275 146.136C110.124 146.211 109.956 146.245 109.788 146.236C109.62 146.227 109.457 146.175 109.314 146.084Z"
            fill="url(#paint13_linear)" />
        <path
            d="M147.908 161.69L143.62 159.23C143.289 159.002 143.032 158.683 142.879 158.312C142.726 157.941 142.685 157.534 142.759 157.14C142.779 156.973 142.841 156.814 142.938 156.678C143.036 156.541 143.167 156.432 143.319 156.36C143.47 156.287 143.638 156.254 143.806 156.264C143.974 156.274 144.136 156.326 144.278 156.415L148.567 158.892C148.904 159.11 149.168 159.424 149.321 159.795C149.475 160.165 149.512 160.574 149.428 160.965C149.412 161.134 149.353 161.296 149.256 161.436C149.159 161.575 149.028 161.686 148.875 161.76C148.721 161.833 148.552 161.865 148.382 161.852C148.213 161.84 148.049 161.784 147.908 161.69Z"
            fill="url(#paint14_linear)" />
        <path
            d="M130.249 124.849L118.431 118.108C118.094 117.89 117.83 117.576 117.677 117.205C117.523 116.835 117.486 116.427 117.57 116.035C117.587 115.868 117.646 115.709 117.742 115.572C117.838 115.436 117.968 115.326 118.118 115.253C118.269 115.18 118.436 115.147 118.603 115.157C118.77 115.167 118.932 115.22 119.073 115.31L130.891 122.051C131.216 122.277 131.466 122.596 131.607 122.966C131.749 123.335 131.775 123.739 131.684 124.124C131.662 124.28 131.603 124.429 131.511 124.557C131.419 124.686 131.297 124.79 131.156 124.861C131.015 124.932 130.859 124.968 130.701 124.966C130.543 124.964 130.388 124.924 130.249 124.849Z"
            fill="url(#paint15_linear)" />
        <path
            d="M131.312 118.816L110.8 107.018C110.468 106.792 110.209 106.473 110.056 106.102C109.903 105.731 109.862 105.323 109.939 104.928C109.957 104.761 110.018 104.601 110.116 104.464C110.214 104.327 110.346 104.218 110.499 104.146C110.651 104.075 110.82 104.045 110.988 104.058C111.156 104.071 111.318 104.127 111.458 104.221L131.971 116.018C132.305 116.243 132.565 116.561 132.718 116.933C132.871 117.305 132.911 117.713 132.832 118.108C132.81 118.273 132.746 118.43 132.647 118.564C132.548 118.698 132.417 118.806 132.266 118.876C132.115 118.947 131.948 118.978 131.781 118.967C131.615 118.957 131.453 118.905 131.312 118.816Z"
            fill="url(#paint16_linear)" />
        <path
            d="M119.866 125.523L108.048 118.782C107.716 118.56 107.457 118.244 107.303 117.875C107.15 117.507 107.11 117.101 107.187 116.709C107.207 116.542 107.269 116.383 107.367 116.247C107.465 116.11 107.595 116.001 107.747 115.929C107.899 115.856 108.066 115.824 108.234 115.833C108.402 115.843 108.564 115.895 108.707 115.984L120.525 122.725C120.862 122.947 121.124 123.265 121.278 123.638C121.432 124.011 121.469 124.421 121.386 124.815C121.368 124.983 121.307 125.143 121.209 125.28C121.111 125.417 120.979 125.526 120.826 125.597C120.673 125.669 120.504 125.699 120.336 125.686C120.168 125.673 120.006 125.617 119.866 125.523Z"
            fill="url(#paint17_linear)" />
        <path
            d="M139.163 129.989L134.892 127.529C134.556 127.305 134.295 126.987 134.142 126.615C133.988 126.243 133.95 125.833 134.031 125.439C134.049 125.272 134.11 125.112 134.208 124.975C134.306 124.838 134.437 124.728 134.59 124.657C134.743 124.586 134.912 124.555 135.08 124.568C135.248 124.581 135.41 124.637 135.55 124.731L139.821 127.192C140.157 127.415 140.418 127.733 140.572 128.105C140.725 128.478 140.764 128.887 140.682 129.281C140.66 129.447 140.597 129.604 140.498 129.738C140.399 129.872 140.268 129.979 140.116 130.05C139.965 130.12 139.799 130.152 139.632 130.141C139.465 130.131 139.304 130.078 139.163 129.989Z"
            fill="url(#paint18_linear)" />
        <path
            d="M181.386 127.68L156.062 113.085C155.724 112.868 155.461 112.554 155.307 112.183C155.154 111.813 155.116 111.404 155.201 111.012C155.218 110.846 155.277 110.687 155.373 110.55C155.469 110.413 155.599 110.303 155.749 110.231C155.9 110.158 156.067 110.125 156.234 110.135C156.401 110.145 156.563 110.198 156.704 110.288L182.027 124.883C182.365 125.104 182.627 125.422 182.781 125.795C182.934 126.168 182.972 126.578 182.888 126.973C182.874 127.14 182.815 127.3 182.719 127.437C182.623 127.575 182.493 127.685 182.341 127.757C182.189 127.828 182.021 127.859 181.853 127.846C181.686 127.832 181.525 127.775 181.386 127.68Z"
            fill="url(#paint19_linear)" />
        <path
            d="M119.512 138.635L105.364 130.495C105.034 130.267 104.776 129.948 104.623 129.577C104.471 129.206 104.429 128.799 104.503 128.405C104.523 128.238 104.585 128.079 104.683 127.943C104.78 127.807 104.911 127.697 105.063 127.625C105.215 127.552 105.382 127.52 105.55 127.529C105.718 127.539 105.88 127.591 106.023 127.68L120.17 135.837C120.506 136.06 120.767 136.379 120.92 136.751C121.074 137.123 121.112 137.533 121.031 137.927C121.013 138.094 120.952 138.254 120.854 138.391C120.756 138.528 120.624 138.638 120.472 138.709C120.319 138.78 120.15 138.811 119.982 138.798C119.814 138.785 119.652 138.729 119.512 138.635Z"
            fill="url(#paint20_linear)" />
        <path
            d="M119.394 91.9682L108.994 85.9516C108.662 85.7252 108.403 85.4067 108.25 85.0353C108.097 84.664 108.056 84.256 108.133 83.8618C108.151 83.6944 108.212 83.5344 108.31 83.3974C108.408 83.2604 108.54 83.1509 108.692 83.0797C108.845 83.0085 109.014 82.978 109.182 82.991C109.35 83.004 109.512 83.0601 109.652 83.154L120.052 89.1369C120.386 89.3617 120.646 89.68 120.799 90.0518C120.952 90.4237 120.992 90.8324 120.913 91.2267C120.896 91.3947 120.836 91.5557 120.739 91.6942C120.642 91.8328 120.512 91.9445 120.36 92.0187C120.208 92.0929 120.039 92.1272 119.87 92.1184C119.701 92.1095 119.537 92.0579 119.394 91.9682Z"
            fill="url(#paint21_linear)" />
        <path
            d="M107.457 151.679L95.42 144.736C95.0761 144.52 94.8074 144.203 94.6503 143.829C94.4932 143.455 94.4554 143.042 94.5421 142.646C94.5589 142.48 94.6182 142.321 94.7141 142.184C94.8101 142.047 94.9396 141.937 95.0903 141.864C95.241 141.792 95.4079 141.759 95.5749 141.769C95.742 141.779 95.9037 141.831 96.0446 141.921L108.048 148.865C108.38 149.091 108.639 149.41 108.792 149.781C108.945 150.153 108.986 150.56 108.909 150.955C108.888 151.113 108.829 151.264 108.736 151.395C108.643 151.525 108.519 151.631 108.376 151.702C108.233 151.774 108.074 151.809 107.914 151.805C107.754 151.801 107.597 151.758 107.457 151.679Z"
            fill="url(#paint22_linear)" />
        <path
            d="M188.983 176.959L181.926 172.897C181.589 172.676 181.327 172.358 181.173 171.985C181.019 171.612 180.982 171.202 181.065 170.808C181.08 170.641 181.139 170.48 181.235 170.343C181.331 170.205 181.461 170.095 181.613 170.024C181.765 169.952 181.933 169.921 182.101 169.935C182.268 169.948 182.429 170.005 182.568 170.1L189.625 174.161C189.962 174.383 190.225 174.701 190.378 175.074C190.532 175.447 190.569 175.857 190.486 176.251C190.471 176.418 190.413 176.579 190.317 176.716C190.22 176.854 190.09 176.964 189.938 177.035C189.786 177.107 189.618 177.138 189.45 177.124C189.283 177.111 189.122 177.054 188.983 176.959Z"
            fill="url(#paint23_linear)" />
        <path
            d="M194.048 153.365L180.542 145.612C180.205 145.391 179.942 145.073 179.789 144.7C179.635 144.327 179.598 143.917 179.681 143.522C179.698 143.356 179.757 143.197 179.853 143.06C179.949 142.923 180.079 142.813 180.229 142.741C180.38 142.668 180.547 142.635 180.714 142.645C180.881 142.655 181.043 142.708 181.184 142.798L194.69 150.567C195.027 150.784 195.291 151.099 195.444 151.469C195.598 151.84 195.635 152.248 195.551 152.64C195.534 152.806 195.475 152.965 195.379 153.102C195.283 153.239 195.153 153.349 195.002 153.422C194.852 153.495 194.685 153.528 194.518 153.518C194.351 153.508 194.189 153.455 194.048 153.365Z"
            fill="url(#paint24_linear)" />
        <path
            d="M182.331 159.836L177.925 157.292C177.588 157.07 177.325 156.752 177.172 156.379C177.018 156.006 176.98 155.596 177.064 155.202C177.079 155.035 177.137 154.874 177.233 154.737C177.329 154.599 177.46 154.489 177.612 154.418C177.764 154.346 177.932 154.315 178.099 154.329C178.267 154.342 178.428 154.399 178.566 154.494L182.973 157.022C183.31 157.244 183.573 157.561 183.726 157.934C183.88 158.307 183.917 158.717 183.834 159.112C183.817 159.278 183.758 159.437 183.662 159.574C183.566 159.711 183.436 159.821 183.286 159.894C183.135 159.966 182.968 159.999 182.801 159.989C182.634 159.979 182.472 159.927 182.331 159.836Z"
            fill="url(#paint25_linear)" />
        <path
            d="M177.976 170.673L175.156 168.988C174.819 168.77 174.555 168.456 174.402 168.085C174.248 167.715 174.211 167.307 174.295 166.915C174.312 166.748 174.371 166.589 174.467 166.452C174.563 166.315 174.693 166.205 174.844 166.133C174.994 166.06 175.161 166.027 175.328 166.037C175.495 166.047 175.657 166.1 175.798 166.19L178.634 167.875C178.967 168.097 179.226 168.413 179.379 168.782C179.532 169.15 179.573 169.556 179.495 169.948C179.475 170.115 179.414 170.274 179.316 170.41C179.218 170.547 179.087 170.656 178.935 170.728C178.784 170.801 178.616 170.834 178.448 170.824C178.281 170.814 178.118 170.762 177.976 170.673Z"
            fill="url(#paint26_linear)" />
        <path
            d="M198.657 169.274L186.839 162.533C186.509 162.305 186.251 161.986 186.098 161.615C185.946 161.244 185.904 160.837 185.978 160.443C185.998 160.276 186.06 160.117 186.158 159.981C186.256 159.845 186.386 159.735 186.538 159.663C186.69 159.59 186.857 159.558 187.025 159.567C187.193 159.577 187.355 159.629 187.498 159.718L199.315 166.46C199.651 166.683 199.912 167.001 200.066 167.373C200.219 167.746 200.258 168.155 200.177 168.549C200.157 168.716 200.095 168.875 199.997 169.011C199.899 169.148 199.768 169.257 199.617 169.33C199.465 169.402 199.298 169.435 199.13 169.425C198.962 169.415 198.799 169.363 198.657 169.274Z"
            fill="url(#paint27_linear)" />
        <path
            d="M199.737 163.241L179.225 151.443C178.888 151.226 178.624 150.911 178.47 150.541C178.317 150.171 178.28 149.762 178.364 149.37C178.381 149.204 178.44 149.045 178.536 148.908C178.632 148.771 178.762 148.661 178.912 148.589C179.063 148.516 179.23 148.483 179.397 148.493C179.564 148.503 179.726 148.556 179.867 148.646L200.379 160.443C200.716 160.665 200.979 160.983 201.132 161.355C201.286 161.728 201.324 162.138 201.24 162.533C201.221 162.698 201.16 162.855 201.063 162.989C200.965 163.124 200.836 163.232 200.685 163.303C200.535 163.374 200.369 163.405 200.203 163.394C200.038 163.383 199.877 163.33 199.737 163.241Z"
            fill="url(#paint28_linear)" />
        <path
            d="M188.274 169.948L176.456 163.207C176.119 162.985 175.856 162.667 175.703 162.295C175.549 161.922 175.512 161.512 175.595 161.117C175.612 160.951 175.671 160.792 175.767 160.655C175.863 160.518 175.993 160.408 176.143 160.335C176.294 160.263 176.461 160.23 176.628 160.24C176.795 160.25 176.957 160.302 177.098 160.393L188.916 167.134C189.248 167.356 189.507 167.671 189.66 168.04C189.814 168.409 189.854 168.815 189.777 169.207C189.758 169.372 189.698 169.53 189.602 169.667C189.506 169.803 189.378 169.913 189.228 169.987C189.079 170.061 188.913 170.096 188.746 170.089C188.579 170.083 188.417 170.034 188.274 169.948Z"
            fill="url(#paint29_linear)" />
        <path
            d="M187.937 183.077L173.789 174.92C173.454 174.697 173.192 174.379 173.039 174.006C172.886 173.634 172.847 173.225 172.928 172.83C172.946 172.663 173.007 172.503 173.105 172.366C173.203 172.229 173.335 172.119 173.488 172.048C173.641 171.977 173.809 171.946 173.977 171.959C174.146 171.972 174.308 172.029 174.448 172.122L188.595 180.263C188.928 180.488 189.185 180.807 189.336 181.179C189.486 181.551 189.522 181.96 189.439 182.352C189.422 182.519 189.363 182.678 189.267 182.815C189.171 182.951 189.042 183.062 188.891 183.134C188.74 183.207 188.574 183.24 188.406 183.23C188.239 183.22 188.078 183.167 187.937 183.077Z"
            fill="url(#paint30_linear)" />
        <path d="M214.493 94.6648L225.601 90.2493L223.103 73.9185L217.7 78.6879L214.493 94.6648Z"
            fill="url(#paint31_linear)" />
        <path d="M140.125 18.5385L166.951 7.83667L162.072 18.5385L147.739 21.9091L140.125 18.5385Z"
            fill="#5793CE" />
        <path
            d="M224.301 62.9639C222.966 62.1914 221.492 61.6876 219.963 61.4808C221.431 51.6048 217.177 41.2569 208.972 36.4706C206.626 35.1 204 34.2762 201.291 34.0606C204.515 22.0947 199.602 8.51102 189.473 2.67979C187.088 1.24078 184.41 0.355748 181.637 0.0902655C178.864 -0.175217 176.066 0.185656 173.451 1.14615L173.215 1.24727L172.827 1.39895L164.385 4.7696L167.762 7.6515C165.318 8.49388 163.098 9.8799 161.27 11.7047C159.442 13.5296 158.054 15.7454 157.21 18.1848C153.378 28.1956 157.295 40.3805 165.989 45.3859L217.582 88.7999C224.099 92.5582 228.066 90.9909 230.936 83.4743C233.806 75.9577 230.835 66.7222 224.301 62.9639Z"
            fill="url(#paint32_linear)" />
        <path
            d="M159.523 13.7017L188.46 2.15723C186.166 0.940045 183.64 0.220737 181.047 0.0464707C178.455 -0.127796 175.855 0.246915 173.418 1.14603L173.181 1.24715L172.793 1.39883L164.352 4.76948L167.728 7.65139C164.407 8.72416 161.527 10.8482 159.523 13.7017Z"
            fill="#5793CE" />
        <path
            d="M199.805 57.0145L218.933 49.3969C217.272 43.9694 213.666 39.3433 208.803 36.403C208.179 36.0393 207.53 35.7183 206.862 35.4424L180.643 45.942L199.805 57.0145Z"
            fill="#5793CE" />
        <path
            d="M170.244 5.89863L178.449 10.6175L192.681 5.05597C191.673 4.19446 190.588 3.42722 189.439 2.76393C187.7 1.76117 185.823 1.0174 183.868 0.556152L170.244 5.89863Z"
            fill="#D4ECFF" />
        <path
            d="M217.666 46.2285L203.907 51.689L207.959 57.3854L219.777 52.7002C219.345 50.4639 218.636 48.29 217.666 46.2285Z"
            fill="#D4ECFF" />
        <path
            d="M215.1 66.5872C213.766 65.8089 212.292 65.2993 210.762 65.0873C212.23 55.2281 207.858 44.7454 199.67 40.0097C197.356 38.6599 194.763 37.8585 192.09 37.6671C195.314 25.7181 190.401 12.1175 180.272 6.28629C169.366 2.71797e-05 156.67 5.056 151.943 17.6454C151.774 18.0667 151.622 18.5049 151.487 18.9262C143.181 15.2522 134.014 19.3981 130.418 28.8022C126.585 38.8131 130.519 50.9811 139.197 56.0034L204.751 93.8052C211.268 97.5635 218.899 94.5131 221.769 87.0639C224.639 79.6148 221.634 70.3455 215.1 66.5872Z"
            fill="#D4ECFF" />
        <path
            d="M216.468 65.8288C215.129 65.0484 213.649 64.5387 212.112 64.3288C213.598 54.4697 209.208 43.987 201.02 39.2681C198.717 37.9065 196.127 37.0987 193.457 36.9086C196.665 24.9596 191.769 11.3591 181.639 5.52784C178.714 3.7649 175.359 2.84154 171.943 2.85938C168.526 2.87723 165.181 3.83557 162.275 5.62896C165.086 4.20261 168.215 3.51449 171.367 3.62949C174.519 3.74448 177.589 4.6588 180.289 6.28623C190.418 12.1175 195.365 25.718 192.106 37.667C194.779 37.8584 197.373 38.6599 199.687 40.0096C207.875 44.7454 212.247 55.1775 210.778 65.0872C212.309 65.2992 213.783 65.8088 215.117 66.5872C221.651 70.3455 224.588 79.4799 221.718 86.9965C220.764 89.6641 218.992 91.9639 216.654 93.5692C219.684 92.0557 222.008 89.4276 223.137 86.2381C225.939 78.7215 222.985 69.5871 216.468 65.8288Z"
            fill="white" />
        <path
            d="M151.42 18.9261C151.538 18.5553 151.673 18.1846 151.808 17.7969C149.684 16.9956 147.402 16.6988 145.142 16.9299C142.883 17.1609 140.709 17.9136 138.792 19.1283C140.749 18.1591 142.898 17.638 145.083 17.6031C147.267 17.5681 149.432 18.0201 151.42 18.9261Z"
            fill="white" />
        <path
            d="M144.008 20.8813C142.846 20.8826 141.696 21.1236 140.631 21.5891C137.705 23.0924 135.486 25.6826 134.452 28.8023C131.076 37.5997 134.689 48.7397 142.32 53.1384L207.79 91.0077C208.641 91.5708 209.607 91.9372 210.617 92.0801C211.628 92.2229 212.658 92.1387 213.632 91.8335C214.595 91.3487 215.45 90.6749 216.146 89.8525C216.842 89.0301 217.365 88.076 217.683 87.0472C220.115 80.7103 217.515 72.6545 212.011 69.4861C211.055 68.9141 209.992 68.5415 208.888 68.3906L206.22 68.0367L206.575 65.7446C207.942 56.6607 203.722 47.0544 196.563 42.9253C194.731 41.8268 192.667 41.169 190.536 41.0041L187.16 40.785L187.903 38.021C190.857 27.0664 186.096 14.4265 177.064 9.18511C175.234 8.01879 173.16 7.28895 171.002 7.05221C168.845 6.81546 166.661 7.07819 164.622 7.82C162.553 8.77218 160.704 10.141 159.19 11.8405C157.676 13.5401 156.531 15.5336 155.826 17.696C155.674 18.0668 155.539 18.4544 155.421 18.8252L153.732 24.2519L148.566 21.9093C147.134 21.2569 145.582 20.9069 144.008 20.8813Z"
            fill="url(#paint33_linear)" />
        <path d="M176.136 62.9468L178.398 62.0367L176.642 60.6885L176.136 62.9468Z"
            fill="#5793CE" />
        <path d="M175.004 38.5097L177.199 37.6333L177.047 38.5434L175.004 38.5097Z"
            fill="#5793CE" />
        <path d="M183.226 57.2336L185.522 56.3067L182.18 52.9529L183.226 57.2336Z" fill="#5793CE" />
        <path
            d="M177.79 61.9864L169.045 56.9304C168.816 56.7763 168.638 56.5581 168.533 56.3032C168.428 56.0484 168.4 55.7682 168.454 55.4979L170.514 45.5881L180.863 51.5542L178.769 61.4639C178.761 61.574 178.725 61.6803 178.664 61.7728C178.604 61.8653 178.521 61.941 178.423 61.9931C178.326 62.0452 178.217 62.0719 178.106 62.0707C177.995 62.0695 177.887 62.0405 177.79 61.9864Z"
            fill="#5793CE" />
        <path
            d="M177.165 37.6332L165.348 43.5824C164.841 43.8352 165.01 44.779 165.618 45.1329L175.275 50.6945L184.931 56.2561C185.539 56.61 186.012 56.037 185.725 55.3292L178.719 38.4759C178.415 37.8018 177.689 37.3804 177.165 37.6332Z"
            fill="#5793CE" />
        <path
            d="M175.579 62.8965L166.817 57.8405C166.588 57.6864 166.409 57.4682 166.304 57.2134C166.199 56.9585 166.172 56.6783 166.226 56.408L168.319 46.4983L178.685 52.4643L176.507 62.3572C176.502 62.4635 176.47 62.5668 176.414 62.6577C176.359 62.7486 176.281 62.8242 176.189 62.8777C176.097 62.9313 175.993 62.961 175.886 62.9643C175.78 62.9676 175.674 62.9443 175.579 62.8965Z"
            fill="#D4ECFF" />
        <path
            d="M174.887 38.5603L163.069 44.5095C162.579 44.7623 162.731 45.7061 163.356 46.06L172.996 51.6216L182.652 57.1831C183.26 57.5371 183.75 56.9641 183.446 56.2562L176.44 39.4029C176.119 38.7625 175.393 38.3075 174.887 38.5603Z"
            fill="#D4ECFF" />
    </g>

</svg>
